<mxfile host="Electron" modified="2024-04-02T13:13:28.340Z" agent="Mozilla/5.0 (X11; Linux x86_64) AppleWebKit/537.36 (KHTML, like Gecko) draw.io/24.1.0 Chrome/120.0.6099.109 Electron/28.1.0 Safari/537.36" etag="05pi0drx_ySHKKCKHHq9" version="24.1.0" type="device">
  <diagram name="Page-1" id="TbJ7f7L5GU7RN-3Fn5zy">
    <mxGraphModel dx="2284" dy="870" grid="1" gridSize="10" guides="1" tooltips="1" connect="1" arrows="1" fold="1" page="1" pageScale="1" pageWidth="850" pageHeight="1100" math="0" shadow="0">
      <root>
        <mxCell id="0" />
        <mxCell id="1" parent="0" />
        <mxCell id="A_PxswtfMoNjopDG6Hut-114" value="" style="rounded=1;whiteSpace=wrap;html=1;dashed=1;" parent="1" vertex="1">
          <mxGeometry x="-90" y="490" width="630" height="380" as="geometry" />
        </mxCell>
        <mxCell id="A_PxswtfMoNjopDG6Hut-3" value="" style="shape=image;aspect=fixed;image=data:image/svg+xml,PD94bWwgdmVyc2lvbj0iMS4wIiBlbmNvZGluZz0idXRmLTgiPz4KPCEtLSBHZW5lcmF0b3I6IEFkb2JlIElsbHVzdHJhdG9yIDIxLjEuMCwgU1ZHIEV4cG9ydCBQbHVnLUluIC4gU1ZHIFZlcnNpb246IDYuMDAgQnVpbGQgMCkgIC0tPgo8c3ZnIHZlcnNpb249IjEuMSIgaWQ9IkluZmx1eERhdGFfU3ltYm9sX09ubHkiIHhtbG5zPSJodHRwOi8vd3d3LnczLm9yZy8yMDAwL3N2ZyIgeG1sbnM6eGxpbms9Imh0dHA6Ly93d3cudzMub3JnLzE5OTkveGxpbmsiCgkgeD0iMHB4IiB5PSIwcHgiIHdpZHRoPSI5MDBweCIgaGVpZ2h0PSI5MDBweCIgdmlld0JveD0iLTE3MyAtMTQzIDkwMCA5MDAiIHN0eWxlPSJlbmFibGUtYmFja2dyb3VuZDpuZXcgLTE3MyAtMTQzIDkwMCA5MDA7IgoJIHhtbDpzcGFjZT0icHJlc2VydmUiPgo8c3R5bGUgdHlwZT0idGV4dC9jc3MiPgoJLnN0MHtmaWxsOm5vbmU7fQoJLnN0MXtmaWxsOiMyMkFERjY7fQo8L3N0eWxlPgo8cmVjdCBpZD0iQmFja2dyb3VuZCIgeD0iLTE3MyIgeT0iLTE0MyIgY2xhc3M9InN0MCIgd2lkdGg9IjkwMCIgaGVpZ2h0PSI5MDAiLz4KPHBhdGggaWQ9IkN1Ym9jdGFoZWRyb24iIGNsYXNzPSJzdDEiIGQ9Ik02OTQuMSwzOTQuOWwtODEtMzUyLjdDNjA4LjUsMjIuOSw1OTEsMy42LDU3MS43LTJMMjAxLjUtMTE2LjJjLTQuNi0xLjgtMTAuMS0xLjgtMTUuNy0xLjgKCWMtMTUuNywwLTMyLjIsNi40LTQzLjMsMTUuN2wtMjY1LjIsMjQ2LjhjLTE0LjcsMTIuOS0yMi4xLDM4LjctMTcuNSw1Ny4xbDg2LjYsMzc3LjZjNC42LDE5LjMsMjIuMSwzOC43LDQxLjQsNDQuMmwzNDYuMiwxMDYuOAoJYzQuNiwxLjgsMTAuMSwxLjgsMTUuNywxLjhjMTUuNywwLDMyLjItNi40LDQzLjMtMTUuN0w2NzYuNiw0NTNDNjkxLjQsNDM5LjIsNjk4LjcsNDE0LjMsNjk0LjEsMzk0Ljl6IE0yNDAuMi0zMi40bDI1NC4xLDc4LjMKCWMxMC4xLDIuOCwxMC4xLDcuNCwwLDEwLjFMMzYwLjgsODYuNGMtMTAuMSwyLjgtMjMuOS0xLjgtMzEuMy05LjJsLTkzLTEwMC40QzIyOC4yLTMxLjQsMjMwLTM1LjEsMjQwLjItMzIuNHogTTM5OC41LDQyMy41CgljMi44LDEwLjEtMy43LDE1LjctMTMuOCwxMi45bC0yNzQuNC04NC43Yy0xMC4xLTIuOC0xMi0xMS4xLTQuNi0xOC40TDMxNS43LDEzOGM3LjQtNy40LDE1LjctNC42LDE4LjQsNS41TDM5OC41LDQyMy41egoJIE0tNTMuNiwxNzQuOEwxNjkuMy0zMi40YzcuNC03LjQsMTkuMy02LjQsMjYuNywwLjlMMzA3LjQsODkuMmM3LjQsNy40LDYuNCwxOS4zLTAuOSwyNi43TDgzLjYsMzIzLjFjLTcuNCw3LjQtMTkuMyw2LjQtMjYuNy0wLjkKCUwtNTQuNSwyMDEuNkMtNjEuOSwxOTMuMy02MC45LDE4MS4zLTUzLjYsMTc0Ljh6IE0wLjgsNTAzLjZsLTU4LjktMjU4LjhjLTIuOC0xMC4xLDEuOC0xMiw4LjMtNC42bDkzLDEwMC40CgljNy40LDcuNCwxMC4xLDIyLjEsNy40LDMyLjJMMTAsNTAzLjZDNy4yLDUxMy43LDIuNiw1MTMuNywwLjgsNTAzLjZ6IE0zMjYuNyw2NTQuNmwtMjkxLTg5LjNjLTEwLjEtMi44LTE1LjctMTMuOC0xMi45LTIzLjkKCWw0OC44LTE1Ni42YzIuOC0xMC4xLDEzLjgtMTUuNywyMy45LTEyLjlsMjkxLDg5LjNjMTAuMSwyLjgsMTUuNywxMy44LDEyLjksMjMuOWwtNDguOCwxNTYuNkMzNDcsNjUxLjksMzM2LjksNjU3LjQsMzI2LjcsNjU0LjZ6CgkgTTU4NC41LDQ0Mi44TDM5MC4zLDYyMy4zYy03LjQsNy40LTExLDQuNi04LjMtNS41TDQyMi41LDQ4N2MyLjgtMTAuMSwxMy44LTIwLjMsMjMuOS0yMi4xbDEzMy41LTMwLjQKCUM1OTAuMSw0MzEuOCw1OTEuOSw0MzYuNCw1ODQuNSw0NDIuOHogTTYwNS43LDQwNC4yTDQ0NS41LDQ0MWMtMTAuMSwyLjgtMjAuMy0zLjctMjMtMTMuOGwtNjguMS0yOTYuNWMtMi44LTEwLjEsMy43LTIwLjMsMTMuOC0yMwoJbDE2MC4yLTM2LjhjMTAuMS0yLjgsMjAuMywzLjcsMjMsMTMuOGw2OC4xLDI5Ni41QzYyMi4zLDM5Mi4yLDYxNS45LDQwMi4zLDYwNS43LDQwNC4yeiIvPgo8L3N2Zz4K;" parent="1" vertex="1">
          <mxGeometry x="420" y="550" width="60" height="60" as="geometry" />
        </mxCell>
        <mxCell id="A_PxswtfMoNjopDG6Hut-52" value="" style="group" parent="1" vertex="1" connectable="0">
          <mxGeometry x="127.63999999999999" y="760" width="70" height="80" as="geometry" />
        </mxCell>
        <mxCell id="A_PxswtfMoNjopDG6Hut-41" value="" style="shape=image;aspect=fixed;image=data:image/png,iVBORw0KGgoAAAANSUhEUgAAAQAAAAEACAYAAABccqhmAAAACXBIWXMAAAsTAAALEwEAmpwYAAAAGXRFWHRTb2Z0d2FyZQBBZG9iZSBJbWFnZVJlYWR5ccllPAAAKJdJREFUeNrsXXuQXFWZPzP9mkf3vJNJZpLJZMjTgCQu+EREAavchSHUmnItlMQoLiIs+UfXRS1CsaUsWFTcXZRaQJIAIhVREtxSBBQELNeo5P0YzJuZTDIzmWdm+t17v07fsdPTj/v43XtPd3+/qqlInNzue+85v/M73+8731eRSCQEg8EoT1QwATAYTAAMBoMJgMFgMAEwGAwmAAaDwQTAYDCYABgMBhMAg8FgAmAwGEwADAaDCYDBYDABMBgMJgAGg8EEwGAwmAAYDAYTAIPBYAJgMBhMAAwGgwmAwWAwATAYDCYABoPBBMBgMJgAGAwGE4CN6O7uXqn8sUn5+Rg/jZLECeVnw44dO17gR8EEkDn5G5Q/jis/9fw0Sh6rFBLYxY9BiEp+BNPYwJO/bLCJHwErgPTVv1P54xgPh7LCFxQVsJkVAIOwmR9B2WFjatvHBFDmq/81goN+5YgFqW0fEwCv/owyxYbU9o8JoExX/w2plYBRnqCg78ZyfgBlGwRk24+Rho/v2LHjNVYA5YVNPPkZaWOBFUAZrf6U8fc2j3tGGsrSFixXBcCJIIwZY6IcbcGyIwDlJa8WbPsxZoK2gxuYAHj1Z5Qv7i03W7CsCEB5uRsF234MXiCmUTZBwBSz7xIc+WcURtnYguWkADby5GdoxGbeApTW6n+N8sdaHtcMjViQyhJlAiih1Z/B0DVmysEWLHkCUF7iOsG2H0M/yuKcQEkHAVMMToE/jvwzjGLhjh07jrMCKE7waT+GWWxmBVCcq3+n4DJfDAxuLtVKwqWsADjjj8FjqRwJIGX73cTjlgHCglQWKRMAMzajTLGhFG3BkiOAlO13OY9XBhj1pbiwlFQQkMt8MWxASXUVKjUFsJEnP4O3l2WoANj2Y9iIkikfVkoKYDOPS4ZdSrNUAoIlQQDc3YdhM0qmq1CpKABe/Rl2oyS6ChU9AXB3H4ZDKInTgkUdBCwG22+yyi9OtV4CuVZtaELM6z8i9TuZXPReEZuLWRi9Jw4L38nDsg/Doi4f5i5yApO6u8/hBZeLno73wq7nFQkxuOIjYuWrW6W83/1XrRG+VR8WNf4A5oJXKaS38xVR/8pPZB6DpAKu4S2A/as/dfeRtszXWG0TdPITwl2XilPLPiiG2pfIt/IHmsXRyz8ujogq6HXPX3mdCHUslXkofiyVfcoE4MDqLy32XXIF9Ho+n08If13yf7997a3S3e+u6y58p3A8IQbGJ6DXHrlhvfRjsVhtwaIkANm7+/Q3zxdD9a2w67niMRFauGL6v6cCTcpq+wlp7pcUyVDb4un/7lU2KyIagV0/Vt+sKIHrZR6SRdtVqFgVgOSr/5XQ61U0zRbC67vo73re/w8i4quW4n4zFUksIcSpYBT6GeMf7RbxqhqZX3tRdhUqOgKQvbsPBf6mfLWw63kScRFt75rx9xFvtei58gbn71chIlIkmTgbd4nY+XHY58QVshu77p94YSpnAkgxrLRSK+L2imNty6HXjLcpt+zKbtZQ0I2Cb47drzIpj+XZihypwCqUycs+LCKt82UeojelslKZACzCRiGx7be/6wqFBDyw6/kqFDk9qz3v76jBN0fu96o1SSWSU7ZH42JidAT6maOsAsqTAGTv7kNBP1TCj4rQosI2IgXf+rvsr38y1jIvaUkWwjGXsh2KhGGfG+5YKoJLVsk8VC8vpq5CxaQANsr85Wjvj0TS9qvWFkvYp6zEdmPfR7V9ZtIWDIahn10EKqBoTgsWBQHI3t2HVn6o7ZeIa1r9VVAQjoJxdoEUR7rtVwhkC8aDk7DPJ1uQXAGJUTTnBCqLYPI3yLyvosAfevWvaJyVM/CXU2pf/glbbEH6DL2Kg2zBk1gRkMwLiNW3yDx07y4GW7AYFMAGIXHg72j7crzt16E/1ZeCcftt2ApQAlI2269grEK4RWR8FPY9yBaUXAUQNjMBmFv9iUHvlfX70Uk/dL5/fJ7xQCIF5Sg4Z9n9Bprz2n6F8NdKbCIP2YJFcE7gGiYA45DaUiHbDwmvyyVizXNMXUNrcM4IktmHXuPbjEllL4C2BVkFlCgByN7dh4J+lPOPRHix+ViCVbYg5ftrsf00qQCwLTj53o/IPMek7iokswIoq3x/b21gRr6/mX06GoPtiyHXoYAg2hYcv6oozglsltEalLIi0MMPP/zfK1eu/OrixYul+D7nz5+/4Mun8NPjg+LrfzoOu36V2yWCS9+nO/KfCx+oTohn52MP43x/yKX84NaLj9R7RDBRAbvemtqwWOO/QCwjIyPC7XaL6upqYeX4npycFF6vV59iCYeT340VQA489thjC2688cY7ZJn8NIDSJ/9YJCbu330K+xmU3+7CDYrr/XH4c1juw06kPedj0OttO+8V/eGEiEajwu/3i6qqKukmv/rveAuQBx0dHS8qL69Clu8zNjZ28Up4oE+MR3CDN1DlE6HmubDrtXsSYn0jngA+qZAKKQuYbI/GhVtgv+eW81W2jAmjk59QW1vLBJALTz755FXt7e2XyfJ9QqHQRS/s3fMh8eQ7Z7D717ZF0Os91Bqz7Hk8NAd77bcnsNf7c9gjDkTc0k5+gsfjYQLIhWXLlr2YLredlv6x2MUD9GvAfT+hsbFxuswXau//wRrrZO88RV18Aagu6JxANIYlgacmq6Wd/CoopsQEkIHHH3/8W4r8b6ipkSOaOz4+ftHL/sPAuPi/gXHoZwy3LpR6hc6Gu5tjIgAcNfsmY8JTgSOtE1GX+GUQv4hMTExAJn9y0lVWMgFk4kMf+tB0xl9FhbMhAJL+mUT0tZ3YvqOBufNgth+BVmZaoa1GXeUFEkCBbMG+IDYW8PxklZgEOgyRSCTpKKAgUxxACgJ48cUXX2toaJjevJFV4iTi8YsH5I+UfX/vJO47+dwuMd6EC/wFwJOyECjIiHQFToZiogqoAmjy/3SyCjb5acVGOwrkVjABXJD+C97znvdcnbnXcgoU9U8P1JDtR5F/JCraFkJtv2/PjiVXZjvx7VlYwkHbgr9StgED8UopJ7/TY1wqAujs7Hw10/bLXIHtAr3oTOl//66TUNuvyV8jgg2zYNejlfjTdfY/Lwo2IvMNyBasAL/3RydqpJz8Mm0DHCWALVu2fGb58uUzjr8FAgFHvg8FetJxYGRSPH9iCPoZ52ZjA3/olVjfZ2Mn7J5J7L0cjLgN2YJWT36CLHagowSwZMmSR7P9PSraqlf6ZwZ60Bl/LS2zoLYfrcBW2n6FQEHHu5uxtuBEBEsCelWAHZNfhQx2oGMEoKz+/0m2X859so1OQDbp/+u+EajtV+12icEW3OlBCvyhV2Aj+EIj1hb8azAmfAI3+QbjlUlXQLbJn5x8EtiBjnwDCvxdccUVX5ElSJKZ7pvM91f2/ki4Z82F2n7rbbL9CoGCjxSERIFswRMhrAqgvIBCtqDdk1+WOIAjBNDa2rol3fbLBvLi7QDJsMwX8STY9qN8f6Tt157MyIsJWUBBSOQ5gd5QXFEBOHVDk3/r+WqpJr8Kp+1A2wmA8v0zbb9cstwO6Z+Zekz5/j8C5/tH53ZCbT/ad9dJdowLnYewdxK7vfldyJvMEpRp8tutdKUggPnz52/Wctqvudn6lleU7psJ9Gm/WfV1hopo5gKttE7YfoVAwch/rEPbglhS2ZpxTsDpyS/DNsBWAnj66ac3ZLP9nEC2dF/K90fbfgOzO6VeabHfLQ4NCO5RVIAXmCFItiApAVkmP8FpO9BWAli4cOH9en7fKicg20k/dfVHImn7VeMYnlZYJ22/QqCg5Nq6COx6ZAueC2PVDqUIj4ajUkx+FU7agbYRwLZt2x7v7Oz0m5XoKOmfmWtAZb6Qth+V+Rpsxa3+AXC03QpQItW6hphoc+Mm1uEpvC3460itkKkUnpN2oC2fTLbf+973vvV6/50VEdJs0t+KMl8esv2AgT+y/eokLeFKh7fouVJANVARF99sxh7mOhbEjoOXQlUKEbikeX5OxgFsGVJk+xkp82VF8cRs5wzI9kOX+RqfhUv6aU9m3Mm5+tOqTytY+ip2XU1MvL8KJ91PhxNwW/BnIbmqCDtlB1pOAGT7Kau/ocaedXV10O+SedKPQLYfeu+PLvMlQ8Zfrr0rrfrZ5PQ9YBWwC3xa8M2wTxyMylOeyyk70HIC6Orq2ibDA86W7ktAS/9GIi1wma9P+uUiAFr1acXKd2ZjuTcubvbjVjXqKhQBlw97JihPYQ6ntgGWEgDZfosWLTLV6wrlBGSe9COQ7fdyH7ZV1TB69Zcs8Jdv1Z+pAiIiUIkLtu2n8mHAgODJmFu8Ea6S4rk6ZQdaSgCXXXbZg2avce7cOcigzVbS6f5d2NW/qXUOvMzXe3xyRKu1rPoztnCVZAviVECyfFgIrwKQ5cPMjtOSIYDnn3/+54FAwDStmbVIsqX7Eijd9+Aobt9Ftt858Gk/WQJ/elb9TNzVGIHagieT5wSw5cNeClVL8ZydsAMt+UTq7qOs/jdRFN/soR6zZcIzT/ol/86CMl/o7j40+Z22/Yys+tnwH7OwAcG94MIhPw/VSGELOhEHsGSItbW1vaDafmZJwEyZ8MzGHirQ+f5U5qsYuvvYtepn4v1VWFsw2VUogX0+/zPlFzLAbjsQTgAPP/zw3yur/8r0vzNLAkYCgbnSfa3o7oMu82Vld59CmJqagqz6mXhgFvZ499tgW/BQ1COFLWi3HQgngA984APPZPt7MyRgpEx4tnRfguzdfZws80XPjN6TFWmy7e6EuBUYELSifNhjUwHHCcDubQCUAJS9/7fmz5+fs8yXURLQy4rZ0n0J6DJfBHR3HyeSftRVnzrqWgkKCCJtQSof5gafE3A6IGi3HQglAGX1v7fQ7xghAb1lwnP9PrrMF7q7z5drztte5svKVT8TZAsSCaBAtuC7IXxA0Glb0C47kD4HRgDbt29/rVCZL6MkoKdMeLZ0XwIF/mTv7nNHm33VkO1a9TNBeQHLvDiVQ+XDvAlgxqEy+X/u8DkBO+xAmvy0RYZ8Etl+y5cvv1rPv9FDAloDUrnSfcn2Q5f5sqq7D03MUlr1s+GbzRHo9faBHxltA/ZZ3GbcyTgAFUNR7XUIAXR0dLxq9LSfVhLQ4gRkS/dVpT+6zJdV3X2snJROrfqZWOUKiqs9QRyhReMiAbTP6OTh94adbVNvpR1Ic0kdZ6YJ4JFHHvmSmTJfWkmgUCAwW2MPghXdfQaa50Ovl97dhxSMFc1RnVz16bMppTsYDE4PbLgKCCZg5wSoIOnOkEu8OuWcCrDKDqS5lj4GTBPAypUrHzJ7DS0kkG9S5JL+ydVf8u4+2cp8IUuik9yjld/OVX9kZEQMDQ0l8zDo8+mzKY7jcrmmB1+7Oy7uqMPdZ7J8GEDlUYIRKQrCAyPOKSUrtgHJoF9GfMEUATz33HOP57P9kCSQzwnIlu5LQJf5sqK7T7bWWqjeiOqWyIrCKukEMzw8PJ02TP9Ng5dqORRybz7vDwk/0BY8EowLr8nCIekJRn3RSvHIqDNbAbQdSIoiWyzNMAGkAn9rkV8yHwnkKhOerbFHkhQsyPe3s7tPrniGnlXf7DkKrXLe7/cbShumnIBv1ONiAWQLngwaJ4Cwcj+kJNLx1IRXjMedsQVRdiCNh1yEYpgAZs+evUWr7WdFTECV/rkGebF39zE6edGrvhY5bwara8PiCh8u4NUbJltQ/1aAEooOTM0kD5r833VoK4CwA2nrnC+AbugTnnjiiav02n4IEsi8kVxVg0uhuw8xtp5gIGLVNyPnzeCrddhzArsNdBV6NxhLKohs2H7eIw6G7T+aiYgD0HvLR9SG7qqtre3HRmw/sySQPuFzpfsSSqW7j1YCMLrqI+W8GVypKICbanBqjcqHiZh2VeFTFENvgf4D3x32JZ+XXT0rpxceE3Yg7ftJqeVVGXov+tRTT21YsWLFfDtuPpME1IeR66QfoRi6+2gt80WTEbnqWy3nzYAcAWRAcJeiArTagnunCv/en8Me8etEfVKW08SiZ2nHMzNqB1L8QEsgUTcBLFu27Dt2Dox0ElBXuFwn/QjoMl9WdPfRU+Yr1zan0KrvlJw3HBNxx8WtfpwKIBGgyRaMx6Ztv0L44URNMiZAE4ueJT1XIgIrn6eRbUCuiL9pAiDbr7W11fbjUioJ0ODNJ/3J9kOX+XK6u0+mf5/ehENGOW8GZAu2uXCTqWcqvy1ICkFPF+LTsUrxTEaDUZqgpKjIirbiEA+RjZ56GET0emo5aCYAsv1WrVq13qnBoZJArodRqt190oOB6U04ZJbzxgkyIf61IQi95rGp3IRLCiHT9iuEp89Xib7YzJdIWag08ehdoLcHeoglPc1X07zS+otk+1kd+MsGuhla3Wig0yDP5Wk+fhjd3ccL7e4ztzImbkmcVVZp/U0pifxoZadnoE5wVRrKKOfN4NrqSNIW/FMIQ7z9kYTo8MVErPLiYBgpgyMGcgYmEhXiwbFasalxPK9sJxWmVqM2m4+hdbzQGCkU9JtBGFouTrbf9ddf/4adk55uJluSD7FrQ8PFyYfk91/7yiHsl+haAU353TonmKyNZwREgMTs9GNFco9sOBRxiU+fwdXo81ZWiMv8Fy8a/cFowch/PjzeNCau8Go7z0CLlpqubrTPRSGiV4/36oUmQdrZ2flzO148rXBnzpxJTv5cAZBsDPedfdiMv8a6AHTyX5ksimls8tOzoBdLKoDu3aqOyTJhmScGtQVJ5ofT7DSvBtuvEB4c014zgBQrvUNSBbRtM7I9yGcHGp38mgiAbL/Fixe3WPWyidkoWk1BFNrrFuoHmJkn/8fBCfFq/xj0Ow23LYZe74EW496x+uLViU+SkkjBbj/abnyjIQi1BSnLT7UF902Zv25P1C12TOlXYzS+6Z2Ojo7qeoe57EB1gTCKSg1feLUVEp8mPE18egi0tzd6+OG/DmMz/hrB3X1W+6PJgphGQEE/9bmkp4WWgxqggODqGqwt2BuKiUQsqtn2KwSyBY2CtgNqTgHNhUKqIJsapq2F2ZRv2w48q/t6umG6eRrYRic9EUeyGi8YvtZ2EZjXIbqqcaW5FngThp9X+vMhSy9zkKhqoFRjAy3D/UKcmoBdr7++SfS1zJXqHtV5QKqAiKCpqSlrnIB+h95/+higf2M5AShf6gXlj48Z/QDa1w8ODk5LezONPqZlS9pquPaSWWLnEMB/dblFRes8MaAo7iblGbtAfsdfIl4xEA+KWZX6Vh0Kdmp5VunJUahjxDKAHJ3H31EIALRa0/utWrhEjAMd0puqsdswdXugknpmJijt9dUxQQupkQWUVAMpS7o+bb81uQBvvfXWsJ5z/+q+3swqrweff+uIaRJo7FwkhusulPnq8lWIRh/ue3/UFxa312r/fvROsp0DIFKor6/PGy8gJYDqqOwkfvDOQPIHBf+8BWKiqQ12vbmuuPjlrGFLnwFNVhoH9M7pnRLJ01agUNAvc5Kri282J0GTC3Do0KEbtQxaNRtNzdazq8b5PZeafLHKnl+d/ISjoQRsn0h4I+QVB3UUmSTyLKR8cqkBUlzFHhvonYpAJz+932jTHOh3/HrA+tLdmSnHRO5q0E9N9aa/pzlHv0M/RBhqngjNQVIRNPFz2YiaCOCLX/zim3v37t2VbdLTYRSyNuiL0QDMVpfPCqRHRZfXV4vV843HBBovWTrz+hFsUcbnp7Q9F3pRufK/Czkk6bEBWgGKNSPwPw70Q6/XsOASEQS2wPg7b0R8vCps6zOhMUFjXlUFeiZ53u201l/s6+tbrUzyhLqvT/frEft6vciUyKQCAh4DHV79dWLYM3PCvRsR0MzCg1G3+F2ocHARtXqTs1KMaoC2cr85A/zOyvsdqa6Hfsf76ydsfSa0yJKqJgVIq7yZalGGCeC222478fbbb2/W6tdbjcyod50y+dd26U9XCCxcmvP/OxvOXSTCCJ6azN91hgi1UPFOvQdOik0NPHAQbOsuWAS93i01QeiBpUIxALVPRPrqTlsAFAno0kWf+cxn1it7jikZBkq2rcadS1tFmw4LLzCvU4xX5N6bj8RIBWC7zvwymHuC56pxkLlFKFU18NSxc+LwGO4wkK+lVQy7cPaovyIhbvfb072XEoUyx0P6pEeRgO6NUU9Pzz2yDBhiyEzcc5nGgKDLLSJNrQV/7XQ4rvvEWD78bKpKDMRnPnZ6mVo8XTPKS2Y1QNutR945i7sgneJs64R+x68okx/Z3DTXFpDkPk3wzPeUmQ6MIAHdBLB+/fpNx44d65dh0GRLj7xuTp24srlwEYWWhYs0BYbouPhIGBsQpK2AU5BVDTzyzoCYADov/rntIgQM/JHtd0tt0LL7p8WMxjMtArlUXjZ71ywJGHpCx48fXyPDoMlliz2wqsAx3upaMVij3TU4FcbaglReKt0WVHMm9ASFEFsoWdQA2X5PHz+Hu6DXB/X8CVYG/tTj7oXyN3IRgxkSMEQAt99++5t79ux53emBkyvzrb3GK27NExCk1V/3ngysAramVEC+rkZ6tj7FrAa+ubsXer2GrqXQ613jC2s++qsHNGlV+1wLEecbJ0ZJwLBGGhgYWDs6OhoVkoICgtlsweqmFjHo1i/Bz0SxtuDJmEv8KuhLBnv0Am27OqkGyPb70zlgYI1sPy+2rdbX67BJP6TgyM3RW72pULEPIyRgmADuuOOOEz09PVucnui5Vi+yBYkEMgND7vaFxidtEGsLUnJQokr/YLUiw9IpNfDNPdhaDoGFS6DXu90/BbP90lN0EU0/ECRg6lt87nOf+1Jvb++IkwSQzxajvIB0WzAwd15e268QKA1qPIyTgmQLbo8Yq3yDiAM4rQYo3bdvCvc8fbPblPeLI0ey/W6pwTxneqbpJd2MQOu/00MCpmno+PHj9zlJAIXk8AOr5k0HhhD54EdCCagt+HKkRgwm9GcwouIATqkB2k5tPQbs30C23xxsuwqS/mZtPzWLz2yxVr3vWysJmCYAsgWVrcARpwigkBx+f4tfXDunTrR0LBRTAnNKbjCEnXxPhPSnqpqpAqNHDWgpVmEElPGHtP0a53dCbb8l7qjoNnHcV5X7hVSqVhgpOa6FBCBP7NSpU9eq5wScQCF2pHMCemy/QjhN5wSAg/dwzCsOxby6J6ddCovUgNEONdlwaCwotr8L3DlW1150mhOz+hu/XzWLT2+F3rwT1WDMoBAJQAggFRD8nVMEUIgdyRa8swG7ap8NYQ0QIyrAym1AtoGEUgMPgE/7GbF18+FGZeU3YvvROMyVxWcWWtLE8727XNs5mGZas2bNNU7ZglrKYd1aF4GmcdI5geEwzhYcSrjEyxF9jgByVbZLDbx6Zhxq+1U1NhuydXOBAn9f0Znvr2bx0SptVZ8Gs6W/aI5kK0IK9SIOHDjwPScIQIscrlMm/z1N2DPcp0NYW/CFiF9MJip1vVQnYFQNUOAPfdbfM68Ler3P1eo77ac1i8+OMV4I9B0zSQBKAOvWrfs3p23BfLjZHxXLvDiGpurSY0BbcCpRIZ4NB2wdFHaqgaeOn4PafoF5C0zZuplI5vtrtP3UQztas/hkQSYJwLMRjhw5crsTN6Y1ow6tAqh82CRQBrwVrRYn49q9bDvjAGbUAOX7Q20/C8p8aTntp2bx5Tu0YwWQJJNOAnACuO22257bv3//LrsHotaXQR16qFY/EsjkIIIeFaBWZXISWtTAD8Cn/Zo7OsUUuMxXIdvP6iw+J5SAJXfS39+/2m5bUE+fgLsawtCAIJUPm4riAoJkC/4lVqXpd2UajLnUAOX7Q20/f50YqmmCfvevBybzTny18aYTch9ZAiyTBCwZPWQLHjhwYLus7EedetbWYVVAXygGvd6zIW0qILN2vIxq4BFkhV8FlNSFBNl+Sz3RrHIfkcVnFvn6ApqFZcvHZz/72ZvttgX1BKTIFmxzY21BZOEQsgW3h+Wa3EbUwAvKyo+0/ajMF9r2yyzxjc7iQ6zURUcAhH379n3NzgeVrZlGLpAtSFsBJNDlw34drdV0TkDWWn8xbxU26cflFt65HdDvSLZf+nbQiiw+s7CShCwlADonYKctmKuefi6QLXhlFU66U/mw88AiomQLalEBsgalnjkxDA38Bea2Y22/yth0kU8rs/gQaqooCYDQ09Nzo10Pysg5eStsQeQ5AbIFC50TkC0OkIyJTEXEo0ewtt84uMzXNzxnp0tvW5nFZ3rbY2HCl+UEYHf5ML2++HJvHG4LorsKGa0Z4CQePIwN/FF3HyTI9qN8fzM59qUAW7QjlQ+zyxY0kqdOKgBtC45FsLYgKYF8MHJc1CpQ0O+1s0DryoLuPvfWjiRXfT1xI6dg5ZbEFgIgW3Dv3r0/soXRDOyHKSCItgUHQlHsOYFw/nMCMslX9OpvRXefllgwZxdmVgAWgMqHKUrA8q5CuSoFF8KdDWGsLRivgGYIXjgtmNv+crpVm4odfWOiZzwEu54V3X0+X/E3gnKir6WucTQyUhoEQJCpq1A2PNASgl4PXT6MYgFGyofZBQp+PnhI7u4+X66ZEPXui311I5WZbVuhLXZ4bCUAu8qHGfXF6ZwA0hYkDIPLhz0bqpM2DvDoX4ekL/P1adfIjD21LOopG6wOUtpuIPf29q6zOiBoZj+MVgHvgsuHvR3z5bQFnYwDkO33zMlh3AW9PniZr7s8uW1JGQ5VlXQMQAXZglaXDzOzr6NzApQmDN3HwU8LZl+xnKwP8O192EIf6O4+H/PmL/Ml65l+q9WJIylkVncVMts4g+oHIm3Bs9EKaPmwU3F3VlvQioYhWkC235+HgfFdC7r73OkezDvJqRS6jLCamBwhADu6CpmpW0e2ILqI6GmwLfhjRQVkswWtahiSd/XffwZ6PXR3n/XeUUXZFd4eWXXslgkgC6zuKmTW312rbAOw5cOwtuBUjq5CdlcIonz/08AyX/5kmS9sd5/PVmkLjuo9S8IxAJOwsnwYIn8afU7Ajq5CdvraFNz84RFsdx90ma9/8Z4TtUL79svuSst5Sd4GNecoAVD5MKtsQURAjGzBa2uwNsxg0NquQnbGAcjzh5b56rxEBIFDcqUrKG7w6ZvQTsVRsiFbGe+SIgCC012FCqsA7Es4HbW+q5Ad24DD4yHxYt8YkLFrxVAttszXbVX680Go2KfThVZVWF1qXAoCsLKrECLDi2xBeFchi1WAHTIWmvGXWv2R+JR7QqxyGfP2ZTkfYEdehxSVJKzqKoR6gPCuQvEKMRJCnxOohcY/8uG3Zyegth919xny4AJwtRVx8aUq41WSZDkfYEcDWGlKyVjRVUhPpeB8sKKrUF84bllXIasTgqCn/Vxu4ZmHLfK5xjUq5laaW09ksATt6PwkDQEUQ1ch5DkBsvHGQmHo9dL7CVi1j6UqP1DbL1nmCxd4m6NM/FsSZ0z75+ViCUpVTM6K8mHIgpl3gWMBR5X5b1VXISviAJTv//QJbL4/2va72zecDOQh3rsTSVXpsCM9WSoCoHMC6K5CyNNUV/qi4gYfdlAgVQBBVQFWyEfy/KG23/xOqO23yhUSV7unpu/f7OlIO6LwrAAygO4qhJRyVJzhq/WhZHYZCr3RCjFpQVchdByA8v2hth919wHbfndXXaxOzDbudKr7sjrWypIAyBZ86aWXfnD06FHI9VCJHTSQKDpMraOpljwSp4PYcwL5KgcZJoBhrPKh1R+JT3nOi8WVM9WU2WCezMVCEKiQ9Rhkd3c3bQUul/XBvXLrv4upAG4FaxdhMacOU/3Xe/KwaHnmIej9Hl5wuejpeC/kWq76JhFbgDvu6wlPiWu3fkt4QlMyzzU6/LZZsu903C3xA9ug/PxW1i936ZvbxM5P/TPsemeiQjTFE8JbaX7fWd2Db87cMtKPIYBkmS+s7bfkj/8r++S/b8eOHRs5BqADygN7TflD2gajc47uFs1978CuF3V7Rf858xF21+iQqN35Mvx+m0fPJH/Mwt3YLGIeXIJL9fg50bX7NzJP/hOyTn6pCSBNBUiLS9/YBr3egNdv+pxAwy+sq76+suf3JvcmPhFt64J+p1WvbhU8hkuUABTmPE7ySdbvVzf4rph/6A/Qa54xoQJo7+9TfqxCTXBCdPUeMv79Zs3FqhJFgTX39sg8hF9XxvALTADmsEn5kTYUu+LNbckgFAqjVQFxbtKYy9D4iyctv98lJ3cLT9RAQpS/ToSbsQSw8hVe/UueABQGHZH5QVLwiYJQSJwKxXTbgoE3dyj7/0Hr7zcaTpKA06t/1+7fiprxIZmH7hZl7O5iAsCQwGaSU7J+PwpCUTAKhajLIwbGtfvXlQoJ1e58xb777T0o6s5r36q4mmaLMNAyJcW1ZOcvZB6yo8Ww+hcNAaSwUeYvhw5G9Qqv5vJhda/8RFQG7S1ldemRnRpnv1uI1nnYbdcb22S3/TamlCsTAFAFvCYuJFNICQpGIW3BJAkMFw59eM6eEjV73rL/fkfPiDlDpwpL/6ZZIubBpdRaEXgFg2y/TcUyr4pJAagqQNqAIDoodc5TU9AWrHv5J47d74qjfyow+30iPLcTqzze/KnsY3RdMU2ooiKAlC0oLbtSUGrJTmxA8ORI7mOtNXt/b6ntV/B+gxNiyck9uef/nPnQz5tzbE8x2H6vMQFYCyKAE7J+OQoIIm3BoLdaDGSxBSnwF3hjh/P323swqy3oItuvAdfbj57pCnDiVbmv/kVJAMVgC6IHal9wpi1I6b522H4F7zcaVrYCMwOClXM7oJ+zUCFWyW2/76cUKhOADSRA2VXS2oIUpKJgFQpRt0f0p50Pv5Dv/4o893vmyEXnBNwtrSJSHYBdvwjy/SkutbEY51JREkAKcp8TAAer+l0107YgJf3YbfsVwtITqeQgl1skZrVjr/3HX8hu+20oFtuvZAgglWUltS2ItqtOnhtN5vs7YfsVvF9FAdA5AZ+y+iNtPwr8SW777U4lqhUl3KK4QSpgtfJTL+OXW/nq1uTgHWxfjHlZsaho2v+GtC+DYgFVtbUienIv5Ho1Y0OyT37plWghSFsRSCu6u7tp73WvYDDsx3Zl9V9dzDdQWexvIFVs4QSPRQav/mVIACms47HIsBn3FaPtV5IEkMq+ep3HJMMmkOLcVAo3UllCL4VVAMMubCxW269kCSAlx77PY5NhMV4vZtuvlBVAkpmFxKcFGSUzxgQTgJwqYKTUXhBDKmwpttN+5aYARKoYw24eqwwwijbfv6wIIIUNPF4ZYGwqBdsvE0WfCZgL3d3ddGLwJh63DACozFdnKd5YZQm/NFYBDB5L5UoAsncVYhQNpO/uwwSQZ98m2BZk8OpfngQge/kwhvT4fjF092ECyE8CmwWfE2DoR0nafmVHACls5PHM0DtmSiXfPx9K1gbMRHd3NymBtTyuGRpQsrZfuSoAVQVwQJChBevK5UbLhgBk7yrEkAavl1q+PxPA3yB1VyEGr/5MANaqALYFGflwXynm+zMBXEwCUncVYjiG0XLcIlaW6ctmFcCYMSbKwfbLRNnYgJlgW5CRBurus7Icb7yyjF/6BsG2IKPMFWHZEgCXD2OksL2cbD8mgItJgG3B8saoKPN4UCWPAe4nUMbYVG62HxPATBVA8o9twfJDyXT3YQJgFcDQj43laPsxAWRXASQDuatQ+aCkuvswAYBWBMG2YDm9awYTwEUqgOTgNRwPKPl9/83lbPtlomwzARkMBhMAg8EEwGAwmAAYDAYTAIPBYAJgMBhMAAwGgwmAwWAwATAYDCYABoPBBMBgMJgAGAwGEwCDwWACYDAYTAAMBoMJgMFgMAEwGAwmAAaDwQTAYDCYABgMBhMAg8FgAmAwGEwADAaDCYDBYNiA/xdgAI48f6T4c9ZhAAAAAElFTkSuQmCC;" parent="A_PxswtfMoNjopDG6Hut-52" vertex="1">
          <mxGeometry width="50.909090909090914" height="50.909090909090914" as="geometry" />
        </mxCell>
        <mxCell id="A_PxswtfMoNjopDG6Hut-57" value="Actor" style="shape=umlActor;verticalLabelPosition=bottom;verticalAlign=top;html=1;outlineConnect=0;" parent="1" vertex="1">
          <mxGeometry x="150" y="890" width="30" height="60" as="geometry" />
        </mxCell>
        <mxCell id="A_PxswtfMoNjopDG6Hut-77" value="Client" style="sketch=0;outlineConnect=0;fontColor=#232F3E;gradientColor=none;strokeColor=#232F3E;fillColor=#ffffff;dashed=0;verticalLabelPosition=bottom;verticalAlign=top;align=center;html=1;fontSize=12;fontStyle=0;aspect=fixed;shape=mxgraph.aws4.resourceIcon;resIcon=mxgraph.aws4.client;" parent="1" vertex="1">
          <mxGeometry x="340" y="890" width="60" height="60" as="geometry" />
        </mxCell>
        <mxCell id="A_PxswtfMoNjopDG6Hut-79" value="" style="shape=image;aspect=fixed;image=data:image/png,iVBORw0KGgoAAAANSUhEUgAAAyAAAANtCAYAAABoth/aAAAABGdBTUEAALGPC/xhBQAAACBjSFJNAAB6JgAAgIQAAPoAAACA6AAAdTAAAOpgAAA6mAAAF3CculE8AAAABmJLR0QA/wD/AP+gvaeTAACAAElEQVR42uydeZxlRXm/v3W6e2YYYNhlcUMUBUZAREUEDQiCrK4zCi7RGNkUI+6JmrRR2ZeoMW7RuEZ/kLihomwzwMwgClHRQRBlkX0XZmCW7nve3x8DOEt337NUnVN17vN8PsY49/a995y6p+p9btW3jhMAADTOPqPzZkzTyllDQ70Ne8NDG7vcZsk0K3e2oZNmOtkmJpeZ3EZSPmxyGzqzEUkbyGm6M5tpcjPk3HoyG5I0a403cJoh03qSSbbqn0zaUNLwxJ/IlkpubPUnr/lyetiklSaZk/4iSbm03EnLHn3yg84pz3sac7Kl5rKHneXLzGUPOdlS59yy3LTEmVuSZb1l48qWWt57MBvOlk0fH1py3ujBD/GtAAAYDBynAACgOvuffMFGQ9bbwsxtlinfzMxtbnKbSbaZSZs5aQtz2iyTNjLZRjK30SpZsJEir29r/D9W8tPZZD7R790m/AOr8DcTPd8mfomepAce+4+TPWDKHnCy+016wDl7ILdV/20uuz/L83tWrph2z2UnHXwP30IAAAQEACBpDhs9d+b4zKGtx8eHt8pcvpU5t40zbSnZE03uCU56okxbStpc0vBElbf1qdWLVOvNysdqz7S+euJbPopJ0er/+td/HpfTPTLdI9mdTu5uc3aP5bpLmd3l8uwey3TXiHT7XvrVnaOjoznfcAAABAQAoDHmjJ497ZHpmz6pJ3uKc3qKZNua6cmSnmLSkyV7otZezlRSJKyYUXRHPgq+kZX+m77yUc5mTOOS7pB0i6TbzLnbzOzPTrrdWe/WoaFptzxw++13XPXFo8e4UgAAEBAAgIJ1tLmDTp3/RMvHn2GyZyjTM5zpqZKeImlbSVtJyiauhQtV0cHlY82nW5VzEJ18lJ/98C4fhdrbpNxJd0nuZie70eRukOxGU3aDy/Ibt1g8dss558ztcaEBACAgADBgknHwGRc/Je/1niHLniHZMyT39FX/rWdIj4avaxaj/WtcQz6ikI8+L+hXNscku1lyN8rphjzXjS7TDXlmf1pv6QbXnX/6gQ9zgQIAICAAkDAvO+X8bbIs22nI8tlmbidJsyXtKmkDH7+Gd0o+qobOrcxZDJ37sH5u1aZ8FGnvB0y6xpktNuducJZf0xtxixfotzeJ/AkAAAICAPFw2MkXPGVc2a7O2bNtlWTsuOo/tp63YrRqQdq4fBT/m27JxxTv3Jp8eGvvpZKuk3SdM/1eTtdquPfr+aNz/iQ5owcAAAQEACAQu3/hypHNH3hopyzr7WrmdnVOz5HpOZI2DVqMeitIuyAfUwtIJ+RjwvaOcaZLS+Tsapn7jZl+mWe9yxd+Ys4fkBIAQEAAACpy6Knnb9+z7AVOeoE5PV/SbpJm9K/V4pcPXwVp93a8ilE+yv9Ni7J5n5Mul+xy5TbPTd/il/NH9x2nNwEABAQAYC0OOO1n62f5yAsz2Ystsxc6cy+QtEnHQsjIR1n9SEE+qrZ3MzNdD0m6RC6/KOtlP5t/0muvpbcBAAQEAAaSg068dIuhkbG9c9OLJe2tVbMbw33K0a6HkCsWpOx4lZx8tCebf5S5H9qQnTs8vPkCZkcAAAEBgM5ywGk/W3/IDb/EmdtfZvtL2nnqfoQQcrrysda/Dt52u7HKx9rcb859T859Z+vrevO4RwkAICAAkDZm7rDTLt6tl+lgmfaXtKekaYSQfcqH94I0aflANqvLpkl3SfqfIbNvXXLS3MvpwAAAAQGAJJhz5qL1Humt2Mtkh0l6taQnEUJGPqJub+Rj3XfLdZ3J/isfH/mvRae/+m56NgBAQAAgKg456bJNbGj8Fc7Za03aT4/tUjV5dVeuHCWE3JJ8VBEQttvtmGyulNO5meyzl5z4unn0dgCAgABAa7zyrHkbj4/Z4cpsjpk7QNI0Qsgl5aNkQcp2u2m0d9LyMckfPPoRrlOmz81cufw/zz/9zQ/TCwIAAgIAwdn9C1eObLX0oYOUu7dIdoikaX3Kwsjko88LdlY+lMaOV8x0pSKb9ztnnx1a0fv0/DOOvJeeEQAQEADwzmFnXjw7N3uTeu4tctqyYFnYinxULkjJAbQrH8hmKvKx+r88LOnLWZaffuknj7iFnhIAEBAAqMU+o/NmrL+BXiezd8rpeYSQkY/YZLOL8rGmdyQjmyvl7MvWs08sPPWI2+k9AQABAYBSHH7K+dvk2chRJh0npy0IIcciH1UKUrbbRTaDy8fqrJTsq2NZ/s9XnHjkXfSmAICAAMCUHHTGJbs5yz/opNdKGgpUoCQgH1UK0gEJIXdMNjslH4+2dyQzXQ/JdFpvpTvj8rPmLqN3BQAEBADW4LDT5+1t0gdNOmTNa5oQchX5mPQV2G6Xma7YZDP8TNdtzvRPC0553TckZwIAQEAABptDT5u3jzn3Scle5LUYDVaQEkKOUj4Kn7bu3dslTfmYur1DzHQ5aZGUvWvByXOvoucFAAQEYAA55LR5z5bTP0ua46cYrV+gIB8TPJ3tdqOWj0lfodyBDtJMV26m/+zNHH//FaNvfIieGAAQEIAB4ODTL3qqlJ3ipLmTX7uEkIt/DELIyGa99h7EmS4nd6tc/q4FJx/xPXplAEBAADrKPqPzZszcQO9zzv2jzGYWqrgIIacnH3GFkDskm4FnugZXNv83y7JjLztp7j300gCAgAB0iEPPuPhgM/dpSU8PWqAQQvZYjJYrK1eXj9LvhnykKZvdmem6KzM75rJTj/w+vTUAICAAiXPISZdt4kbGPmVyb4qlQCGEHIt8TN3ezHRFLh+dlE37+vh6+fFkQwAAAQFIlIPPnPfyLNeXTHpSLPJBCDkN+eh7lMnOdJX/G2a6Gm5vp5tt3I5YdPqRl9OLAwACApAIc85ctN7yfOW/mewoQsgtyUfJgpTtdtOQzS7OdEUqmyud6UMLT3v9v3HfEABAQAAi5+AzLntmpvGzZdqVEHIa8rHm09nxKlb5GEjZbH+m64cr3NCbrzpl7oP07gCAgABEyKFnXPI6Kf+STBuWLn2RjwIvSQiZma4Bko/Cpy34TNd1NqRXXn7SkdfSywPA2mScAoCWMHOHnjFvVMq/XU4+KpUJgYvRvrV2uWK06vNTCSFXeb5VfLWGZbNr8lH7uCOUD1/H3efafpbr6Rd7vu/br6KzB4C1YQYEoAUO+vRPpg+NzfyKZEcSQvZUkBJCTrO9memKvL1rz3TlcvrHRacceSo9PwAgIAAtsf/JF2w0Y2TkXMleTAg5VEFKCJl7uyCboeSjUnub+9wTbxo6/pxz5vYYBQAAAQFokENOumwTN633U0kvIITcjHz4Kki7lwNIdKark7I5KDNddr5zy1+78NS3LWE0AEBAAKABXnXawieMDY1dINMuhJCRj7bbu4szXZO+AjNdMcnmL2x8+KDLz5p7P6MCwOBCCB2gCfn49ws3W5mNzZNpF0LIoYrREg8TQvZy3MnMdFU50lRkMy35kKQXaHh8/vPff/ZWjAwACAgABGLOmYvWW7li5AdO2qk7SzPkr0AhhJykbFrVap+ZroZlMyr5eKy9dx7W2KIXvO/rT2OEAEBAAMAz+4zOG16usXOcbK9qBUqN6iKVpRlVnt9KCFn+jyN62WSmy1PztSQfVvJIGpXNpw25oXkveu+3nspIAYCAAIBHNtgg+4yZHcLSjDIFSozyMaghZPlrb2a6ara3Ard3K5mup1qmi/b6wLe3YbQAQEAAwAOHnHnJ38rZMfGGkGOUj0C/VEcfQlb142amy3N7K8x3MGrZbHWm6+mmfB6ZEIDBgl2wAAJw6Fnz91SueZKms92uR/kgByC22w0pHw3NdE3yB53YbnfCj1yora+ePr7yb+b/21v/wggC0H2YAQHwzIFnLtpUprObkY+yT2hCPsp9xu7IhwghN9je6clHlXZL/8aSJdp6lxXD07930PE/mc4oAoCAAEBJRvKVn5XpSSzNCFWMlni40RByIjNdXovRyGSzykfrzHa7SjPTteZf7POX6fd/XaOj1CYACAgAFOXQ0y95g5xeTwg5pHwQQubGkp5ks1MzXZ25seTcPZc+42RGE4BuQwYEwBMHnzpvq2zI/V6yjbkTcpECJdYQ8iDueGXIZjSyGWOmq3nZNOfe+vPT3vBVRhaAbsIMCICvi2lIpzcuHwVfP/2lGR2Tj3JnvQHZlN/27qp8qLszXZU/SKiMj+Wff+H7vr4HIwtAN2EGBMADh5w5/8XOdInMXKPyUaVA6UgI2aoUNa3KR832ZqYrTdlkpqtOe9/per3nXX7W397GKAPQLZgBAajJPqPzhp3pc0nIR/nKoE9xUu7lmgshd3C73Sqtx0xXi+1d+qw3IJvy295h5UOStrKhof+3z+i8YUYaAAQEAFZj/Q2zN8tsdthitEpdQAi52HsRQg4nH6G32y359Ehksx35CL3dbn1DnuQl91q+9LZRRhqAbsESLIAazBldPG3ZhndfK9PTio/JLM3wXKAQQkY2k5EPH+1tHZTNPh8lN9nLrzjjTRcw6gB0A2ZAAGrwyAb3HF1JPsqVCYGL0b61dvkCpavyQQg5KfmofdwpzHRVfH5iM12Zk77+ovd9/QmMOgAICMBAs/sXrhxxsvdXKm1YmtGyfKjah7QKB8VMl7+vEDNdDcx0NS8fBeextsrN/ScjDwACAjDQbLNk6eslPZkQsocCpXH5IITspb29yEe8M11hZbMd+aj8QeKY6Tpsz/d980hGHwAEBGBgMdkJhJDDFyg+aitCyOHb24chxzbTlW6my7NsRjTTlZt9ds8TvvZERiCAtGFrO4AKHHravH1M2i0m+Wh5u92bZLrOOV2by/3RlN/jnC11Zg/nLltp5jYYkjaS2axc2tY5PUvSs2TaQdK0gmeiUhXMdrsRyWbj8jGoM12e27vK8wPJppM2Npd9RtKrGYkAEBCAgcKkt4UpRqvUBa0szbjDST+Vs4ucm3bRTz6w751VzuNho+fOXD59+t6Z5ftJeplWkzpCyGGLxSRmuqoeKTNdgdu7HflYzUJe9YL3feOQX5z+ph8zGgGkCdvwApRk/5Mv2Gj6yMjtMpvpXz6iDiGvcOYuMNnXl68Y+d780X3HfZ/bA0782Q6Z5a/vOfcWJz21rnwQQma73bbkg+12A8nHo+TSn2ZuOP7s+aNvXc6oBJAezIAAlGTG8PAR1lc+KpUJgYvRvrX2ZJ9pqUxfsTw/+acffvkdIc/t+f904LWSRkdHR/914fQ9XuPkPi7Ts+rJh78W8iub7chH5Q8S+Y5XtY6bma7GZNMHJslJT1/20PD7JX2cUQkgPZgBASjJIWfMu1SmFwcrUOJZmrHCSWfk0/Izfvael9/fxrmec/bZQ3+5fsMjnNyJkp4cZw4g1hCyx4KUG0tG3t4DO9O1LNf4s3555t/dwsgEgIAAdJbD/+3CLXvjQ7dJGgoiH4XH+bBLM0x2aZZnx573T/tfE8N5P2z03JkrRoY/IOkf9XhoPQb56Ixslno5i1I+BlU2Y723S0Oy6ey/rjjjb/+O0QkAAQHoLIeePu8Ykz7XpnwE/nV0mVx+/E8/cMBX5JzFdv4P/ORPnyvZt016ZvLyUVAkkt3xqoEcQCvyMckfMNPVgnysoieX7XLFGW+8RgCQDNwHBKBcyfLqDsvHHzTkXvjTDx745RjlQ5J+9uGX/182Zs93Tud0Xz7USfkoaBORyUf5w2G73ZCyuQZDsvxERieAtGAGBKAgB5z2s/VH3PT7JZtWvxhtokApvjTDZOdNdzNf98MP7r0kmfb45Hnvl3TKY/0YO16lIR/seBWpfCQ+05WZ7XH5WX/7C0YqgDRgBgSgINOykb9JRz761tqr/8t37t1k01ekJB+SdP6HDzrNpDdLGo8/hBybfJT7jN2RD0W641X35EMe2rpMe5vLPsQoBYCAAHQOM+3v6ZUakI9iBYpJX3rh8kVvuOro542l2CYXfPigb8rZHElj8W63295MV6W/6fR2u4nMdHmVj8hks8pHKyCbJnvFHu/95k6MVAAICEC3BETZft4LlBblQ86ds+fyhceMjo7mKbfL+f908Pdl7m3lS7AaIeRo5KNvrd2SfAzqdrsK3N6Ds92uSsjH4/WM5R9kpAJIAzIgAAV45VnzNh7rufsky7zJR5vb7ZouWb5i+OXzR/ftzF2EX/bJn3xQppPDyEfN9ma7XY/yUU3k2W53IGRzTMPZdlec+sZbGbUA4oYZEIAio1rP9mhaPsLdCdndNKQVr+qSfEjSBR8++BRJX4tOPgq+fpwhZNX6Dia/3W408iG/8qFOyockjag3/nZGLAAEBKArl8qLqhejVeqCYEszxnO5N/z4Hw99oIut5KYPvUPS72u4hH/5IIRc63yw3W749k5ku91if527o3Y/6gsjjFkACAhAB7A9qstHRCFk5/75/A/tt6irrXT++w98OMuzIyQtn6piI4QcXj6s4nG0Kx+hZ7rETFf49t5qaIP1XsmYBYCAACSPk9utA0sz/m/Dp91/atfb6mf//PLfSDqpefmo0m6EkIu9V1e22w2U6aolHx2c6TI7mlELAAEBSJqDT523lcmeUH5gjWpphil37zxn7tzeILTZ8CydIun66hbHdrtVP4b3X8PZbreEbDYvH5HOdO27x/HffBKjFwACApDwVeJ2Tj+E7L7203/a//JBabLz3nXwCie9d4oCpXLBRAh58n+IYrtddXemq13ZDDzTVVk2J/zLLB/OX8fgBYCAACRM/uxa8tF+CHksG3ajg9Zq53/k4HMl+zkh5PIiEYd8qNqFYxUame1263+F2pDNKWe68iMZuwAQEIBkcabtU16aYdK3f/K+/W4eyLaTO7FcLUsIucpRpLndbqWz3oBsym97e5GPSGVz6mv/ubu/9792YAQDQEAAUi1it6007McRQjbr5acNatud/+GDfmTSbxuRD0LItQrt2Ha8akc+Qs901TfklGRzyLJXMIIBICAASWLKty1YJrQiH33eY975Hz7wd4Nrj84k97lY5IMQchry0d2ZrnqZjORmuswOYQQDQEAAUq1in9K+fEw1xk7+Hs7sW4PeekO97P9JWuGvGK3SboSQax9DteZrTTZ9HHcSM11Vj7QR2XQv2v29/705YxgAAgKQFAedeOkWktYvPGrHtTRj2ZjL/nfQ2/Bnoy+/X6af+pMPQsg+5SNcCLk9+Qh/b5fm5cNHe7cw0zWU9VYeyEgGgIAAJIUb6j214rBcvNwItjTDzr/wQy97kFaULHPn1G6nxmTTo3zIl3zEu91u6ecz09WKfNQ+7oozXZm0Pz0gAAICkNYFMqRtCw/LkYWQTW4eLbiKYZddXL+iIYQcRj5U7UNWubdLVDNdnmWTma4J29ukF9MDAiAgAElh+aoAepoh5Hw+LbiKn3345XdIuq56QUoIOZx8tLvdbmdks8rzO7DdbgHZfPrz3/OVJ9MLAiAgAMngnHtyoksz7t9z+c9/Swuu1pbSfC/yQQjZT2nfmR2vjHu7RNPeEz/ZmWMWBAABAUgHM2025UAd69IMc4tHR0dzWnANfksIubp8JBpCDt7eyc501bq3S1ozXWbuRXR/AAgIQDo4bdK8fHgoUDK7jsZbkzzXH8oVo1WkkRBy7WOo5hKtyEdXZ7q83kk+AtnMpOfQAwIgIADJYNLGycnHqudfT+utdU6G9AdCyLVr3MryEfd2u+3JJjNdYeXj0X/eVaOj1DsACAhAMmxctZJsc2lGZnYzTbcmLxn/5S2S8tKtRwjZo3x4qLSDyEd793ap9DeRy2at4w4w02XSBnvc/9Sn0wsCICAASbBqBiS9pRlmbgmttyaPZmKW9j+ThJDDyUdDIeRyZ70B2ZS/9vYmHxHe2yXgTFcvy3alFwRAQACSwMk2qSIfbS/NMOUIyMQsLSUfhJATko8qQsBMVzjZDNZopeXj0b58e7o/AAQEIHrmjJ49TdJ6bchH5YH68Zug62FacEIe8ikfhJBjkg+2263yHRycmS5tR/cHgIAARM+KjTfdJKx8TPFKNZdmDA1nXNsTM1yjbgwim4SQS7uEf/nw/DtASrKZnnxUaTeTnD2N7g8AAQGInpUrso3Dyke4pRm98XxDWnBCNiCEXOHhRkPIoXe88nRvF6/XdmSyWeWjxT7TZSKEDoCAAMTP8LBmFB0Qo1uaMeQ2oAUnPE0bNi8ffWvtluRjsELI1f2oiZmuxO/tksRMl3sSW/ECICAA0ZOPu5FUQ8gut41pwTV5NNMzs3n5IITs7ThqywczXUHaO4mZLht+wT1P24SeEAABAYj74sh6I8GKpoDyIZnMOQKXa/Gg1ttOkqvTdoSQi8oH2+36ls1OzXSpnZmunsu3oCcEQEAAosZsVWDZX4HS3LpwJ3sWLbgmucue5bWSH4gQcsmns91usPbu1EyXVWhkHzNdQ/nm9IQACAhA5AYylYBEvjTDOQRk3d7umdXlY1BDyKF3vIpxu10x0xWjbNaVD0lDLkNAABAQgLjJnRvxIx9TDKChlmaYdppz5qL1aMU1ztPu1U4zIeRi79WV7XbL/g0zXW3JZhn5WNUmxuYcAAgIQOQXx4QCkszSjBlLVjy4B634+Ml2MtuHELJf+UgrhFyxvb1e21Xch5muSu09AU7ZdDpDAAQEIO6aVWsvwUorhGw2tC+tuIr9P/6TZ0u2ZVj56Ftr1xIWQshKYrvddmUz8ExXZdlsWD4m/TtDQAAQEIDIBSTPR+qNw+0uzTBnB9CKj52r/GXh5YMQcuHisq0QcgPy0e69XRS4vdOe6XKu6L2dAAABAWjr4shWnwFJb2mGk/bY/6QL2Y531Yk/olbrEUKe5OlphZD9yab8tneV53Nvl/KXlWkanSEAAgIQec3qXLUCJZoQshtS/oZBb8cDRs/dQc49r0xBGp98EEIufUCJznRZpXbr0L1dAs50GTUPAAICkIiGJL4u3N4kMzfILdhzenOtgtRrMVrFfQghF/vEXdlut95sCTNdPvtmAEBAAFrRDz9jWGshZNP2Lz/pp4cNavsdcNrP1pfT2wkh1y9Iax13CtvtepfNiGa6qh5pCjNdqnhtAwACAhAjeekxL3QIuZoxmdyHB7YNl688TqbNi5w4QshFCtIOb7frfVll8/Lho72Tm+mqf5kAAAICEClpL814wQEn/eylg9Zke5559nqW6wT/xWjfWrtWCRTvdrtBLpyaxWiVt2OmK0zbqSMzXQCAgAAgH14KFGd2+pyzzx4apGZbf8l6H5S0tX/5iHOmK7x8pB9Cbl02melqXzYBAAEB6KqdRLg0Y7e/XD/rmEFplZd+4sdPNen9Nev4eGWzc/JR82JJZcerKs9npstfewMAAgKQsF/UGKnbW5rhnD6+3ycv3HIQms318s9KmhmkaGpbPgYwhGwe2o57u8TS3mnNdAEAAgKQhrPEuzRjkyE3/u3R0dFOX/f7/esPj5N0iN8ChRBytPJRfxKhW7LJTBfyAYCAAHRWM/wWKFWeX21pxr6Xj7zw/V1tlQNGf/RsmTu9Cfmo3H6R5wBqHTfb7bYvm1WOdKBnugAAAQEYRPlo+E7IJn38ZSf+5G+61ioHjv50056z/5G0XhMFSrszXaGX4nQ4hMxMlwf5iFU2kQ8ABAQA+VCkIeQRZ+6HL/vkj5/TlVbZ88yz1xt3Yz+Q9Cy/8kEIOUylF2MOgJmueGTT071dAAABAUA+QhQolYfcWU7Zj/Y/+YKnpN4qc84+e2jmkvW+JWnvqOWDEHKhz8R2u02296DOdAEAAgLQSfko93ItLc14YtYbv2S/E3/8zGTlY/TsafddM/O/Jb2qRl3XLdlMJYRsFZ7Idrue2ztYo9WQD0LnAAgIAKjjSzO2HTJ36f4n/WS31FrlgNN+tv79br0fOmdzgxRNqcpmlY/GdruBZbPel4aZLuQDAAEBgOoFSpRLM9yWWe7mHfiJn74ilXP/0o//5Om9R1ZeJulAvwVKFflo794udQpSQshNyQczXaWfGEw+cgYuAAQEIAnN8FugVHl+M0szNsqdfe9lJ573qTmjZ0+LuUX2/fiPDs/y3i8l7daEfFRuP0LIDctH2RAyM13h5CP0TJe/ZZUAgIAAREbPr3zEvzTDKde7/jKywaX7ffK8XWJrjb1P+tEm+33sR5/Pcvu+SZv4lY++tXZL8kEIOZ7tdtOc6VIt+VAa93ZBPgAQEIAuMxBLM0x7ZGZXvewTP/7U4af8YMMYzvtLP/ajOdPH7PeSHS3J+ZcPQsjejqO2fLDdbpD2ZqYLACJimFMAUFc+yo1/iSzNGJbcu5aPjcx92Sd+fJqbPvyF899/4MMNn3C33yfOPUS5+6icvaDoERFCrtTexf6a7XYLHFNHZrrU3ZkuAEBAADogH90NIZu0leTOsBW9D+3/yZ98KrfeVy/+yGG3hTzXe5559nrrL13/VfaJH71X5p77+HwHIeRatRUh5PDt3amZLqvQyMnPdAEAAgKQhpoELkZLPBw2hLyFM31iSEMfe9knfnKR8vwb+fDK8y76p1ff5+MsHvTpn0xf8aD2csqP1FLNMeWz1vhYhJBrtR8h5KZks95RpDnTVemsNyCbAICAAKSsGCzNWJ0hmR0g5w5wven5/h//8W9k7iJzusKZXTeysfvDee86eEWfE+pe/rGfPrU3NP5Mye1m5l668i/53k6aWf00E0Iu9l6EkMPJx6DOdJX9g/ZmunJ24QVAQAA6LR9dXprxVzJJu8nZbk6SnDT2oPX2//iPb5N0j+SWmNkSp3yl5DZa9R/bQB//8bbjmdaTuUkKN0LIQdqbEHIJ2WxePpjp8tWVem5vAEBAABqlp0n2W2JpxhR/OSTpKav+k8s9ZiZW9JgIIYdpb0LI8chm4JmuyrLZsHxYiONAPgBSgW14AXwO7CzNqPE5uxBCrnI+CCE3LR/t3ttFgdu7wzNd3pdVAgACAtAxN2FphgYwhFzvF1tCyD5lU37b24t8DOq9XdqRDwBAQAC6Zxhtygch5DTlgxCymOlKWTZjnOmqIpsAgIAAIB/lHiaETAg5EflgpqtL8lHprEcomwCAgACkLh/yJR/xhpBLP58Qsj/5IITspwxOYaar6pGmMNOlENc28gGAgAAMqnwMQAh5sJZmEEKOST5aDSFHLJvJzXTV/00mvGwCAAICkKKbsDQjNvkIXaAQQq70asx0eWxAZrqQDwAEBAD5qFmg+Bg7CSEHKFC81FSEkJnp8tneMc50tSebLLsCQEAAkI8K8kEIuVId35J8MNPVWdms8nxmuhpq7yaybACAgAAMunywNMPLcRNCTkE2E53p6qRsDsBMFwAgIACDIx8lHiaETAi5K/KRQgi5lWWVzHS11t4AgIAAdMJIKlRVhJDDykflDxK5bNY67oGc6YpMNqt8NGa6kA8ABARgsF2DEHKpMiGwfEzxSq2GkCO8t8vAhpDT3PGq3rUdq2wiHwCAgABUlA9CyKWPmxCy5/aW/+OIXjaZ6YpHNj0tq/R6bQMAAgIwyPJBCFmEkFOWTaty1huQTQWTTWa6NFAzXQCAgAAk5CKEkCvJByHkhOSjStGW/r1dmOmKSTbDznQBAAIC0GH5KPEwIWQvx00IOQLZTFA+mOmKST6meCVyHwAICADy0W8MZGkGIeR67U0IuSn5YKar9BOTnekCAAQEICEFiUs+Ah1HbfkghOyzvWsdNyHk9mWzykfrzEyXkA8AQEAAmijZm5MPlmZ4KVC8yEeEM11ipqt1+agim52a6TIvXyK/M105gxoAAgLQEQVhaYYIIYeUTVVu73DywUxXkPZmpquEbMp/ewMAAgKQnp+wNKPo6xNCjqW9memKRzaZ6WpVNgEAAQHotHwM/NKMGOUj9ExXrLJZ9nMOSAiZma6G2tv8yibyAYCAAAyOfJR4mKUZAxpC7uC9XerX8fHKZuPy0aBsRiMffbuuWjaJfAAgIAAdlw+WZgxODoCZrjLtnaR8dHKmq+wfsN0uACAgAAMsHxU/JEszAhSjJR5mpouZrkTkg5kuAEBAABK2EULIvuSjb61dqfCrLx/xznSFlU0Fbu8BnOmqLJsNy4cF/A4iHwAICACUHTcJIRNC9i2bCtzezHTJ91eoSdlMZabL+71dkA8ABAQA+RBLM7zV8Y3LByHkmOSjb63twSY7dG+XKs9npgsAEBCAAZMPlmakKR+EkNWFma5qq4c6tKwyqpkuz7JZ9drmRugACAhAevJR4mGWZhBCTkQ+mOnqknzUvFhSkc0qz2dyBAABAeiCjRBC9lWgEEL21HytyaaP405ipqvqkXZGNhOd6QIABAQA+fBQu1YqUFiaUbWGZqYrrGwmM9NVor2Tk4/6cZlEZBMAEBAA5GPAQ8gxLs0ghDw4M13hZLPWcTPThXwAICAAyIfvQY4QclMFSozyQQi5dnt7K0YjXFYZfKarPdmMbaYLABAQgAjpVRirCSHHIx+EkDsrm1Wez0xXQ+2dxkwXACAgAEnA0oywxSIh5BRksysh5A7NdJU76w3IpoLJpq+ZLgBAQAAGSj4IIRNCjlY+BiaEXHZZZeQzXQO0rBL5AEBAAJAPQsiEkIO0nQZ0pisy2azy0ZjpCiyb9b403IcQAAEBGGD5IIRcu0AhhJykbFpVQe3sTFesshmjfBA6B0BAAAaAXpLyUVOzCCF7bm/5P47oZZOZrnhk09OySq/XdrmXi2mmCwAQEIAkYGlGAPkghFzoMxFCbrK9q0sXM13IBwACAgBlKsxuyQch5ITko0p1RQg5nGyqcnuHkw9mupAPAAQEYKDko/YQSAi5MfkghJyGfDDTFZN8TPFKKcx0AQACAtBF+SCEPDghZNUqRkUIucH29uHVzHSFb+9q5wP5AEiJYU4BwCR2nrs7zelCSZIrN6Q56dE9H6sPg43sePX4h52afO0n5VM/2+vR5hWL0YlbpYR8FDuOvE7Jk/vdGLSGfLxQ0gaTFqRei9FyL9fcTFcHl1XWr+PjlU3kAwABAegiP/vwy+dJmseZgK6z94f+39WSdu5GDoCZruJvVPZvEp/pclzrALHAEiwAAJBP+Wj33i5h5MPqSBfb7bYvmwCAgAAAQMry0bfWLm8KXuQj3u12Sz8/gUxX5Q/S2kwX90IHQEAAACBWH6n0hCRCyC1tt9tIpqth+ejiTBcAICAAADBg8hE0hJzKvV2ikQ/5lY+qz29INgEAAQEAAOSjwN91Zbvdsn+Q/na71W4/hHwAICAAADDQdsJ2u+Hlg+12kQ8ABAQAAAbFL2oUcolvt1v1uFPYbte7bEY00wUACAgAAHRXPjq93a51eLvdCu2dzEwXsx8ACAgAAHTUWToYQq6941WV57PdbmuyCQAICAAAxKcZfuUj4hBys7mPGLfb9Syb3uSD3AcAAgIAAMiHN/lgu93Sx53KjldVno98ACAgAACAfLQqHw2EkLu341Wi2+02JJsAgIAAAEDy8lHu5WIKIScnH/UnEbolm8gHAAICAADdlI/Kf5NMCJntdmOWD2vpmw0ACAgAALSlJR0MIce93W6V6pntdvs+NedaBkBAAAAgJs3wJx9Vn892u+v+K9vt+m5AAEBAAAAgWiXpYAi5le12yylfYPkI0N5e5CPCmS4AQEAAACBV+YgjhNzadrtW4YmpbLdbxX6SmOkCAAQEAAAikI9yhWWUIWS22w0sm/W+NHHMdAEAAgIAAJHIR+gcQIzb7SrSHa9ilI/QM11NyCYAICAAABCLmgQuRks83Oh2u6F3vKq23a55OO70ZroakE0AQEAAAKBBxSCEXPVoKspHldPcxHa7ac50CfkASIZhTkE3OfyUBRuODy/fWuNDs1zW29jMNpJls+Rslpmb8df2tw2LvmZe9dGqe6/nU7+I1y3d83qvaGUPKvdz1gv9lYV5j6Ivl4d4j3XeywKezdX+OuypWvNf8oqvkZd/V5NtRQh5gr+2Cr0A2+3W/wrVbe8W5MPuPuEZMvf3VB+TnSC3VObGHv0fS5TZUuXZfcp0v7L8Pi23e92Tz7qfE4WAQMTMOfvsoSV/2uLJyuzpLrPtJD3dmbaTtI2krSRtPa4VM9VzkuspN0lykrMCnfPkj7mmb0bmKjxcdcByDS/NcEXO4lpPDLY0w012aB7b25WoQAghF339dc5s31NNCDlMe7Pdbjyy2dLMR+6eKrkPUqFMwerjrD1ak5iknpNGnOzO9z4s6SZJN8npZsn+JLnfSuNXuy0/dRcnEAGBBjnwrEu3Hhrr7WqyXZyzZ0t69sM3a6dsKJ/ev29uecDiTsg1itEq7cbSjDDFqAghN9jeNevilmSz7Ofswna7Vc4H2+3ClKwvabak2Xrsh9NHS1W78333SHa15H4us4WaPrzIbXrKg5wyBAQ8MGf07GmPbLjZ88zcHpL2kGlPjY8/RU5yKQ5YVZ7PnZAbKlAG9U7IhJCLy2bz8tF+CDnGmS5Fut1uvWuP7Xah5PdnC0n7SbafnKSV47nd+d7fSXaxnPuJHlp5qdv+Mys4TwgIFGB0dDT75QYv2c3J7W3SXo+YHahcs3wUvOwPH0uBwtKMeGSTEHI8shlpCDnKmS7z8iVipgs6RiZpF8ntItO7teG0pXbney6Q6YeaPvI9ZkcQEFiL/U++YKMZI8MvV26H/1I6SKZNbMroHEszSoxAkclHlXbjTsjhZFOV2zucfLQ309XuskqFbW9mugq2dRX3YbtdiJINJPcqOb1KK8c/b3e+9wI5O0e9Wf/jthl9hNODgAwkB5z2sycMZ9PmOLNXSvoby22EAcv3gBWjfHAn5CpfGma6fLa3/La3F/mId6YrrGwqcHsP4EyXt9EBOsZ0SYfKdKiyhz5td77na1L2b26r02/k1CAgnWfVTMfQK2RujkkHyh6VDkLI7Q5YhJADywch5NJPJITsWTYVuL2Z6ZLvr1BqO15BAjz+3dhI0ruk/J1253t+JGWfcludfjHnBwHp2Pfd3KGnz/8bc3aU5F5lphkpDljtyUcDAxZLM0rIZvPyQQi5Uh0fr2w2Lh8NymY0fXnfrstD/9+VZZUwYPKxOpmkw2X54XbHCZfL6SRtedaPnOObhIAkzGGnz9s8l/5WZ1xylDk9c82N+FmaEc+ARQg5HtlkpqtMeycpH52c6Sr7B+nPdFmldmPHK4hGPCa6KPaU6Ye684Qr7fb8I26bT/2Mc4eAJMXhZ857Rm7u+Fz6e5nNLFO0dXnAIoQck2wSQi5r38x0tSibVZ7BTFf7sol8QMzyMfl35nly2U/t9hMu1FD+Xrflp67mPCIgUXPoGRfvZ3n2nl5uB626nScDVq06n6UZzHR5bW9CyP4G7Qblo9F7uzQsHxbwO9i2fFjd7yDyAYHEo+h3xtn+yt1Vdsc//KdWrvwn99TPPcB5DU/GKSjOYafP2/uQ0+fNM3MXytnBWnOtVfsDFkszWpSPwVua4cOQCSFHKptdDiFbd5dVJjPTVaK9kQ+o/AOKWZ/vzBqPD0vuGE2b/nu74x/ezLkNDzMgBcVD0r/m0r5hBiyWZlQYjpKRD5ZmNCkfgzrT5bm9qzw/Fdms8nw2EGlNNmsbOAymfPT9vkz6+JaS+5rd8a7XanzoWPfks27jXCMgjXPwmfOel0mnWa59CCG3KB8szUhTPpjpEiHklGWTma542hv5gKL9l9X7+8ef4w7TcP4Su/Ndx7itPv0dzjsC0ggHnTLvScMj7qNm+nuZZaUvDELIdWuedgYsQsjty2aVZzDT1b5sdk4+al4szHR5bm+AIrVJXflY5/GNZO7bdvu7D9bwyuPcE/5jKW2AgAThsC9cOdOWLv2IpBPMbAYh5CLHRAi50qsx0+Wx4iCE3Kp8RB9CjlE2jQ1EgrU3DJR4hJOP1V/7TRof3t1ufcer3JM++wfaww+E0B+TjzPmHZovXbpY0j9KVeSDEHIc8lGxc2NpRoBitMTDzHQRQu6KfNT/TaZbsol8QCj5KB80L/64rfNl3EnZ0JV2+7tfSZsgIF54xRmXPPnQM+Z/1+TOddK2LM3wPGA1Lh+EkL20d5XnE0Ku+HaEkMO0nQZ0pisy2azy0ZAPKNRvhZz1mFBONpTy/7Xb3/Vhs6l2QQUEpA+HnDF/Tk/2G0mvGuwBi6UZjcx0FXw+IeRY2puZrnjam+12i8tHmssqkQ9Y89tgfa7tOrMek3zHrNB3NpP0Cd3xzv8yO2qEtqrOQGZADj513lbZkPuCpMObHbBYmhHPgMXSDK/t3Tn5qHmxMNPlub3l/ziil01mumBQ5WOqh5qY9SjyGd3f6o4Z29g9H3iN2+LUJbRbeQZuBuTQ0y95Qzbkfr+OfLA0Iyn5qH3czHQ11t5ehyRCyIHbu17/kfRMV7mz3oBsKphsst0uxCkescvH2p/RXqaxZRfaLSdsSvuVZ2BmQOacuWi9ZbbyZMne5W3AYmlG3ZqnnQGLOyEnJZvMdCUum6nMdA3UBiJstwuxyUeb4lHrPV6gofGL7faj9nfbfPFe2rI4AzEDcshZl+y43FZeIcmDfNS8uFia0fKAxdKM1GSz1nETQm5fNqt8NO7tElg26x0F2+1Cd+TDS55kV2napXb3cVvRngjI4xx65vy3utyuMmnnNAYsQsjxFCjMdMXT3sx0FZePxJdVVi1GU5DNgZjpakI2oRviEW3QvMTjjz9nR63MLrBb37EZbVuMzi7B2md03vCGG+oTZvqgn2K0mQGriyHkgiNQZPJR85ccZro8t7fCfAejls3BmumyOsedygYiXq/tKu7TxEwXO15B3X4qlqB5yQvM6dmy7Dy7+7iXctf0/nRyBuRV/37hZhtsmP3U5D5YcfxpbcDycRHH9msZSzMilQ9CyIU+EyHkJtu7unQx09ViX97kTBckLh6pBc37PL720509X2PuB3b98dNp7wETkIPPvGTnlSuGr5Rsv34jOCHkNAas2r+WMdPVWHunJx9V6ndCyOFkU5XbO1xfzkxXkPZGPgZQPqaq6Ru7o7k/ubFJ3+ylmpl/nZsVDpCAHHLG/H2HzC5bdUdzX509A1bbA1at4450aYaP4yaE7EM+mOmq8qVhpstne8tve3vpy9luFxqUjzSC5qWuGUlzdcc7/pW2HwABOeyMi1/jpJ+YtJH3AYsQcpoDFiHk9uVj4EPIMcpHF0LIzHT5+o2G7XYhrHh0Kmg+wUeyqQaRD9vtx76R70GHBeSwM+a9z5SdI2lGkAGrSk9OCLnlAYuZrnCyqbDtTQi5hGw2Lx/th5DZbtdrezfel2MggyMfU9X0nsVgwi9bE0uupvx7J3NfsluPfSHfhw4KyCFnXPJBkztNmmqtHUszKl1byQ5YLM0odsSEkCudxYGRzcAzXZVls+G+fIA3EPFxqMjHIIpHx4Pm5T7jDDn3PbvpqK35bnRIQA45Y94nnOzkNAesGOWDEHLpJxJC9tzeqtze4eSjvZmudpdVKnB7d3imq8sbiFR5BvIxQPIxVU3fqaB5mc+4laYNf8tszhDfkdQFxMwdeua8f3NyH+7MgOW1GI11wIpRPrgTcpWjSHOmq9JZb0A25be9vchHvDNdYWWzHfmoVdQ12Zc3OdMF3ZKPbgbNy5yDfXXH5qN8TxIXkEPOuOTfZe4f2peP9gYsQsilm6812YxPPgY1hFz2Dwghh5NNBW5vZrrk+yvEjldQpbDvetC8zDGY/sluO3Z/vjOJCsihZ15yknM6zv8vLoSQoxmwCCGXkM3m5YMQcqU6Pl7ZbFw+mOny0t5Vns+OV+BdPqaqyQciaF78GEyZTF+1W9+xGd+dxATk0DPm/6PMPuR/wCKEHM+ARQg5HtkkhFymvZOUD2a61IWZrmo5eXa8gjriQdC88ONrvvYT5exLfIcSEpBDz7jkHZJODDNglR1YCSGHG7AqNBoh5ADFaImHCSEz05WIfDDThXyAD/mYqqYf2KD5xI/bhBf/q+zWo9+MgCTAYWfMO1SyTzFg+Ryw6h0FSzN8yqb8trcX+SCEzEyXz18L2G63Vfmwut9B5AOK9EUDHjRfux+yqT6j+7TdcswTEZCIOfjMec8zue9IGip6bbA0o6UBi6UZhJALt7cCt3eMM12eZZOZrsb78oHabrdEeyMfgyAeU1xcBM0L1hhrPLCRnPscAhIph512ydMycz+StH5nBiyvxWhkA1aVZ7A0o33ZbFw+BnWmy3N7V3l+KrJZ5fnMdLUmm7UNHCKXj6keImjed8nVpMdgh9ktR78aAYmMV541b2PL7CeStix6gRBCblE+WJrhpwxmaUZw2eyEfHQ2hMxMVzj5iHFZJcQtHgTN/Sy5mgKnf7f7jp+FgETC6KhlPcu+KWmHMgNWOPkghBzNgMXSjKRkk5muiGSzc/JR82Jhpstze0O35GOqmp6gef9Zj8KfcWstW/kvCEgkXLnh/H82s0OaHrDYH77JAYsQsrfBIFL5qH3czHQ11t5eS5bOyKaxgUiw9oZk5YOguYoHzQsfw7vslqN2RkBaZtWOV+6jbQxY7cjHoC7NqNApsjQjQDFa4uFOzXS1J5vMdEUgH0F+/+jCBiLIx2CLB0Fzz0Hzoo8PS+6zZnIISEscdOpFTze5b/T/XCzN8DpgNS4fLM3w0t5Vnk8IuaH2JoQc7HchNhDxL5tVPhry0TH5mOohgubVg+YF38Ppxbr17QMVSI9GQPYZnTc8NDT0TUkbpzpg+bjgWZqRgmwy0xVPezPTFU97M9NVXD7SXFaJfHRRPAiaBw+aFzkGM0nuVFs8ZxoC0jAbbqhPSHph+wMWIeR4Bqw4l2Z0caZLHtq6nfaucbEw0+W5vRXmOxi1bDLTBSnLx1T1MkFzj0HzQuOepO00a5OjEJAGOezMi//G5N4Xx4DVjnwwYJVuvtZk08dxxzbT1f7SDGa6Ko2vFb6DSc90lTvrDcimgskm2+1Ca/JB0FwBguYTdxTrPuVf7E9HbYSANMCr/v3Czcyy/1bfO52zNCOcfLA0g5mueu1NCDkd2UxPPqq0W/obiLDdLoQRD4LmLQXN1+oDJ33O5pqmExCQBli5YvgzkrYJNmBVGdlYmtHygMXSjHCyqSDtXeu4CSG3L5tVPhr3dgksm/WOgu12odz4QtA8eNB8rT5wis/wbrvxLRsjIAE57Ix5hzrpiPQGLJZmxFOgDMDSDGa6asqmArf34ISQVevaVhrLKgdipqsJ2YR4xIOgeTRB82LjwkYaGTkWAQnE/idfsJE597no5KPLIWSWZoiZrpCyGazRasgHM11B2lsxyiYzXcUPnR2vBkc+pqqXCZq3EDQv9hnN3mt3H7cBAhKAGcMjZ8n0pBrjT2sDlo8OgBByBLKZgnww01XoMxFCbrK9q0tXF2e62pXNwDNd3kYHiE4+CJqrxaB5gc/oNtPysU7viNWKgBx62rx95PSWIiM4IeQ0Bqzav5YRQm6svdOTjyrtRgg5nGyqcnuH68vbm+lqd1mlArc38pGmeBA0jzxoXuwYnL3fbjlhPQTEE/uMzhvWkPuUNNUt51makdqAVeu4WZrRvmxW+WiEkAPLZr2jYKbLp2zKb3t76cvZbhfK1hAEzeMJmhd6fCvZkr9DQDyx/qzsH2TahQGLAasZ+ahymgkhF3svQsjh5KMLIWRmunz9RsN2u1BJDLzLR50vDUHzSnLj9MGu3h29UQE5+NR5W2VmH2XAqjtgEUKORzYJIccjm8x0FT/0Dt7bpX4dH69sNt6XYyBpycdU9S5B83iC5pXk5smatdGbEJC6bzbkzjBpo3QGLELI8RQozHTFI5uEkOORzUhDyGwg0lh7+zhU5KOj8kHQXHEHzQtL5PEISA0OPnPe8zTVPT8IIQ/QgMVMVxWRiEM+Kg6ShJADXNslHu7UskpPM11d3kCkyjOQj8TEg6B5J4LmxSRyV7v5bXshIFXfyLKTNVnwnKUZAzRgsTSj0o9AFY4izZmuSme9AdmU3/b2Ih/xznSFlc125KPyB2G7XfAuH30LVn9iMOH3iqC5x6B5MYl0Og4BqcDBZ857uWT71Rx+kxuwCCFX+EGiJdmMTz4Gdaar7B8QQg4nmwrc3jHOdHmWTbbbBa/iQdC8k0HzYu34Wrvh77dEQEowOmpZZu6T1QwyhQGLEHLZEZyZrhZls8ozmOlqXzYbl49Bneny3N5Vns+OV1C2ZiBorsSD5qt1NJM+Pk3D+nsEpAS/nDV/rqTn1h+wCCHHM2ARQo5HNgkhl2lvL2UwM13BZbMT8uHlK8qOV0DQfECC5gX+Pj/abHQYASlWhbvM3D/5GbDKDqyEkMMNWBUajRBygGK0xMOEkAkhJyIfzHQhH9CnKCZoXuLHjGSC5kU+45N1yy2HIiAFOOzMea82aWcGrKoDVr2jYGmGT9mU3/b2Ih+Dem+XduSj8gdhpqtx2fTSq6Qw01X1SJGPBOTDS8FarigmaD5p/eJdbipLZN6ZMHoW9hIa+sckByxCyC3KByHkeOSjoXu7EEL29xXq1ExXe7KZzExXifZGPlIRj64HzT3KTfeC5gX+3u1vf/7bpyMgU3DIGZccLtnuzQ5YhJArDEfJyAdLM7okH5XOenqyWeX5zHQ11N6DtYFIbQOHBuRjqnq3K0FzT3LTzaB5kfdwctkbEJApz5B9sF6pxdIM7/LB0gw/ZTBLM4LLZifko7MhZGa6wslHjBuIQOvyQdBcgxM0L3AMpjeZTXJfvUEXkEfvev6i4kaZwoBFCLnsCE4IOQ3ZZKYrItnsnHzUvFiY6fLc3hCfeBA0J2he+vFn6Na3PR8BmQBn7j2hBqwuhpDjHbC4E7KX42amq3HZ9NKrMNOVgGwaG4gEa28ILx+hC1aC5mkGzQu8R54nvwzLu4AcfsqCbTLptaEGrHbkY1CXZlToUFmaEaAYLfEwIWRmuroiH0F+/+jCBiLIR/riwR3NCZrXlEjTEanfE8S7gNjI+DtMGmFphucBq3H5YGmGl/au8nxCyA21NyHkYL8LsYGIf9ms8tGQjwjlY6pakzuaEzSf4vHVX9bZFrr5hpchII8yZ3TxNDO9PeYBy0dnwdIMH/LB0ozBkU1muuKRTWa6istHmssqkY9E5YOguQia95HItf9H4rtheRWQ5bPufaWkLQghD9KAFefSjGRnuqJfmsFMV+1iozX58Fw0JSObzHRB2+JB0JygeRCJfJXdfdwGCIik3OzvCSEP2IDFTFf7slnlSJnpCtze9fqPpGe6yp31BmRTwWST7XahXl1A0JygeS2JnKlly1458ALyyrPmbeuk/ViaEUo+WJrBTFe99q69NIMQcmPtnZ58VGm39DcQYbtdqFRwhsoIlPoicEfz6IPmhT5jjoD0cvs7mWVh+z+WZsQzYLE0I5xsKkh71zruVJZVer22I5PNKh+Ne7sEls16R8F2u12Vj6lqzYAZAe5oPmE/5lUMQktk+XY80G58y4yBFZDR0dHMzL0lrgGLpRnxFCgDsDSDma6asqnA7T04IWTVLUZTWFY5EDNdTcgmNCofBM1F0LyPRJb/jBvI2X4DKyC/2ODFe0t6MiHktgcslma01t5Vns9MV0PtPVgzXVbnuJnpal82qzwD+YjbSQiaF/x1g6B5pc/o7BUDKyBOQ68jhBzDgBWjfDDTVeU7yEyXz/ZWMNnsVgi5uzNd7cpm4Jkub6MDBJEPguYiaB5aIt3hZqNZapdH7Q885+yzhyR7TdcGLELIFX68aEU2Y5QPZrpKP5EQsuf2VuX2DteXtzfT1e6ySgVub+QjTvkgaL5OX0HQvKJE9j2GLXXTTS8YOAFZftNm+0nasmsDVvUvarwDVq3jZmlG+7JZ5aMRQg4sm/WOgpkun7Ipv+3tpS9nu93BEw8RNF/7cYLmgdvRpCxPbhlWbQHJs6HXMWB1fMAihNy+fBBCjlA+uhBCZqbL1280bLcbP86UB3xxR9B8gjGBoHmNMaHM4+7wgRKQR5dfFT9olmYkOGARQg5TjJZ4mBAyIeRo5GNQZ7rqzTKz3W4c5M5Whntxm07QvH8fQdDcx3me4HGznexPb37mwAjI8j9vsaekzdsdsAghx1OgMNMVj2wSQo5HNiMNIacw0+VdNtlud5BxciuCvbhpujcxKF2wViiKCZpP8PFS2a1sktfO7OCBEZCe3GHtD1gxygdLM0o/kZkuz7Kpyu0dTj4IIUcjm6nMdHV5A5Eqz0A+6hJOQLLJBISgOUHzCu1URSKd239gBMSZHRbdgOW1GB3UAYulGVWu/SpHkeZMV6Wz3oBsym97e5GPQV1W2Y581CtAGuzL2W63FVzIJViWTa8lBhP+M0FzguZlJNL2scVzpnVeQA469aKny2nH1AcsQsilm6812YxPPgZ1pqvsHxBCTlc2Y5zp8iybbLc7SDwSTkBsWu2im6D5uhc0QfMy7bi+Npy+R+cFJMuGDk5nwCKEXHYEJ4TcomxWeQYzXe3LZufko9JZT082qzyfHa+SJJe7L9yru5kEzT0eA0HzahKZ62WdFxA5269sg7E0o8kBixByPLJJCLlMe3spg5npCi6bnZAPL19RdrxKRkAy3RuumsoLbMhD0JygecV2LCyRbr9OC8ics88ekukl9QdWlmaEG7AqfEhCyAGK0RIPE0ImhJyIfDDThXykyLBWBpwBmWpHUILmBM0rHkN5iXyB/WnORp0VkOV/fsJzJW3CgNWVAYsQcrFj6tZMV1jZbEc+6g1ODcoHM11+epUUZrqqHiny4Z2Nlm5wf7AXN21RqmAlaD5hDeJVDNboKLoSNO/7HsPK1tunswKSm7209QGLEHKL8kEIOQ75qFjeEEIOcG2XeLhTM13tyWYyM10l2hv5CMr987/61uUBX3/zQt8IgubrXsgEzf1KpMuT2I53uNJfOe3btHwQQk5DPpjpalI+2p3p6oxsVnk+2+021N6DtYFIbQOHycsW002B32Hzv7ZbCgVrvf4g6qxH4TGyiXu0lHzcS1umcT+Q0jMg+4zOG5a0V/UBy4N8sDTDz3GzNKOx9vZa2ndGNo17u0TT3sx0xSObyEeQ/jPTzYHfYUuC5hHIx0AEzfs9bjvYn1+/TecEZOYsPUfSBoSQa4p52wMWIeSkZDM5+ahf1yUpm8x0RSybVZ7PdrudwZluDHY13Hf8LMk2q9e4BM0JmnuUG8v26pyAZLn6HlQXQ8jdGrAIIacmm7WOm5muxmTTa2nPTFfg9q7Xf7DjVWKYCzcDslxPn7oOJWhO0LxpiXQvjv2SLJ0BMWlv9oePST5YmlG7vbu8NIMQcmPyEUUIOUrZjLEvD72BCPIRHc5dE+61s+2qfQ+s/AUTMmgeRDxUMAhe8fFGsh6xSGSpOjt6AamwC5a9qNaAVb+Oj3fA6px81KzuWJrhub3l/ziil01muuKRTTYQqfn7CPLRImNj7rfhBMSe9nhbckfztWoO7mje0m5lu8R+P5BSAnLIWRduJ2kblmbUNeU2BiyWZlT6USIa+WCmq3Z7M9NVs70VuL2ryEeaG4ggH41z7+/+8+13hXt59zSC5pOPQd7lhqB5kb48UzZ9z84IiPXcXoSQUxywCCF7be8qFTQzXcx0+ft6+DluZrrqdhkeGhD5aIjfBn79Z5Uu/Is8TtB8kocImheSSMujXoZVLgOSZy+Sq/C7NwNWuwMWIeT2ZbPKkTLTFbi96/UfSc90lTvrDcimgskm2+2CpN8EfXXTrglmBOp/xin6oyCvbxUyM0UejyrrUVIip3rcae+YL8pSMyAusxd3csBiaUaNYrQ92WSmKxXZjFE+uhBCrjHTNUAbiLDdLkhuUTD3uPX4J0m2+dStzh3NuaN50b/3ulvZHnbjW2YkLyCHnHTZJjLt2MkBq8rzWZrRUHsz0xWPbBJC9lk/dm+mS8x0hfxxASqTD2eXB3vxIe1ar2AlaE7QPJhETlc2tnvyAqLhsRet/XyWZsQ8YLE0I5x8MNNFCNmTbHZqpsu8fInSmulqQjahHu7mqz/z9luDvbxlu3opigmaT/DxCJrXlsg83hxI8QyI6UVyfgesLt4JueAIFJl8VBlYmekKJ5vBGq2GfDDTFaS9mekqIZvN9+Xm4dpDPtrFpMuDvoHLd5G5BsWjxHtEm/Uo0n83Mevh+Rgaz+0UaqdocyDFZ0DcX++qSAi5zoAVo3wQQq7yHWSmy2d7K5hsdiuE3N2ZrnZlM/BMl7fRAUr7gcsvDms4bs/m5IM7mlc+hmTvaF5DPiTJaW+zOUPJCsg+o/OGJds9tgGLEHKFHz58ywch5Frng5mu8O3dqZku89cZxDbT1e6ySgVub+SjPQHpnR/MPW7/h6dIegpBcw/HQNC8oESW/q5tpBuHZycrIOttmO0saSZLM8IPWLWOm6UZ7ctmlWcQQg4sm/WOgpkun7Ipv+3tpS9nu92uYk7X/uqz77w53DvkLyZo7uEYCJqXkMgKcuMU5Q0JCwmIy/MXMGBFPmARQm5fPgghRygfzHSVfmKyM131DZntdruFy/WzwG/x4np9IkFzguaNSOQeMV6fhULoTvZ86+SARQi5xFlvRT5qdWxeZFNh25uZrhKy2bx8MNPlqyuNRDYb78sxkDYx2XntCAhB82JjNEFzL0Hz/sfwghivz0IzIGZrf3hCyPEMWCzNKHbEhJArnUVCyB5/LejoTJd32YxopqvqkSIfMfCX8fs2mxdMbu44fgtponujETQnaF5BIi1UO5pk2tGuf8Os5ATkgNN+tr6c29FrJc/SjJbko8rnZKYrnGyqcnuHkw9CyNHIZiozXWwggnzEyfcWnzN3ZbBXNztQWv3mBL7ko27BStB8AIPm/eqFTC5/XnICMmQjz9PjS7VYmlFhOIpIPgghVzmKNGe6Kp31BmRTftvbi3wM6rLKduSjVvESqXx4uQjAK07ZOYHf4JBJC0aC5pO8PUHzYEHztdvR1vm+RpcDyfo/wZ7PgBXhgEUIubH29tFksclmO/IxqCHkhpZVRjXT5Vk22W4XyvHAyns3vijUi5vNGZK5lxUb9wiaEzRvUiIneyyPLgfSN4RuWfaCdb48LM1od8AihNy+bFZ5BjNd7ctm5+Sj0llPTzarPJ8drwYY+07Q5Vd3bLOn1NusZqcoguY1HidoXq54cpbeDIjMXsDSjIjkg6UZ7csHM11+ymBCyMFl00fbJbmsMomZLgiFy91Xwr5D75D6BStBc4LmvtqxyHfJbW3Xv+FJyQjIAaf97AmSPTW8fLA/fJgChRCyfH+FmOkihJyIfPhob2a6kI8E+d2vvnDMlYHf4xX15KNuwVoz55B80DyA3KQfNO//99lYVLMgUwrIkIZLf1gGrJgKlNJnPXAx2rfWrmWThJDFTFdL8lH7uJnpaqy9fYB8xIz7cshXt1uPe46kHbuXEfBwDNEsuRrQoHnf93BR5UCmzoCYe55cmZGREHI88kEIOR75IIRcu72Z6UpSNpnpgoZ5ZGzl0NeDvsNQdoTyQAWrqhasvuSj4uNexGOS50S3vW7d2qvFpXPOpTMD4jJ7bq0By2sxGtmAVeUZhJDbl83OyUfNi4UQsuf2lv/jiF42Y5zpCiebtQ0cwmH66uIv//39wV7e5JTb3DW/A6n/Wl7zGLzNetRZclXhGKLbrayJe7Tkz7N5+wzHcrlOHUI3tytLM1oesFia0Vh7ey3tOyObxr1domlvZrrikU3kI0b9GMrdZ4K+w+3v2lNy23oTA4LmImhetB29CNj6evKWO0QvIK868cLNZPbkJuWDpRkTnxBCyGnIJiHkNGSTma6IZbPK89luFyRJ7tyrvnj0tYEd50h/RbEImhM0b14iM3tO9AKyfMTtGmbA8igfnR6wCCGnJpu1jpuZrsZk02tpz0xX4Pau13+w49XgkKt3elD1uOWE9aT8SILmHgWs8nVJ0LzGMUQjIJOvBcttNznXvQGLEPK6/8rSDI/tTQi5WFurwrXdkRBylLIZY18eegMR5KMrOOniqz933GVh32TlXEmbeCkGCZrXuI4Jmtd8/V1juW4nFRCXTZ3/IIQci3zUrO5YmuG5veX/OKKXTWa64pFNT8sqvV7bkclmlY+GfERO9q8NWM5RtQtC7mheo//ljuZeJNLZbtFctVN80Od4L5ralg+WZoilGSnLplU56w3Ipvy1NzNdNWVTgdu7inwkvoEI8hE1Trr4V5876pKQ72G3H7ejpBdN/OUgaE7Q3Fc7et7pa6J+zLSZXf/qKO6IPqGAHPTpn0yXtEN7A1bz8kEIuVJd1y3ZTGWmq8v3dqn0i1Ebshms0WrIBzNdQdob+YgaM/vn8G/ijg1TsBI0J2jegkRmQ1Esw5pQQIaXT58taYQBK2DRVK7eaEU+ujrT1f7SDGa6Ko0jFb6DzHT5bG8Fk02224WKnPPrzx+7MKh73Hf8LDm9uVLBSdC8xrVI0DyYRLo4gugTZkDG5Z7j1jkolmYEG7AIIbcvH4SQI5QPZrpKPzGVma4qgwnb7cKarMxc75+Cv8uK/B0ybVS6GCRoXqOvJmhe+/WnaktzUcyATCggzvJd19wBi6UZ4QYslmaEk00Fae9ax00IuX3ZrPLROjPTJWa6Qv64AE3yqf/7j3f8MeQb2PXHT5fs+HRmPeqOuwTNOxE0739H9OfEcAFnE8tRtktU8sHSjEKfiRByk+3NTFfx/nRAQ8gpLKsciJmuJmQTGsXpLk2ffmLw91m/92ZZvjVB84rHQNB8gnZsIGje/++fYde/YVaUAuJksyvLJUszAslHlYGVEHI42QzWaDXkg5muIO3NTFcJ2Wy+LzcP1x7ykZh/5PbuX//bW/8S8j3M5GQ6oX7BStCcoHlgibQiErnG405uxbOjE5ADz/zpppK28FkssjTDh3wQQq7ypWGmy2d7K5hsdiuE3N2ZrnZlM/BMl7fRAYLKh/SzX33+2O8Ef6Pbjn2tpB2rXrcEzT2LQS35qCuRNY/BIsztRBBEX0dAsvFpO/ocsLq4NIMQclPy0YWlGcx0VRGJOOSjogCbv84gtpmudpdVKnB7Ix8JsCzruXeEfhOzOUNy7l/7FpxR/1o+Vb1cd2ZmkvfwvuRqqo/k8RgGUyJ3aftiXieEnrl8hwlljaUZfo6bpRnty2aVZxBCDiyb9Y4izZmuSme9AdmU3/b20pez3S5IztxHr/ri0X8K/ka3bf5GuYnuhUbQnKB50T6s7aB538d3jE5AcrMdJMeAFWTAYmlG6/JBCDlC+RjUma6yf9CFma76hsx2uwMqH9Jlv9rqjrNCv49dedSI5P65/LUX+7asnrYArtU3h856lHgPJHKHtq/pbIJfGHaMa8BiaUaJs96afHR6aQYzXeXHsRhks8ozmOlqXzYb78sxkAR4UNn4mzQ6mgd/p61G/l5O2014rRI0n+JCImgeWdC832d4gv3+VZtFJSC2+rQjSzNaKlAIIccjm8x01RWWVuSj0WWVDcuHhTiOhGe6qh4p8pEOZu/41WffeXPwt7n7uA3k7CPFL26C5gTNG5JI39sYS9K04VaXYa0hIPuMzpshadt45IMQcuknEkL2LJuq3N7h5IOZrmhkM5WZLu8biDTfl0exgQg0j9O3fv35Y7/VyHuN6cOStiFoPsV7EDTvjkTm1uoyrDUyIDPW7z1TpqGqlQFLM3zIByHkKkdBCNmnbMpve3uRj0G9t0s78lGr8IlUPrxcBNCse5h+m/XcUU28l9117HYa17vJCBTppAiaFyt6Le52dIpHQDLZDibHgOXruAkhN9bePpqMEHL49vZhyEkvq4xqpsuzbLLdLvhlSZa7uVd98ehHGnm3cZ0l2Yy45YOgean3QCL79JsRzYCYuR1YmuFpwCKE3L5sVnkGM13ty2bn5KPSWU9PNqs8nx2vYGJyM/vbq754zLVNvJnd+o79pPzw9grWmu8RxaxHE/IRetajZYn00o6lJDKeDIhMz6x08RJC9jNQszTDn3ww0+WnDCaEHFw2fbRdkssqk5jpgpb4yG8+f+z3GpGP64+fLmf/TkagzrVW8hhMBM2DtWOp3cq2tVvmrBeFgJj0tLYGrGrjctwh5HSXZjDTVda+CSGnIZvJzXTV/00mXtlEPmDiVvvarz93zEmNvd36Yx+V2Q7lC9Ii1wZB82KzHgTNW5LITGPjz2zrSl9DQNykAsKAFa5AKV0mBC5G+9baHmySEHKlV2Omy2MDMtPVal/OdrswAU66bOnw2NGNqc4t79xZuftAtWKvwK/lvsXAe8Fa594eFY4hyKxHnd3KChxD9BJp9SQyd63lQB4XkEe34N2qUwMWIWSWZkTT3oSQ5ecr5KG9Y5zpak82memCKOTD9NuVK4df+cfPvGtFI/Jho5lc/gVJI96L4lA3o1ORgrXiMXif9ZhqyZXHY6i15KpfO6Ygkf06wH6i3F4O5PEQ+rRpK7eVhlynBqwqzyCE3L5sdk4+al4shJA9t7f8H0f0shnjTFc42axt4NA0f8pyd+DiL//9/Y294213niC5PZsTj5rvQdC8YF9J0LzcZ8y3b11AhrLhp635gVma4ane8C8fLM3wU9p3RjaNe7tE097MdMUjm8hHGrjb86HsZb/+3NvvaOod7fbjdlRu/9qcfNTNksQgH3XFw+N7sFuZP4l02batC4iUbyu5yAesMPJBCJmlGdHKR5dDyLWWVTLT1Vp7V3k+2+3CxO11Z5bby67+3NtvbOw9rz9+uvLx/5Y008uv5dHfjG6S50R1b48Sx5DsPVpilUh7WlvX/+MZEOfc0xiw5P84ahWjVd6OpRlh2k4DOtMVmWxW+WjMdAWWzXpfGna8GmT50H6/+sIx1zT6xuuNnSTpOQTNCx4jQXMlHzSf+vGt7PbDZrYqIH/dgpcQcpgChaUZ8bQ3IeTi8pHmssraxWiUshmjfHRhpgta4M9DrvfipuXDbjv6ZZJ7N0HzAHJD0DygRPbr9Godg9OKaU9pVUAkbUsIOZR8VPx9KLh8MNPl7Tiil01muuKRTU/LKr1e2+VerjszXdAC17ls/CX/9x/v+GOj8nHnMU+Qua9J5qoXa9bQr+U15KX2rEeFY6g061HwGCrNerQskUndo8WkXq+VZVirCYhtF4V8EEIWSzNSlk2rctYbkE35a29mumrKpgK39+DMdAn5SI0r3PC0F//qs++8uVH5sDlDGtc3JW0dtmDljubc0dyjGDQlkU7btiYgh5+yYENJm5YbsJqXD0LIleq6luRjwEPIXb63S5XnM9PVUHsP1kyX1TVwaA6n760345F9f/WZv7un8fe+bbNTJL2s+heWO5pzR/MiEhlo6Vx4iWxPQMZ7y7celAGr1kBNCLl92azy0ZjpCiyb9b40zHT5bG8Fk02224XqnbE7a/t7Np1z+VnvWdb4W99+7CslvadysUbQXATNi0pkALlpQiJbEpBhScqdbeN8DFgszahRjFapC1iaEaYYFSHkBtvbh1cz0xW+vdluFypcHsslHfebzx/9X79u4/1vO/ZZ6tnX5Ca6x0Db27IGuOlf6f42tHiUeI9ot9dtSiLrdHQVjmHN2/61kgFZdR8Q57ZaYzKbpRl+jpulGfVrntoNSAi59JgXg2xWeUZnZrrETFfIHxegKfu4VbLX/Obzx/6ilbe/9R2byXrnymmW34K1ZkHIHc0L1jzc0bwxiXS2bRvXaCZJWZZvyYDlq0AhhByPbDLTVVw+BjSEnMKySma6kI/07OM8NzLtua3Jx+I506TxcyRt779gJWhO0NzXOYhltzK3hV17+IatCIjktkpvwCKE3FqBUuX5zHQ11N6EkOORTWa6ih96A8sqoQnG5Oxjv97yrkNbCZuv+u47zdrsq5Lbt1ynRNA8fNC8X9bD0zEQNFfpe7QMWeP3Alm1BCt3W1nln9DbGrBilA9CyFW+NMx0+WxvBZPNboWQuzvT1a5sBp7p8jY6QAD+kGfuiKs/e8z/tfopbjvm43I6wm/BWve6Sjwj4FtugtxUUAWD4DG3Y1MSOdGfuW0kLW7yUs1W+Ydt1bUBixByU/JBCLn0E5MNIVc5H5HOdJm/ziC2ma52l1UqcHsjHxGSS/rimOvtfvVnj25VPuyWY/9e0oebkw/uaF7qM3BH8z59YYu7lblsq6av1+FHzWfriT8YIeR45IOlGfHIx6CGkOtde2nOdFU66w3Ipvy2d5Xns+MVSIvzzL3t6s8efUXbH8RuOfrVcvY5P+JRs+AkaF6wLyRo7v08V21Hs8YF5NEMiG1ZZ8BiaYZYmuFTPgghpykfnZzpKvsH6c90Vbv9EDteDRiPOOlflg6v3D0K+bj9uAPk3H9LGiZoXuEYCJoHbMdYguZ9/t6p+RmQOWefPbTkBm1RZ8DqVAiZpRkBitESDxNCZqYrEflgpgv5GFB+JLPjf/X5Y2+K4cPYbcfspdy+K2l6/Xtv8Gt5+FkPT++R4j1aSktkyHZc+znNz4AM33/9ppuPDNlQvQGr3rBLCNmXfFS5npjpCiebCtzehJA9NV9rsunjuJOY6ap6pMhHRLirc8tPuPrzx14cyyeyW499oczOk/L1wxasTcgHQXOC5m1KpGt+CdaMYds0ygGLEDIh5MLtrcrtHU4+mOmKRjZTmenyfm+X5vvyKDYQAd/cJLmjt793k+dGJR+3H/timf1Msg3DygdB81KfgaB5n06txaD51I83PwOSSxtFOWBVeQZLM4LJByHkmOSjyo9D3NslnGy2Ix/1Bto45cPLRQCecDdL+sTGW97x1fmjo+O/juiT2a3H7au890M5bVBdPGoWnATNC453BM29n+cw7di8gJg9JiAszWhEPggh12oyQshNtXeM8tHQssqoZro8yybb7UI/7TD9VplOz8b17au+ePRYbJ/Pbj32EKn3P5JmtFKwRiMfdQtWj+/RWtYDifTYjpvY9QdNd9uft6I5AZE2cizNiEo+CCGnIR/MdHVJPmpeLKnIZpXns93uIGBmutiZzvzVF44+T3JRtoLddvQRsvxrkkYqmHkkBeskzyFo3rBEDmLQfMo6x2loeEtJf25MQDJpo6I9TRdDyKWfz9IMf/LBTJeX4yaEnIJsJjrTlYRsQg0ekHSOZdmnf/PZox69C/IxcRrSLUf/g0xn6vHbB/guWJuQD4LmBM0jlshetnWjAqKpMiADEEJOd2kGIeTizU0IOSXZTE4+6v8m0y3ZRD5iZ4XkfmaWf2v8vs2+v/icuStj/rBmc4Z066afktM7ilz33gvWwh1txaB5NAVrifeIdtYDiazVjm6iewKGFBCzWXIeB6zG5YMQspcCpdKvFInIZpXnM9PVinzUPm5mutpv7ypHinyEZlzSxSZ9x02f/r1f/9tb/5LCh7Yb3zJDt834upzNqVaw1izWyAgUrGkImschkSWOYaKn5tqkUQExZxtrbQMhhFyjoiGEnK5sEkKWn6+Qh/aOcaarPdlkpgsqNP49kpvvnH5k06b/MBXpePzT3/r3T5KGvyvZ8xsvWKORD4LmSGSDEukK7orrS0Bkbs0ZEELINQoUQsjpykfN6o4Qsuf2lv/jiF42Y5zpCiebtQ0c1sLd7mSXSVqoXJf+6gvHXB1rmLzvN+K2Y/aS7H9kk2wNStBcBM2LdFYEzctJZN6sgJhzf90Fi6UZ/uSDELKf0p4QcuD2rlfwJj3TVe6sNyCb8tveXuQjxg1EQHI3O9nVJvutmX6TO7vyt5877oY1n3NMkkdmtx59lMw+I2ma/4K1CfkgaE7QPFGJdFmzAuIeC6GzNKNx+WBpRkfkgxByQvJRpX5Pf1kl2+0mxb2S7pPsPid3n0l/duZuzDO7UbndOJxnN1z1xaMf7NpB241vmaGR6Z+T9JZ+17r3grXwYErQnKB5YhJZqh2t4SVYLp8hc9VOIEszKr4dSzPCtJ2Y6YpBNv9KT9Ktkm4x6V5ndo8y3e2U3Zvnute5/BE5e8hJysf1sBuyarvxuDX+qxhjfV9uyn+Z+qVdyQMo9WFKnZN6H8OVfElX8qNFd4+7RhmXlpo0Nq03NL5yqLdEkn675d0PanQ0H7RzYbcftYNy9x1Ju5YvWGsWa2QECv7QQtA8DomsGTSf+vu6caMC4sxNM0LINeRjUEPIES7NIITclnzc7aRfS3a15dkNzumGPNMNS9efdvPi0bi3+ASAluXj1qPfrFz/IWn9RgvWaOSDoDkSGYtENjwDYmYjq/8mRQi54nETQvbc3vJ/HNHLZhIzXXebtFBmV1qW/XrYZb9eeOoRt1NGAUCpnutPR22k6fq8pNeXHOQiKVgneQ5B84YlkqC5R4lseAmW3LR6BQoh5KKvTwg5lvYmhFxCNm+WdKmTLsuzfMHPT33z7ymdAKDW+H7L0S+X0xclPdl/wdqEfBA0J2jeRYl0TQvIqp0mCCGLELIv2SSEnHIIuSfp5046t2e68Ioz3ngV5RIAeBGPPx21kaa7UyW9XROGhgiaEzRHIltrR7PGBWSEELISDyFXuQa6cCdkZroq9XnrPn+pc/qBOf1gZTZy/lWnzO3cDjsA0LJ83HrUIZL7vKQnlS9YaxZrZATWfZygecQSGTBoPtXjruEQuknTCCFX/ApEE0IOnQOI9E7IUcpmjPIx4d+skHSBpHOmbzDy3fmjc5dSIgGAd/G47bgny3pnSnpt4wVrNPJB0ByJTEIiZ9iVu4+4513VyBaFwzIb6bt7IiHkgg0fRj7qXbB15aPEw43OdCVybxev8lGl31vnxX5hcl8aHrL/XXDyGx6gPAKAIOJx5VEj2tIdJ+t9XNKG1To7MgIEzUXQvEmJHNlsmhraI31YbqK7jRY/AELIvuSjyrU3qHdC7u5MVyDZXC7TOebyf/v5aW/6P0ojAAgqH7e9fX+ZPi1pxzAFawzyQdAcieygRLqRaZIebkZApJHin5kQMndC9t3eqtze4eSjvZkuz/d2uU6yz+TL9Y0rPvPGhyiLACCoeNx+7O7q5SfKdED1PpygOUFzJLK5dlzrmhmy6U31F1MLCCFksd1uSPlgpstLe6/zzPwKmU65fIM//mAQ76oMAA2Lx23HPkvW+7Dy/A1yyqoVrDWLKTICBccwguZxSGRLQfN+7Th9fKRJAfErH4SQI5SP0NvtxiqbZT9n2jNdTm5hbnbKz09/47mURAAQXDxuP+opsuyjsvwtkhtupWCNRj4ImiORHZBIG5rWVP8xLGlcWisHQghZHQ4h+5PNKs/ozExXPPd2cdKFcu4fF556xJWURAAQXDz+fNTTNZS9S7kdJdmMImN1ugVrE/JB0JygeSQSaVmLAkIIuaIfdWHHqzAzXeUGiwrXY0uy2b58uJ/L7MMLTz/yYkoiAAguHrcds5tMJ0g6UmZDYQvWGOSDoDkSOWASmeeNLsEaa08+KnWBhJCDyEeJh6u2NzNd5fr0yV9usSn/0OWnvfFHlEQAEFQ6Fs+Zpo03e7WkY2V6ibdCp9bgRNC8yHhH0DwxiWwqaD7Vazg1GEI39Sa+DwghZLbb9dneQQI0HmRTgdvb63H/RbKTH1x/5KzFo3NXUhoBQDDxuOWYJ0rujXL2Ttljdy8nI9CMfBA0J2jekkTmQw3OgDiNl2+0arUVIeQptMfbdrtVzkfcM12l3q2bM10m2Td7w+79V5z4hrsojQAgiHTcftRMmXuFzL1J0oGSZVEUrNHIB0FzJLLrEtlrOANCCFkph5DX/J/1NgBIc6ar0llvQDa9yMdVTu6YhaceScAcAPxLh80Z0h2b7KncvUm5O0Lr3LWcjEAaBWsT8kHQvPNL54ZdgwJij86AlC3LG93xqmH5SCaEXEE+OjnTVfYPkpjpWi7ZKSv+svSTV33x6DHKJADwJh13vm999ZbtL/UO1W16haQt2ilYY5APguZIJBL5OL08a0xAnDRuZT9mkzkAQsiNyQczXQVfI7x8XJ4re9vPT3397ymVAMCPdLzzaerlB0l2mMYf3qfv9rkEzcWv5Uik9+9KDEHzqR7PVp+UCCwgJhuXnAghi+12PbR3reNOYabLu2yu8cAyyX1o0czr/p07mANALeG4+djtNOT2lmwvSftrvLddMwVrzfcgI7Du4wTNI5bIBIPmUz3ussZWXAxL2biUB5aPSt1nB0LIVUS1A9vtdnmmq8JFXvB0/NY5HbHwlCMWUzoBQKnu8853Pk25PUdmu0r5c2TuBZK2XrdPij0jEIN8EDRHIgdYInsNzoBI+cPh5WNQQ8iecx9Vnp/KjldVnt+ZmS77xoqZs465avSwRyilAGDC3uKWt22qofW2k+VPl3NPl9l2kraXtIt6vY3/+kQXoGAVGYEoCtYUJJKgeRwSWfEYMtekgOgh3/UhIeQA8uFl9VCH7u3SjZmuezOnv1twyhvOHahCyuYM6a6nbiazzeVslly2waOnZH1ZPk0A3ujF9fprP91plpyGZJou2cxHr5DNJbe5pFX/bfkT5PQESRvI8gk6FjICBM2RSCTS0+v3xhsVkCXFv76EkOORD7bbTVw2f5Vn7tWLTj7ipk4Kxh1PfKaGhp4l2XaS207SdjK3rWRb6C5tLtmq6JncmifKOWpm8FjouMCFjivXcbsiY5db7XGb4i34tXzSxwmaI5Glvyce3yPlpXPNZkBWCQghZF/HkfB2u1WPtDOy2ZB8mL5p48NH/fysucvSl43RTHc/tLOkF8nccyTtprv0bGVab9WpccG/hzAg4kGh061Ch4yACJqnIpEdC5pP1ZZDWbNLsAYjhFylNm00hNyYfPho7+Tko35cxod8jEv2kUWnveGUpIXjziW7S9pXTi/WXUv2ltzGFM4QVD4odLpX6KQkkQTNkchBkchx1+g2vEsmnOPtXAg59FKcGLfbLfEwM11ejnsK2bw3c3rVglPesCC5svD20ZnKlu4n2aG6a8khcnoixTKkJR9kBMgIpFKwpiCRBM3T+DGgwjXpxptbgmVyS5xX+SCEXOw6bUI+Iry3y2DOdN3gNH7wglPedF0y5eD1x0/XhtMPkNkcuSWvlrQ+RTI0Kh4hCx0yAu0XOkgkEolExieRww1uw5s5PTTRhhqEkOtXuWy36+m4E57pMqcrXG/s8IWnv/nuJMrBu9+7t3L9naRXS7aRyIRDG/JBodP9QgeJRCK9SyT5q9rtuGK4wRkQc0uqlv+EkAPIh9U7gubko6GZrnJnvQHZLDPGuu+vXG/9N8R+fw+75wMbKu8dIdNxyrUrhTG0Jh4UOoNT6DTSjilIJEHzNH4MSEEiPfSt4+NLmhMQlz/kHrtxUWMhZA1qCLnC9RNox6tUZrrSvbfLFxfNvPZYjY7m0ZaBt7/3qcrsPer13ippQwpjaFU+KHQGq9AhaI5EIpGxSeS4djm/sR9Mh5XrITk1HEIOnQOIMoTcinx4vZM8M13F2tvZpxadcsQJkoty31m7833PltkH5PR6yY1QFEM35IOMABmBVArWFCSSoHkaPwZ4vSYfcq65/fKHpaH7Hr+7KiHkgn9XRT5Ch85j3G5Xke54FVA+pFMWnXLkh6Qj4yv/7jhhtlz2CcleIUe6AyIQj5CFDhmBmAsdJBKJRCLjk8iHmhwZhjWsu1dl3gkh15GPehd7Xfko8TAzXWVj5OXk49QjPhRd+Xfbe56sIfcRSW+TNERBDFHIB4XOIBc6SCQSGeh74vE9Bm/p3IONCsjYspG7p40szyVl5eSDEHKx/rds+d2R7XbV3ZmuiXEfWXTq6z8ZVel33/GztHLaP8vpnZKmUwxDFOJBoUOh47UdU5BIguZp/BiQgkSG7FtdYwF0Scrmj+47LumBuOSjSg2Y4Ha7Vewnle12rUIjJzLTtXZ7m9NZMcmHmZzd8Z45Gpv2Ozm9F/mAaOTDHruArM/fV5SDkGvLrcxnLHEMrRY6NY4hGokscQwWWCIrL7nqcwwWu3xYH/kwpTETaX0kMmL58NG3Wt7sDMij1nO3ZJvFIx9st1tloGe7XZ/tXVA+pH+//JQj3hNN6XfX+3bRXfl/yLm9KIQhOvkgIyAyAkUHd5bOETT30Y4lJTLKdmzomsyazoBIMmd3OdOO/T87IeRw8hF6u92ST2emq4h8fO3ymdf9QxRln40O686l75XZv0puGoUwRCMeIQsdMgJpFjpIJBKJRMYnkaYWZkBMd/f/2ISQS7d5g/Jhtb+AXZzpCnlvF/f9J92YvU3ntH+fD7vzhJ1195L/ktPuFMIQlXxQ6FDoIJFIpPfvicf3IH+1Os3PgDjprqm/S4SQ/Q3GDcpHlSBHp2a6zMuXaIKv/5Ub5CvfeM45b+61WvbZaKa7ln5Qso/JxP08IB7xoNCh0PHajilIJEHzNH4MSEEi2+pbrXkBkdPdk7Y5IeQiBWlD8lHi4aq5D2a6+rX1Tb1hO/T8E9/8cKul353ve4LuXPo1OXs5hTBEJR8UOhQ6bUokdzRHIpHIan2rubsaFxAnu8tWuy9ZazmAaOSjb61dsdHryke82+2GlU0Fbu/Cx/CgcnfYFSce0ehFus6nveO9B0n2VTk9gUIYuicfZATICKRSsKYgkQTN0/gxIIJr0uV3NjmSrLr3R57d3Z58lP2DLmy3W+V7GPd2u+ahrSOf6Rp3yl616PTX/661ss/k7I73fVBOP5KQD2hDPKxPoRNoSZTXQmeqbVk9HkOtbVn79bsBtjFuXCI9H0MrElnzGKyJbVlrXNNTba8bjXyUOIaoJTKCvtXs9iZHlFUzIEN2u+WEkJuQD1PFcxtcPpjpmqq9nekDC0973bzWSr+7j9tAd6/3X3L2WgphaEc+2ixYYyl06hSssRQ6JTo+n4VONO1YUiKjbMdYJDLk98Tje7B0rmA7jtzRuICM5SN/HtJYvaothRBy1TKY7XaDy2Y78lG4vb+98LQjzmqt9LvzfU9Tbj+QtDOFMEQjHhQ6FDpe2zEFiSRonsaPASlIZHR9a667VtzT5OiSSdJF/7Tf3SY9UvwXkIkrtuhDyBW+LGy3G14+Yp7pctLVG+Rjb2+t/LvrfbtIdhnyAVHJB3c0j6zQ4Y7m3NHc1zngjubJ39G8Wt96t9t3/njjAiLnTNKfCSF7HJyblA+r2Rb+mq812fRx3BN8/R8wc68+//R2dryyu963v8wuk/REimGISj5aL3RiyQjUKXRiyQjU+YyxZAQ8HUOyEhkoI9CoRMaSv6ojkbHkryr1rY0uv/qrgKz6TDdXGqSSDyH3uaZbkY8SDze549WgzXQ5d9yi017/p1bKvzve8xaZ/UTSLIphaFY8CJoTNPdVsBI0J2juqx0JmgftW801ugOW9Nh9QFaVcTe7oPJR5bQmuONVleensuNVlecnOtNl0pcvP+X132mlBLzrvUfJ9Lk1fiAAaEQ+2ixYYyl06hSssRQ6fQri2v09QXOC5j6+Jx7fg/xVvaIvyxvdAWsNAXEqMwPScAi54PPj3PEqRvkInftIfqbrj5lmntCSfBwj03+suiQBWhYPCh0KHd+FDkFzETT3fAwEzev3rbk1vgTrrzMgzm5y5oo1eIQ5gC5ut1vQJiKTj5oFUPszXWNZrjcuOP0VS1qQj/fKdDoFMUQhHxQ6FDptSiR3NEcikcgG+9YWl2BlZjdZkR9d2W7Xn3zU3vEqRvkIveNV2JkuJ/uXBacfeUXjZeAd7z0O+YBuyQd3NOeO5qkUrClIJHc0T+PHgET7VlclB+5JQMZlNw8V7CjZbrdF+SjxK0Vy8tH+TNdvlv9lSeMSYHe9540yfYaCGFoXj5CFDhkBCh0kEolEIuPsW7OhPzY9Ej0ecn3J+FV3SFpRryOpU4xWebsubLdb4mG22/Vy3JP0AeO5ub+76otHjzVaCt75nsNl7r9E4Bzalo/QO+pEVeiwo076u5WVvEdLlLuVxXKPFs/H0Mo9WmoeQ8q7lZW9HtYlVzZ0Y9Oj0Rprrl72iZ9cL+kZU3WWaYeQPS698iYfoUPnMW6320R7l27rTy469ciPNFoK3vX+vWT5hZJmUBhDa+LRaKEToCAOVei0Ih4eCh0yAiIjUPSaIX9F/kqS7Ga348XbNj0qZWvaiPtjffmoOTiy3a5H+QhQqCQsH1M8/dppM1d8otFy8I53byvLv4t8QKvywR3NIyt0uKM5dzT3dQ64o/mA3tG8/DE4Nb78ah0Bkeza+vKRdgi5uNFWP4Lm5KOh7XbLnfUGZFPl2jvLj54/+tbljZWD9x0/S27oXElPoDiGVuWDO5p7KHS4o7m/gpU7mnNH8xgkMuk7mlf40cXaF5Dc9IdSPwj5lo8ub7drJQ80evmoIgRRznR9Z9Epb7i0sXLQRoc1Nu1/JD2b4hjCigd3NOeO5r4KVu5ozh3NfbUj+asI+9Y/tTFKDa/+P4ay/NrcsjUqtsHabrfKtcd2u5Xau0rr+ZePZerZhxq94u5ecqKkl1EgQ1j5aLNgjaXQqftjSOo76pARSKMdm5LIAAVxiGuS/FWNdqx6TbpWZkDWEJB8bNp1Gh5vKIRcXj7Cb7cbOnQeZrvdchdAhes+BtkMMdNl7sRFZxzZ2N7Xq3a80vsokKFx8aDQodCJotBpUiIJmiORSGShdsxcKzMgayzBumD0gNsle8hn9ZpECLkR+SjxcNWlV4pxxytP93bxKh+SpJtsfOiMxkrDu094huS+LhW52yeA5/6LoHlEhQ5Bc4Lmvs4BQfP081ct9a2r/68VQ+0LyKMf5Q9VSt945KNvrV1LWDq13a66O9PV7z2c7COXnzV3WSOl4fXHT1ee/Y+kjSiUoXH5IGguguZ92pGgeYMSSdC8UYn0LQbd61vvdLue/3AUAmKy6wYshFxLJOKQj4pFi1Vo5ERmuvq09+8Wzrz+241dZRtM+6SkXSmUwb94EDQnaO6rYCVoTtDcVzsSNE+ob72mrRFseN2PnF3nPKzZSySEXO86rHAUaW63W+msNyCbqtbezj6i0dG8kRLx9ve/WC5/N8Uy+JePNgvWWAqdOgVrLIVOpc6sRCdJRoCMQI2COMQ1Sf6qZg3o8Zo0/aatUWydGZDM5dcGl49YQsil3z70drslnx7JjlftyEfF9jb75aJTjvxhIyXi/R/cSFn+DUlDFMzgTzxS/7XcmpOPKWc9ah5DFL+WV/iukBFoTj7IX0UmkeSv1vkH156ArDMDkruh65zlrctHAyHkxuXDKh5HzPKR2kyXuewfJWeNXF0rx8+U9FSKZvAnHyEHR4lfy1suWKMqdOq0o2eJbKUdPcgHu5Wpkd3KzCJvx4j71jyiGZBH1ltyvaTcTzFapTbtwo5XgbfbrXrcg7rd7l+5/PJTj7iokVLxjhP+RtJbKZohDfkgaE7Q3GehQ9A8jowAQXOC5lN+xjG5zX8fjYBc/p65y2T6ox/5iDaEHFA+Sjzc5I5Xg7vd7l9xdkojpeL1x0+Xyz4vttwFL+JB0JygeY3HCZq3IJEB5Ca6mUiC5h3oW3/vZp+zMhoBWVWouVJTMmy3O/k/xLTdbunnd2um67pF611/biNX1YbTPyppB4pnqC8fFDoUOrFkBOoUOiUzAlFKJPkrfz8GdCF/VadvjSV/ZVe3OcJNIiBrf6gOhZCD1bdNyEfFIsYqvFvHZrqc7LQmdr6yu07YTjLudg41xYNCh0KnhtwQNA8gkf3akaA5QfOifavHY6hzo88Wd8CSJgihr7IS95v88QMY1O1262Uy2G7Xp2yqbnvfNTJz5beaqR2zMyRNp4gGn1eZv8FRImjecsEaVaFTpx09S2Qr7ehBPgiai6B5on2rs/gEJB/v/UZDmVoJIVctg1PYbrfqkbLdbq32dqb/mD/61uXBS8c73rePZK+kiIY45SN0wZpCoVOkb4+90OEeLXFIZAAxaFwiPR5DtO1I3zrp473h+JZgXTh62J8le6AJ+fCxFCeZ7XZL/KLBdrveZHM8Hx/+cvDS0UYzyc6kiIZqHRFBc4LmvgqdRILmwZbOiTuae2tHguYd7lvvdDtfdFd0ArIKdzXb7bYjH7WPO4Xtdis+v+xMl8n98PKz5t4W/Eq6a8nr5LQbxTR47aMGJwxZo9CJJSNA0DyOX8sJmpO/om/t+xlMv2x79JtUQJzlvylT5oWVjz79eivyUeLhTm23255sVjkdmezzwUtImzMkuY9STEM58ehYGLK1QqfmMRA0F0Hzou1I0JygeQt9qwW4JjO7vO1RcHiyB3JzVzsXi3x4zn1UeX4qO15VeX4iO15V+Js/LZz5h/A3Hrz7KUdKtiNFNdS+TgmaR1bo1HicoHkk7ehBPgiai6B5V/rWxx7PFrU9Ek46A5INFbkXSPmCN84dr2KUj9C5jxjlo0q/NPkLOunLobfeNRsdlonZD4hEPrijOXc091nocEdz7mi+Vr3AHc0T71slSWN6+KF4l2AtnfnwYknjkx9W+Uq+i9vtFrSJyOSjZuGUxkyXDeXj3wl+Bd219LWStqewhloDMEFzj4VOv76SoDlB86ISGUBuuNFnBYmkb/V8Tf7aPe+qR6IVkMvfM3eZpOt9yUdXt9v1en+Nzux4FcFMV67LLz39zTc2UFi+m+Ia4i50CJrHUegQNI9DIgmaxyGRBM3b61td68uvphSQRz/tr1IPIbciH13ebjeVmS6n4LMfdvt7XyJpDwpsiLvQ8TwAEzSvWOhUOAaC5gEksl87EjQnaN5C32pqrm91eesB9L4Cksv9csoDHpjtdks8zHa7Xo67pmz2eiM6u4Gr570U2UChQ6FDodMBiRQS2YhEGhLZev6qpyhmQIanenBI2S9z5Q3Kx9Tf2fbkI3TonO12i8tH//Z20rwrTjwy6A127I53byvpUAptaKfQqVuwljwG7mjeQjs2VeiEbMemJLJmQVznmp6qYI2mHUtKZJTtSN/qqW+91e186S3RC8iMvPerRzI3vup5bLcbRj48Fzje5CPdmS6Tfhj8ynFDb1PfJYyAeFDoUOh0vNAJ1o5IJBJJ3xrgmlwYy4g5ZQF17uhhj0haPDDb7aoN+Whou91yZ70B2ZTf9l7za/2ToGWmjQ5LeisFNxQudAhDiqB5n0KHoPla7UjQnKA5fav3vtXZz5MQkEc/+C9rF5apbLdrFQ40le12rcITU5npWvMjX7PotNf/KehVc9dDB0t6IkU3EDT3WejUPAaC5iJoXrQdyV+Rv2qhb40hf5XbvGQExK0eRK9akHotRqv0v2y3W+zMW93T3bpsOulH4S8bx+wHUOhQ6FDopCaRBM1F0LzFvtVnv1TtHi13a/aCq2MZQYf7P6X3SylLKoTcmHxUCXJUkg+lseNVHMvswi6/uu/4WRrTyym+kY/4C9a61y9BczICRdqxKYmsWRDXuaanKlijaceSEhllO9K3Bu5bL3Qu4P2qfQvIeD7rt0Nu6TJJ6zUhH/W+mHXlo8TDVZdeKcYdr6rJR4QzXcseWn8k7P7WK6e9Sk4zKMARDwodCp2BKXQImiORSGQH+la7IKbRtO8SrPmj+45L+rVf+ajyHStbfndku111d7vdALJ5+eLRuSuDXjFOcyjCkY8JHyIMqeSD5kkt7yBoTtC8ZMFK0Hyw+9bcXZSUgDzKL/zKR9ilOJ3abtdKPr+0fLS33a7ve7s4p8uClp8PvHtjSS+jEB9E8SBoTkagxjGQEQggkf0KVvJX5K9a6FvjzV/9Ppb7fzzGcMHn/dJf7c92u2Xlw2sAvlH5kF/50OTy8einCyogWpEdKGkaBfmgyUfIwVGKf1lAiWNIdnlHLIVO3cEu9iVX5mEaPvaCNRaJDPk9EUvnomjHMq/holp+VVxALPulXO6h+u/Cdrslnx7JjlftyEfoma41GHs4z8Pub+3cQfHEtyB9+SBoTqHTxUKnLYkkI5DGjwH0ra30rXkenYAUWoJ10b8cfL2k+/sWpF6L0Spt38R2uyWewXa7Tcrmr68+/c0PBytFTU6mAyjKB0U86tyMrkahE01GoGShE+rXeAuwjKbxQsfzMSSXEVAHMgKxSKT3bVlbkEj61hb61nHNGLs0SQGRcyanRVPKR3I7XgXebrfqcaew3a532fQx02X/F/RKuec9z5G0NcX5IMhHm4UOQfPghQ5B8xIDDkFzguartSNB80T7VrvcbX/FQ2kKiCQnLfQtH75DyHW+V1HseJXKdrve7+2i2u1trt9ObTXpZftTnHddPAiaEzSvcQwEzQNIZL+ClaA5QfMW+tbUbvRp8eU/pOIhdJncQilnu91Q8lF1lmEwt9tdhyEFFhBnL6ZI77J8hBwcJYLmLResURU6ddrRc6HTSjvGIpF1x3yC5uSvmmhHD+/heufGOPIWngGZtnH2C5NW+KhyA4WQI5GPigWQVXi3qLbb9Syb5Wa68pGZ034XrDw1Ocm9kEId+ag2MNT5tTyWjECdX8tjyQgEWAoU+tdyr+c5loxAnV/LY8kI1Pm1nPwV+asyElm7b71ZOy36TdICct67Dl7hpF/FIh9lFys1Jx/tbrdb3bDryofn9i73/D/MH527NNjpu+O9z5JsC4r1rokHYUgKnQErdAia93lbguYEzTvWtzp937k49+/MyjzZTAvqFItJbLdbtSxOYcerRLfbLfCxrw17ldiLKNi7Jh9tFjoEzYMXOgTNC48ZBM19nGeC5vStsfat2Q9jHYlLCYiTW9j/2BPfbrfE7Afb7cYhmyb3p6BXiXPPpWjvingQNCdoXuMYCJoHkMh+BStBc4LmLfStqQXNJ+5b79fdWXTb7z7GcJkn96QF2aofyF21k19lIIlTPmofN9vtemtvp/zGwIXrLpN+5SEh+Qg5OEoEzVsuWKMqdOq0o+dCJ8p2bEoiQ7ZjUxIZ8nsiguZRtGOwa/JHbt/547GOyqVmQOaPHnavpD+WHvrZbnfCExJOPqp4RRrb7U54zeW6IVjZanIytzMFPPIx9eMEzQma+yp0uhA0V/VjICOw7rhP/irxvrWfRAbqW81+EPPInFX4m4V+CtIAswyp7HhV5flR7XgV10zX0JAFExDd+e6nStqYIj5V8aDQodAZsEKHoHmftyVojkQORN+6XCOK8v4fNQTELQwuH15WD3Vhxyu22y3wdzZr2WY3BbxEdqKQT1U+2ix0CEMGL3QImhceKwia+zjPBM3pW1PqW/ML3Q4Ll8Q8Sg+X/YNsyC3Me9awfATKZLDdbmrb7U70lAfO+8zBKwIKyHaKcwc7qNy/JJYRCF3oBCtYFeY8R9OOTRU6dfp8T8cQ9YYBRa4Z8lfkr4q0Y4f6VnPfj320Lj0DcuFHDrlW0n1RyUfV0HmVsqYzO14lud3uOjjp3sDXyFMp6jsgH+yoE1mhw4466e9WFsvSOfJX5K98SWRHbvTp1FNuUd79vJaAyDlz0ny2241YPurHZVqSj/LtbbJ7Al8jT6Ow74B8UOhQ6FDoeC50asgNGQGPEtmvHclfdTpoPuFnsPlu10V3d09AJJmzi/wXCHWL0RIPs92ul+OOQjadCysgWY6ARC8eFDoUOgNW6BA0LzY+BJVIT8eARNK3+u9b/18Ko/dwlT8ayrILe728REHahHyEDp2z3W5x+Wju3i7Bl2CZ24YiP2b5aLtgld/3ICMQoB0lMgItt2M01yT5qziuSfrWgNfkmIbGv5vCCF5pBuSCjx52vWQ315aPqs9nu92CF0AY+ajXcfmQzdW/d/ZAsPLW5CRtSqEfo3iQEeCO5jWOgTuaNyuR5K8ikkjyV53uW00XuB1/cV9nBWTVMboLa8uHhxByp7bbLfVoYtvtypd8rP0Pbnmwq+OBD86SNI2CPzb56GCh47NIoNCh0PFW6BA0j0MiyV/F0bdGFDSfDOeSWH5VS0Cccxf5l4/6ofP05KNK/Z7gdrtV7KfATJeZVga7OsbyzSn4E5IPCh0KHQodz4VOjUKIjIBHiezXjuSvBi5oPjErtHxZ1Hc/X53hyn9o4xeNacgkubp1BNvtKuB2u9Y97vgAAEa9SURBVOrEdruTzXQ5l4e7B0ieb1rh2w1NisfUX8z6hU6IwauqkCcx6xGDRPbt2P0eQ3IZARUMgsfcjjFck3UL1lgkkr61G32rJOmn7nlXPZjKyF55BuT80VffLenqap1Tg/JRJchRST6Uxo5XiW63O/nTsoA3IcxnUvxHLB/cdXfdx7mj+RR/xh3NuaP5JI9zR3P61mT71jWe+u2URves1l+bLmpePko8XHXplWLc8aqafFjJBq38I0hLsukUcAYkG56OALQpHmQECJrXOAaC5gEksl/BStCc/BV9a3N96xo8omzkxwMjIM7+GkQve7I6td2uurvdbr3CIqx8PNpcvXA1cI8Aemvy0cFCx2eR0IlCJ1BGoNFCJ5aMAEFz8lcxSCT5q2b61gkr8h+62fOXDoyA5NmG8+S0pNAJDxRC9isfFYslK/n80vLR3na77d7bpb4i1cI5BCQ2+aDQ6VChE0BuGi90PB0DQfPA7UjQnKB5ycfjDZpPUq/k30lttK8lIPNH910u6adst+s5AN+ofMivfMiXfJiPQ6jZIAhIs+JBoUOhM2CFDnc07/O2SCQSSd9agHulB88bKAF59JR9t/z1H3q73ZJPj2THq3bkI/R2u1XaraxshjMQxKAp+Wiz0CEMGbzQIWheYhwgaE7QfLV2JGhO39qf77jZi8PdkiAQw/VfYsWPpGnLJc1oSj6s3AskIR/d3W7Xah1Fe/IBrYpHo4VOyMHRc6ETrGBVmPMcTTs2VegUfLzS96QpiQzZjlIasx6K/Jqsu70ufWs6fWsBXP6NFCuA2jMg80fnLjWnC1qXj8pBjo5ut1vx+UncWBK6LR8EzSMrdAZ9Rx2C5uSvJvgMBM0T7ltTDZpP+DrXa6fLfzmQAiJJWa7v+S9GSzzc5I5XqWy3W6EDi3m7XT+yCUnIB4UOhU5UhY4nuSEjELgdyQiQvyr5eGpB84lf6mvOpVkMDft4ETeW/9CmZeMTvV4Xt9st/Xy220U+oFinXfsa5K673NG84jFwR/MW2jEWiaxTsMYikfStHbqjefFBNR/+71QrAi8zIBed9Or7JM33V9/Gvd1uqXeLarvdKv1TujeWhETkgzDkuo8TNJ/izwiaEzSf5HGC5vStyfatlbjE7XrpjQMtIJLkzL7bTgg5ve12q//KUlc+POc+qjy/IdmEmMSDu+5yR/Max8AdzQNIZL+ClTuak7+ib22ub606vLokw+feBWRsPP++9Ne7UscUQu7ejlcW6Y5XNaQL+eiofHSw0PFZJCQRhuSO5mkUOgTN45BI8lf0rWW+z5VZrvHh7yIgki478TV3yFbthhVTDiA5+ag/idCSfNRrb+RjwOSDQkdphCG5ozlB8xrHQNB8Yon0/aOL976131hM39rarMdfX/5/3W7z/4KAPIpz7ivx5gDYbjdW+YCuiQeFDoXOgBU63NG8Zp+PRCKRg9S3emDIvph6teBVQDbLVvxAsnvK18QR7ngVfLvdKl7BdrsQu3y0WegQhgxe6BA0L9znEzT3cZ4JmtO3dqlv9YTTddpx0WUIyGqcMzp3paT/jks+PBdS3uQjdOg8xu12SzyMfCQmHoQhCZrXOAaC5gEksl/BStCcoDl9a3N9q9cx94up3vsjmICsekX7z6oFb5o7XrHdbtuyCW3LRwcLHZ9FAkHzSAodgubkr3xJJEFz+tYy32evrNSKoaR3vwomIPNHX/07Sb/s384FG4ztdtluF9KUDwodETSPqdDxdAxkBAK3IxkB8ldd6VuD8D/uuZfdow6QBXlVs6+UlQ8fzch2uwHkI+LtdlGUNsWDQodCZ8AKHYLmKjuuI5FIZPClc10Omk/41u5LXakkggjI8Mrxb5v0SG35GPDtdstX3AnveIV8JCQfbRY6hCGDFzoEzQv38wTNfZxngub0rRWu+a4HzSfmD3r2gksQkCm48JS5Dzqn71aocSsXpLW+HJFut2sejjuZHa+qfDQspGHxIAxJ0LzGMVDoBJDIfgUrQXOC5vStzfWtwYfhL3UhfB5UQCQpc+5zbLdb9fvbxHa7oUPngbfbtQg6g4GSjw4WOj6LBILmkRQ6BM3JX/mSSILm9K1lvs/BWa6x7GtdqiyCCcjFo69cJOmK5uTDc2HlTT7YbjdIeyMfccgHhY4ImsdU6Hg6BjICgduR/BX5q670rQ3h9K2uhM+DC8iq8+U+3Zx8NLTdbqlHE9tuV77kI8KZLqggHhQ6FDoDVugQNO/ztkgkEknf2gp59umuVRlBBeShu+46R7JbPdT3LctHlc+Z4Ha7VewniRtLgrcvOUHzgoUOQfM4Ch2C5nFIJEFz+tYu9a0N43SB2/myqxGQElz1xaPHzNx/lGvWDu54VaXkY7tdT+0N5dqPMCRB8xrHQNA8gET2K1gJmhM0p29trm9thbO6WHFkod9g5vD0z0r6i8+CtFYxGumOV/HJR+jtdks+HfloQD5CFjqEIeModAiax1HoEDSPQyIJmtO3lvk+t8IftNPCnyEgFThv9OCHnLPPRRFCDr7jFdvtFj/00DNd4E0+yAiIoHlMhY6nYyAjELgdyQjQt3alb211eD7LOeUISEVWZO7ftPqNCevKh1Xf+amL2+3W6wAblI8m7+0CBc8rhQ6FzoAVOgTNS/fpSGTTEjmA+SuC5hPxgPL1v9HVCqQRAVk0+uq75dyX/chHxULLSj6/tHy0t91upaVXqWy3y45XAeWjzUKHMGTwQoegeeE+naC5j/NM0Nxf31rhmid/5blvjWKY/rzb9fyHEZCa5OP5SZKW1ZePBne8ikY+5Fc+5Es+2PEqTfEgDEnQnEInLonsV7ASNCdoTt/aXN8aBSvUyz/b5WqkMQG57MTX3CGnz8e/3W7ZP+jCdrtVzIsdr9KUj5CFDmHIOAodguZxFDoEzeOQSILm9K1lvs/RjNdfds+5/DYExBMuGzlR0pKiBSnb7YaXD1PFc4t8dEs+yAiIoHlMhY6nYyBoHrgdyV/Rt3alb42KMWU6tetVSaMCMn/0sHsl+/dGQsgpbLdb8flJbLdb9UiRjwBnlkKHQmfACh2C5jX7cSSSoLnna56geXGc+0+306KbERDP9MannybpvuIFaYe3263Q+SWz3W6J2Y968pELYi10CJoHL3QImhfuxwma+zjPBM399a0VrnnyV5771igZUzbe+dmPVgRkwcmHPiBz/1q8IPVYdHmRjypvx3a7YdpOUg/NiLfQ8Sg3BM0DtiOFDkHziu1I0Jy+Ndm+NVKcvux2/PlNCEio8zuyyX/IuWv6X2Ohcx8xbrc7xSux3W7REzLg8hGy0CEMGUehQ9A8jkKHoHkcEknQnL61zPc5WsaU9U4ZlGqlFQGZP7rvuJn9Y7vyUeUSSHDHqyrPT2K7XeSjnUKnX0MShiRo7qsdCZqTv/LVjuSvyF8lMYR/ZVBmP1oTEEm69BOv+aHkzm9PPmpst1vw+XHueBWjfFRvbxIgFDoUOhQ6SOREb4tEEjT30bd2IX+VBCs1ZCcNUuWStfnmbnj8HZKWJ7fdbv1JhJbkI1AmI+EbS3ZDPtosdAiaBy90CJonVOgQNI9DIgmaN/djAEFzP0O5fWYQdr6KRkDmj879o6TTan2R2G7Xn3xUDZ1XOVLkw8OZJAxJ0JxCJy6J7FewEjQnaE7f2lzfmgz3K7MTB62Kydr+ACsf7p0k0w1xbrdb5bvOdrth5EPIR2OFDmHIOAodguZxFDoEzeOQSILm9K1lvs8pDen2ETf78vsRkIa5/Ky5y5y5Y8p/m5rYbjd06DzG7XZLPNzkdrtmlc/YQMkHGQERNI+p0PF0DATNA7cj+Sv61q70ranhfq97p31pEKuZLIYPccmJr77AyX25VBFWZbvdUo8O6na7oUPnyEd18aDQodAZsEKHoHmNdkxBIiPPXxXqW7mjeTx9a4r0TnD7zh9HQFpk+ciy90q6xb98VBECttsNIx9VC+9Bh0KHoPmAFjq+xcBLodPBjEBrElnzGAiai/xV0mP7j9yzL//ZoFY20QjIFaNvfMiZHe1fPmqGzlOQD/Nxqca93e5gaghhyIEpdAiai6B5kxKpDkhkgB9d6FsT7FuTZVzOfUgDTBbTh7nkxDnnSfp85T7Nt3x4jmg0Jx/1Q+fIRwzyEbLQIQwZR6FD0DyOQoegeRwSSdCcvrXM9zlhnH3WzV64GAGJ6QONLDlB0tWTVeixbbdb7vJIfMerKh8N+fAvH2QERNA8pkLH0zEQNA/cjuSv6Ft9tSNB85rcrmUr/kUDTnQCMn/0rct7mY6UtKw5+ajy3W9iu93QofMw2+2W69BLN1/HxYNCh0KHQgeJDCTrrUgkQfM4+lbuaB4Nzo5zz7vqQQQkQhZ+/LWLnXMfrFaGst1u1Y/hPffBdrv+2puguQiaU+g0V+hwR/PmfgwgaE7+aoBGfaez3exFPxDEKSCSdMknXvMZOfs62+0WOeKObLerijNdyYsHYUiC5hQ6cUlkv4KVoDlBc/rW5vrWznCv8vF3oR6RC4gkzVi+7DjJfsd2u3UKAqWz3a4FaeTI5SNkoUMYMo5Ch6B5HIUOQfM4JJKgOX1rme9zh3DuOLfzFXehHgkIyPmnv/lhZdmrJf2lcDEXbLtdsd1uYfkgdF5bPsgIiKB5TIWOp2MgaB64Hclf0bf6akeC5p75upu94By0IxEBkaRLP/Ha6yV7o6ReMPkoOPsRn3yE3m635NMbk4+UbYVCh0InlkInloxAzWPgjuYif+WjbyV/FU/f2jlu0djIP6AciQmIJF124twfm3PvaVM+BnO73RLPQD7qmR2FTjcKHTICDRc6Aa6XxiXS8zGQv6rYt1Y4BvJXnvvWTjIu5450u83/C8qRoIBI0oJPvvbTkj5TTz6qXAtd2PEq8Ha7VY97YOSDMOTAFDoEzUXQHIlEIulbkY/HcB9xsxcsQDcSFhBJ2up6O8HJzq0uH+1tt1tp6VUq2+1aE9vtpiwfIQsdwpBxFDoEzeModAiaxyGRBM3pW8t8nzvLeZq94DRUowMCcs45c3tjy/Q6meaXv1zYbjeMfHguygdJPghDiqB5TIWOp2MgaB64Hclf0bf6akeC5sFwulFDY29yTjmq0QEBkaTLz5q7bOX0Fa9w0pWDtd1ulXq3CztepSgfFDoUOrEUOgTNW5dI39dLaxJJ/iqOvpWgeQIsVS9/hdvxF/ehGR0SEEm6YvSND2Urxg+SdE3/y6Yr2+3Wy2R0cbvdOLs3Ch0KnZgKHXWg0AlwvTQukZ6PgfxVoHYkf0XQ3EMRYHqb2+Xy36IYHRQQSZp/xpH39saG95X028LyUWW73YrPT2K73apHyo5Xg1HoEDSn0EleIvv9GIBEIpH0rc31rYOgH/ZRt/PCszkRHRYQSVp0+qvvlrSfpN8E2263wsWWzHa7JWY/YpOPuLo5wpAEzVMpdAiaEzT3JZEEzelby3yfB0E+9AW386JPciIGQEAk6bKT5t6zQsP7Sfq/elLOdru1j6GaS3RbPghDiqB5TIWOp2MgaB64Hclf0bf6akeC5g3xQ/1+m3dwGgZIQCTpFye9+r7h6fobST8tVvDUlY8+41sr8lHi4YS3242nq6PQodCJpdAhaN66RPq+XlqTSPJXcfStBM2TwnSh1h95nZt7To+TMWACIknzR+cufWC6XuFk3wovH55zH1WeP4Db7U78z21c7xQ6FDoxFTrqQKET4HppXCI9HwP5q0DtSP6KoLlXFigbeZV72vzlnIpyDHfpYBaPzl0p2Zv2/sezb5P0gSTkw3xc1t3fbteqnNsmxSOqQqfuF85jodNKwRpLoVP3Gkxh6ZwCt2Xb7ag+BWsT16THY4h66Rx9axo/BsBqLJQbOcjNnr+UU1GerHuH5GzBSa/7oExHSnqk1KWUyna7VXa8Sni73Tg6QsKQBM2bLHQImhM093wMBM3pW5EPj6WmLpAbeTnygYCsw4KTX/ftTPnekt3s52JKQz683l8j2h2vIpMPwpAiaB5ToePpGAiaB25H8lf0rb7akaB5w3xXM0cORz4QkEm59OQjfjWW5XvING/ti4ntdkPIhwZMPih00ih0YskIEDQnaB6DRJK/iqNvJWieJM59WrMXziHzgYD05YoTj7xrwSlz95O5d0sa68Z2uyUebnS73dA7XnkJzPhxEgqdhAqdfu1I0JygeVGJ9HwMBM0DtSNBc5ZceWdcch9ysxf8g3PKOR0ISFFltQWnzP2Uy93eJt3g4xprd7vd0KHzBLbbbVM+uOsuhQ6FDhKJRCKRnexbmfWYgPvlspe7Zy84hVOBgFTislPn/mJ8xvhuJn1RE06FFLvQ2W7X03FX3fGqjb6RMGTBgjWFQoegeTqFDkFzgub0rc32rbAGTlcpd893sy+7iJOBgNTiitE3PrTo5NcfrZ79jUnXNyYfbLdb6DNFKx+EIUXQPKZCx9MxEDQP3I4EzQma+2pHguaNj/zOfVrTZu3ldllwA6cDAfHGwtOOuGzaetlzzXSGpLHm5WPAt9u1Ck9sRT4odNIodAiax1HoEDSPQyIJmsfRtxI0T5Q75dzBbvaCf3Dbn7eC04GAeGf+6Nyli059/fuG8t5sJ/fjavJRZRxiu91i3WjbnWKvwPFQ6JARkMgIFG1HgubkrwKIQbR9a8FjIGgeE+doaOzZbvaCn3IqwjLMKZAuPe0N10s6dK8PfPtw53SySTsWl4/QofMw2+2WGwwq1DK+5SO6fpK77nJH86JfzAG4o7lZ5O0ocUfzln8MiEoiB71vRTwm4AZl7mi304ILORXNkHEK/srCU4/44YL1rnu2c27u1PmQpuSjxMNVl16x3W4F8SAMSdC86N8PSNC88t83JZEEzQma07ciHxOyVOY+pvVHZiMfCEi7jI7mC05+/TkrHnhotklHmemPdS/iTm23qwHZbjdYwUrQnKC5r3YkaE7+ylc7EjQnaD5wjMm5z2lltp3becEoNxZsHpZgTcJVXzx6TNKXNDr65b2XPfMQM/dBk/YqdBFbhYs+le12reTzS8tHy6Hzyp02yztY3lGjIA5V6LTSjh4kkqVzamTpnGLPetC3NtOOA8VKOft/kv2rm335HzkdCEi8jI7mC6RzJZ37wvf/v70y9Y6R02slzajUl1UoeNPcbrdKd1pWPqxvTDy8fFDoUOhQ6Ay0RJK/QiKT7lsHBOcelPKvarx3utv1ils5IQhIUvz8tNctlLRwn3f/1/Fj06a90eTeJuk5U/dlobfbLfn0SHa88iEf7XerFDoUOhQ6SCQSiUSm2I4Dw7Uy93m54S+72fOXcjoQkKSZ/29v/Yukf5f073t/6Fvb9Xo6LFM2x2R7+ZYPK/cCSciHj+122+1arVJbplWwplDoBBCDxgsdj8cQdaGTwva6ivya9HAM0e9WRt+KfHjhTjl3tpx92+208OdUrQhIJ1lw8htukPQpSZ968Xu/uVM+lL0iNx0g2YskTQsiH5WDHF3ZbrfNzpVCh0KHQid6iYyqHZHIgZPIYO3oo2/tLDfL9FMNuf/R77ae5+ae0xMgIIPCZWe88RpJ10g6aZ/RszdYvnR8X2W2vzO9SNKukkYKj8ue5KPWjldRbrfb5tIrlnewvMNHQZxCocPSuTR+DGj5mmTpXGIS2SGce1Bml8t0kbLsJ272ZddQhSIgoFV3Wdej4XVJ2n30CzNnPDxz99wNvdBye66TdpK0g6Rp0e54VeX5QbfbnUA+8pbEg0KHQodCZ3AkkvwVEpl035o8j8jp9zL9Vk4/Vy9fpJ0vX+xcMxUAICBJc9Xo0Y9IuuzR/0iS9hmdNzz2yK1P7/Wy2ZKe6jI9NZee6syeIulJkjZ9vI2i3vGqie12rdrKh9blg0KHQiehQoc7miORAyORg7J0LglySfdKuk3Sn+XczVJ+s6Q/Kdfv9OxFNyIbCAh4ZP7ovuOSrnv0PxOyx/HfnOWGhjbVyPimsnzTVZdqNtPJpq96RrZh7mzydnSP/5+C9NaYVSjzlxM9Oe/35EKrNPNJP4vlbkGjjUZGoOFCh6B5M4WO/lWy2/pf8G7qvqPCQ8VfP6/5GhWXhLtAnzH3+Bknen1X5zO6KU6hx8+oAJ9xsvPofH7GvOBHrXi9FP7cTtGTa1yZlqz6uG5MslU7UY3rAVl2v/LsAbfb/L9QEQ4ejlMAMEnJdue7j5DZf/svWGOQD4LmSORqj+dDu7inf+u3XPUAANAEzIAAlHIFlnewvGOSxzsZNAcAAEBAAFqSDzICweWDjADyAQAACAjAQNPTo4sUCZoTNO+QRBrmAQAACAhAxJARIGjuox1TkUgAAAAEBKBFHp8CqVDsNSgfUd91l6B5GhK5kssdAAAQEIB4ISNA0DwViTRfdwEFAABAQAAGUz4ImheTA4Lm3D0ZAAAQEICBFg+PRTFB8yn+maD5qod9CBIAAAACApCofBA0J2gei0QiHgAAgIAAIB+15IOgeRzy0QWJBAAAQEAA0hETguYtyQdBc4LmAACAgAAgH/6KYoLmU/wTQfPgEgkAAICAAMQsHh6LYoLmU/wzQfNVDwdcOgcAAICAAMQuHwTNgwXNo5r1SEEifRwDAAAAAgLQffngjuaRy8cASCQAAAACAhCRfJARaEk+CJoHXzoHAACAgADE6yHei2KC5lP8E0HzZiQSAAAAAQGIVDw8FsUEzaf4Z4Lmqx5ue+kcAAAAAgIQm414LFibkA+C5gTNkQ8AAEBAAAZHPgiaRy4fSCQAAAACApC0eDQhHwTNCZr7kkgAAAAEBKBFepKcn2KQoPkU/0TQPA6JBAAAQEAAIoZfywmaezqGOJbOLbA/vbZXXSL7kUfejgG/774ezwPlr0pfkyXaObb8ldnH3bMvO4vxCwABAeimeLQqHwTNCZqXlshZYQrWCscQnUSSv0rjx4ACr+G0HmMYAAIC0E35IGhOoYNEIpHNS2TFazIhiQzZtwIAAgKQlnikUOgQNE+jYE1BIlk6F/yaJH+FfAAgIADIB4UOhQ4S2UQ7IpFIZJN9KwAgIACpygmFDoVOGkHzGu2YgkSydC4OiUxh6RwAICAAqYoHhU7kBWsMhQ4ZgTQkkvzV4EgkACAgAKnKB0FzCh0kEolEIv1/V0L2rbkAAAEBQD6aLVhTKHQImqdRsKYgkeSv0vgxoMlr0jGMASAgAImJB4UOhQ4SKYLmSGS3JBIAEBCAWOWDQidgwZpCocPSuTQK1hQkkqB5PH0rACAgAJE7CIVOjAVrCoUOGQEkEomMSyIBAAEBSE4+KHQodJBIJBKJjK8di14zAICAAKRvJBEVrCkUOgTN0yhYU5BI8ldp/BgQi0QiJwAICECnxINCh0JngCWSoDkSmbREAgACApCcfLC8g4xAKgVrChLJ0rk4JHJQls4BAAICgHzEUeiQEUAikUgkstMSCQAICECU9DT5jasodCh0kEgkEolsvh199K0AgIAAJAcZAYLmqUgkGYHg1yT5q8QkEgAQEADkg0Knk4UOQXMkEomMSyIBAAEBQDwSLHTICKRRsKYgkSydi0MiCZoDAAICMKDyQUagO4UOEolEIpHIBwAgIAAh5YNCh0IHiUQio5JI8lcAgIAAdFdMyAhQ6CRRsKYgkQTN0/gxIBWJBAAEBAD5oNDpZKFD0ByJRCLjkkgAQEAAEI8ECx0yAmkUrClIJEvn4pBIguYAgIAADKh8kBHoTqGDRCKRSCTyAQAICEBQ96DQodBBIpHIAZVIguYAgIAAxCQfBM0Hp9AhI0DQvMYxkL8KIJEAgIAAdJGeJEehM9iFDkFzJBKJjEsiAQABARg4WN4RR6FDRiCNgjUFiSRonsaPAQCAgAAgH/EUOmQEAhQ6SCQSiUQiHwCAgACkKh8UOgkVOkgkEhmLRJK/AgAEBADxqFSwUuikU+iQESBoXuMYyF8FkEgAQEAABo4pU+gUOp0pdAiaI5FIZFwSCQAICAAkWOiQEUijYE1BIlk6F4dEEjQHAAQEAPFostAhIxCg0EEikUgkEvkAAAQEIFX5oNBJqNBBIpHIWCSS/BUAICAAUKlgpdBJp9AhI0DQvMYxkL8KIJEAgIAAAIVOJwsdguZIJBIZl0QCAAICABW8hIwAGYEi7ZiCRLJ0Lg6JJGgOAAgIADRZ6JARCFDoEDRHIpFI5AMAEBCAZMWDQiedQoegORIZi0SSvwIAQEAAopUPCh0yArFIJEHzNH4MSEUiAQAQEICGxYNCp/WCNVWJJGiORCYtkQAACAhAVQOJuGBNodAhI5BGwZqCRBI0T+PHAAAABAQgHjkhIxCg0CFojkQikcgHACAgAIgHhQ5BcyRyYCTSa/7qYUl/kOxGyT0gaamcPaxcTpk2UK71JW0qp+1keqakGc20I/IBAAgIQKLyQdCcjEAsEknQPA6JzK+RuYvldJFs+P+004W3OFes0jdTpute8lT13PMk7SfppZK2b0ciAQAQEICGxSOFQoegeZQSSdB8ECXyOjl9TeO9b7qdL72laq/knHLp0hsl3SjpHEmy37706crG3yTpTZK2Qz4AAAEB6KR8kBEgIxCLRLJ0Lg6JnPQi+qEyneZ2mLcwVG/ldr74T5JGzfQxLf6bfeTsg5IORDwAAAEB6LJ8kBEIUOgQNEcik5VIk3P/K+c+7na46Oqmeq5Vy7gumSdpnv3ub56vLP9nmQ5FPgAAAQGImp4kl1Kh47lgjUE+CJqzdC4WiayUv/qjlB3ndrzogjZ7MvfsS34p6TBb/JKXSvl/yPQs5AMA2iTjFACUpUihY33+vuTjIYPm5ukzrlOwBg4oF/o1vsIxFG7HWCRyKvnwdAzB27HOd20KOQi55Mqm/IdxORuVbT7b7dSufKwhIrMvvVjLlj1Xzk6TlJc/zwAAfmAGBKCufPBreXMF6+MPEzQnaO6jHQNck053y+wNbsf5F8bYg7nnXfWIpA/Y4pf8VJb/t6QtEQ8AaBpmQAAKi0edX8sr/Iob3a/lBY7BYv+1fIp2bDSg7OkYWpXIGsdgAWaXKklkiWPoP+shSfO1cmRnt1Oc8rGGiMy+9GJZ9nzJfkn/DgAICECU8hG6YC1d6FQr1qZcclW3YA2wjGaNh5ooWFOQSHVAIgPITeMSuXZFrx9qw+UHu13PvzuVns3tfOkt6q2/r+R+Rj8PAAgIQOzyEaKgrFywpvBreY1jSCYjUEciSxxDtBLZrx1TkMjK+auvaIfNX+2efPmy1Ho4t+v5D8s9cLgevY8IAAACAhCtjxA0jydoXkFuCJoHkMh+7di5oPljJfx3tOPfvN25c3qpdmtu9uKVumabI2T2fTp5AEBAAGISj9YLnQrFWrIZgQDneUL58HgM1pZE1jyG0BKpDkuk2TyNTH+Lc6N56l2cm3tOT0vsSMktosMHAAQEIAb58C0GZQudKsUaQfNmJdLreSZoHodETvn312ho7BVu+/NWdKWrcy+6fJlGhl8h6c90/ACAgABEIR+exKB8oVPuMxA074BEqgMSGUBu2g6a/5XlynWk22Hhkq51ee5Z8++Vy+dIGmMAAAAEBKB9C2mj0BFB8xpyQ9Dcs0QOdNB8tSo9f5d79rzfdLXHc7Mv/4Wc/oW+HwAQEIDo5IOgee1jIGheUCIJmgf7MaC0ROY/cTte8qXOd307LTxF0hWMAQCAgAAkISa+Ch2C5gTNPR0DQXNfErlCbviEQejhnFOuLDtOTj0BACAgAG2LB0FzguY+zjNB8zgkspTsn+x2vOgPg9LbuZ0u+z9JXxIAAAIC0KZ8lCiECJpP8hBBc4LmMUlk4WO4T9LpA9ftjdu/SHqE/h8AEBCAKOXDW6Ez9eNRZwQImhM0j0Eig+Sv/s3Nnr900Ho+t+uiuyV9hTEAABAQgEbFI4Wgec1jIGguguZF23EQgubrPL5E4+OfHdxucOhUSSsZDwAAAQEITr+bGxM0J2g+QBKpAZZI09fcLgseGNSe0O186S2SfsCYAAAICECrEDQnaF7ycYLmNduxoaD5xEPlNwa+y3P6Jv0+ACAgAOElI2++0JEImk/xeIpB82D3aFHaQXPf57lWO055DNe52Rf/YuC7w2XLz5N0b9oS5dhSGAABAYj+8ljRcKEj7mgudS5oHqwdCZo3IpGm/0dfKLnnXTUm2XfTPgpbQUsCICAAcZM/FrrkjuZ9HydoXlAiCZp7vV6akEhnF9EZPnZK3MVpf34EBCAWhjkFAJPgbEX4glVKY9aj38MxBM3riIdniWylHT3IR+vtGItEPv7/LtO09a+gM3yU3OZpyJkkl+YBZAgIQCxXI6cAYNJCZEX4QoegOUFzXxJJ0DzATOTlbvvzKFof5dF7glyTbsXDDAgAAgIQ/dWRPdhgoROgYCVoTtC8qEQGkJu0guYTS6TTb+gI1zlXVyf82ZfSfgBxwBIsgMkYW3G3spEwBauqikdR+QhUsEoesh5KpGAteAwsnesjkZ5fP6RErvtdv46OcO1zkv1BztL87D3dTQMCxAEzIACT8bTxe7XG3Qi5GR1B87U+I0HzKf4soaD5ZE/LMwRkbZzSPSdDdg8NCICAAMQ9zrpzepIe4I7m4o7mXZJIIZGFJXIkv5mecO2qwW5M9rOvnH4vDQiAgAAkgN3ZSKFTR24ImougeRGJJGheWiJt5CH6wLVPT5bqOVmp58x/kAYEQEAAEhhsdUMjhU7lgpWgOUHzohIZQG66EDSf6j3yO5fQCa5zjlINct/qnIz2A4gDQugAU+H0x1qFVIpBcy/iIRE0b7kdG5VIz6/fZNB88gfG3OzFK+kE16KnJUn+dOn0JxoPAAEBSAS7Yc17bnEzugG8GR0SOZgSmejN9gIz1HOyBA3E7HoaDyAeWIIFMOWg5a7/a5FC0JyguadjIGiuBHYrG7Yb95lBJ7i2lrkN0/zczIAAxAQzIABTMTT2W+X9LpO6v5YX+BXXAolBY+IR4D0an/VoSiJrPG4BZpeia8eSElnn78d7G0paTke4BmkKiGXMgABEBDMgAFPgnvKd2yXdUajQIWg+yT8TNH9cDgiae2jHBncrW96bRS+4FvnQRml25tzVHgABAUiL/ytf6MRyM7o627LGcjO6OtuyxrJ0LsA2xklJpKUpkUMj29H9rXOenp7gh77XzV7wZ9oOAAEBSGi8dVeVL3RqiAF3NJ/4ce5oPkk7ckfzYBKZ2zPpANc5Kdsn+KGvpN0A4oIMCEA/XP7zv26Iw7asjW/LGmppW6vt6EE+2K1MwfNXTgjIOufEPTO5u2mYfkXDASAgAGmxfPoCzVgxJmkkXEEsguZRFKwpSCRB8+Yk0najA1zn+7dbcjsUZ/o5DQcQ22UJAFPidvjKEkm/JGg+1T8TNH9cDgiae2jHBoPmU0vkHnbl7jPpBR89K9futY3k0lqC5dTTypFLaT0ABAQgRS72LgZrFjo1CinrU7ASNCdo3oREJho0n6gd//qUaVpv5p50f48yZi9Nz5p0pdtt/l9oPAAEBCA9LL/QmxhMXOj4LYq5Gd26n5GgeWCJVAckcqJ/tv3pAB/Fuf0SFJCLaTgABAQgTbYdXyC5e4IWOr6KNe5ovm7B2spuZbEsnasjkbEsnasjkTWXzjm9ziy10EOAOn7VXeFfmV6VYxcygAEgIABJ4tw5Pbn8B2lkBAIsBQr9a7nXgrLRjIBfMVj9exJCIqNaOteURPZrx76S+TRds/deA98JPrLyUEkbJ/ap79Pd08h/ACAgAElryHeDFjoEzUXQXATNY5RIy9808N1frjck+KnPdfvOH2fsAkBAANLl4ZUXSXogaKFTtlgjaD6xfAQrWAmadzBoXuAzujfYdftsPqhdn12993Zy7tD0PvlUPxoBAAICkMJQNvuclTL9d9hCp8TjBM3X/YwEzQNLpDogkZVkf32NjR0/uJ2ffUDp3TdsidYfvoCRCwABAUifIf1X4EKn2OMEzdctWAmaV5RIgubFPqPeadfuteGgdXl2zYu3ltPfpidNOts9bf5yBi0ABAQgedxT//sqyX4dttAhaE7QvMYxEDSfWCJrCZgkaVP19KGB6/Ss9wlJMxIUkP9kxAJAQAA6ZCH2n+EKHYLmBM1rSqTv81yrHVOXyHWe/l77/d7PHBj3WLz3HjL3lgQ/+mK308KfM1gBICAA3eHh3te0ThidoDlB8wKPEzRvSCJ95K8mZLp6+vRAyIcpk9m/J1onfJmBCgABAegUbvY5SyV93l+hQ9CcoHlMEqkOSKRqfsYp//5A++1ex3S+o1u814clPS/BT75EYyP/xUgFgIAAdA/TpyRbTtCcoHkaEknQvNhnLPorhM6y3+29a2e7t8V77yHpo2l+evclt9v8vzBIASAgAJ3Dbfftu2T2Te9i8HidRdCcoPkUjxM0n1giawlYKWZI+nYXd8Wy/3vxFjI7W9JIgh9/XFk+EEvkABAQgIFl6BOSVpYvdAiaEzSvKZG+z3OtduxY0Lx4qb6jevpfWzx7Wmfk48rdZ2pafq6kpyR6BOe4nRbdzNgEgIAAdBa33X/fLOlLXoo1guYTy0ewgpWgOUFzH/WuXibb5Gtm6Y+ldvacIa0345uS9kizQ1ZPbugTjEwACAhA9xnWiZKWETT3fAwEzQNLpDogkar5Gb2V7q/X7/b6j5QlxK7cfUQ73f51mV6VbF+cu6+72Zddw6AEgIAAdB73lO/cLumMyoUQQfN1C1aC5hUlkqB5sc8YoiPQ0bpmr/9OcTmWXbn7TE2f8X1JRybcFa/QUP4xRiQABARgcJg5crKkW0oXrATNRdB8iscJmk8skbUELGQlr9fJNj7XFu+5aTLysXifrTRjvQvkdHDivfDnyH4AICAAA4Xb6hsPy+kDpeSDoLkImveRSN/nuVY7DmrQvDQHyLJf2zV7vTB6+bjmRS+Rjf2fZC9KvAu+W7n7V0YigMRqJ04BgKcB/YbXzZNsn7DioUQK1oLHEPWsR7+HY1g6V+d74lkiW2nHqORjdVbK2T9q8RM/5eae04uqn7py9xHNmPEhSf8saTj9jte9ze284CuMQAAICMBgCshNc56m3P1W0vpxFqwxyIf1eaqnY4j6zvRIZDPtGAW/lnPHuNkLroiij1q8994y+7yk2R3pdn+p2Qtf6JxyRiAABARgcCXkhrnvlXR6fPJRt2D1+B5RF6wpbBigmm3ZtkQWOAbzcR6iGWV7MvcVDY2f6Hb8+U2t9Eu/3/uZyu2jMr2hQ+P+mJy9wM1e9GtGHgAEBGCwBcTmDOlGLZTcHs0UrE3IR+iCNQb5KJAlqSMvkz0eVTt2RSKjLpi/oSw7xe244A+N9EfXvOjZ6rkPKdPrZRrqVmfrPuZ2XjDKqAOAgACAJLvxNTsoH7pSsvXDykdCv5YHK1jl4dfytmc9kMgBkI+1D2ShpK9p+vjZbvsrHvL64ov33FQ29HpJfyvZCzrazf5Ky5fv4Z531RgjDgACAgCPFQF/eu1bJfcVb2KQXMHahHwQNCdonjwrJC2S2UUachdpZNav3PbnrSjV1yzacz1tlD1PudtPzvbTqjuZj3S4e12hPH++2+Xy3zLSACAgALCOhMz5lta5uRdBc4LmSKS/duzciNyT6SaZrlNm18u0RMqWyukByZzMbSxns5RrQzn3TMmeJempAzWWm/2D23nRpxlhABAQAJhonLz+DbOUrbxS0vbNyAcZAYLmsUjkgAXNoSm+q9kLX+scXw6A1OFGhACh7H77bz2kLD9csgfTuKO5yn/GiR7njuaB25E7msNA8me5/O3IBwACAgD9JORp/3utzN6iYknkCf6ZO5o/Lgfc0RyJhEHlEeXu1W725fdzKgAQEAAoIiHP+N/vS/pYoWIrql/LS8hN0IK1zmfsN+sRQAy8S6R1QCLNg0TCgGJy7i1ulwVXcSoAEBAAKMN2//Ovkn11ymKtcMFaoeAMUrBOJR+ejiH4rIfn2aUgEqkOSKRqfkYYWJxG3ewF53AiABAQACg7hjqZlmdHS7pg6hrO81KgaDMCdX4tr3kM3mY96khkLEvn6khkE0vnYLCxb2unhR/nPAAgIABQVUJmn7NSYytfI6dfTVzDkREgaJ6SRPZrR4LmUIuLNX2jtxI6B+hoTcQpAGgWu+HwLWUjl8j0LD/Fni/5KFiwBhEPcUfzJtsxaokE0C/lRl7qZs9fyqkAQEAAwJeEXDfniRrK50v2jLgL1ibkgzuac0dzgMe5ViMjL3bPmn8vpwIAAQEA3xLyx1c8WW7oEpmeFqd8cEfzYnLAHc2Z9QBPFcl1GtJL3Q4Lb+dkACAgABBKQm585bbqZRdKenpzBWuJ9+CO5lP8M3c0X/UU7mgOXsqR38sNv9TNnn8n5wIAAQGA0BJy7eHbaHjoAsntREbAw+ubRwGb9J/anvXoikQCSJKukRvZD/kAQEAAoEkJufmQTTQ+/TyZ7dG6fBA0j1w+CJpDp7hSK7OD3XMvu4dTATA4sA0vQAy/BDz1xw8oX3aAZBdOXMxxR3PuaF5SIrmjOcTP+XIj+yIfAAgIALQlIduf95D+8oSDJffVSYs57mg+wcfjjubNSaRqfkaAx3u878j95TC22gUY0B6AUwAQH/anV3xQ5k56/BolaD7JQwTNCZpDat2bZKdq9qJ/ck45pwMAAQGAmEbpP77idXLuy8q1frMFawzyQdC8OxIJ8DgrZO7tbucF3+BUACAgABCrhPzhlc9Rpu/JtK3XopigeeTyQdAcOldt3Ca517jZC67gZAAAAgIQu4Rcd9jmyob+n2QvrVcMckdz7mjuox2RDyjNPPXs9W7XRXdzKgBAIoQOEP+vBM869149Y+QAyX1MUq9awUnQnKC5r3ZEPqAwJuc+reXLD0Q+AGCN2oZTAJDQaP6nV+6n3L4paatSBSdB8yn+maD5qqcQNAev1cU9yt3fuZ0X/IiTAQAICEDqEnLjwVtpfPirkg6sXrDGIB8EzbsjkQBrVBYXyGV/63a67A5OBgAgIABdkRCT0x9fcZxkp0qa2WzBKoLmXuSDoDl0jhUyfUTPXniGc3x5AAABAeimiPzhkO3khr4uaa9m5IOgOUFzgAn5jZy9xc1e9GtOBQD0gxA6QMq/IDzzxzfo1of2kendki2ZvG4kaB5EPgiaA4xJdoqWL38+8gEAhesXTgFAN7AbDn6qxoc+K+mQ5gtWVX8PgubrPk7QHJKoIOwSyb3DzV64mJMBAAgIwCCLyPWHHiZzn5X0ZILmAeSGoDnAHZL7kGYv+AZZDwBAQABgVTn5mwPW13rTPyrZ+yQNVSo4CZqLoDnAGozLuf/QtLGPuu2veIjTAQAICACsW1ped+gL5PR5Sbs1V7ASNC/1OEFzSIOL5bLj3ezLruFUAAACAgBTl5g2mukPV75RTh+X7CmtyYcX8SgiB7HPesQgH4gHFOYWmd7ndl54NqcCABAQACgnIovnTNPII2+R9AlJW/gvWAmaEzSHDnGf5E7TQ71PuxddvozTAQAICABUF5GbD9lEK/RBSf8gaQZBcx/iUeI9mPWAuFkq2We1fMVJ7nlXPcjpAAAEBAD8icj1Bz1JuT4qubdpwqB6zaKYoPm6jyMfEC+PyLn/1Hj+Sbfrors5HQCAgABAOBG59uW7yGX/JOm1fxURguZe34OgOcTLCpm+qGzkRDd7/p2cDgBAQACgORG55tDtNZR/QLI3S5pWqaAlaB6RfCAeMNXo7x6U7IsaH/+02/WKWzkhAICAAEB7InLD4VtqbPxYyU6QNKtZ+SBoTtAcAnOnzH1Bpk+5XRY8wOkAAAQEAOIRkesO21zqvVOy4yXbtF5BXLHwJmi+7uPMekA1rpbcGVq+7NvueVeNcToAAAEBgHhF5NrDN1S28q0yHStph3XrXYLm9Wc9kA8Ic/lK7nyZneF2XngBpwMAEBAASK+aue7le8vpXTK9UqYRguarPU7QHOLhAcnOkXOfdrMXLuZ0AAACAgDpi8g1B26tTG+W9A5JT65WEBM0Z9YDPI/oV0nui3qw9w1uHggACAgAdFNEFs+ZpuElr1Zux8rpxav6FILmBM2hQe6W3FeVZf/pdrr0ek4HACAgADBAMnLgM5TZG5XpDTI9o3DRTNB83ceZ9YCpWS6n82T2LbkHz3WzF6/klAAAAgIAgy0jvz9gdzm9WdIRkrYgaI58QG1ySZfL3DmaNvwt96z593JKAAABAQBYu1xePGeasgcPlLM5kl4jaea6tTRBc4LmMAXXSO7rytzX3U6X3cHpAAAEBACgqIxcfcgmmr7iMJleJXMHSlqPoHkR+UA8BoxcTlfI3A9k+f+4nRf9iVMCAAgIAEBdGbllz/W0dMP9pfxQSa+U9ITKYhBMPgiaQ2Msl2mB5H6kETvH7bDwdk4JACAgAAChZMTmDOkPD+yp3M2R7DWSPTGseJSQB2Y9IBwPSLpQcj/S9LHvu+2veIhTAgAICABA4zIymunaS3aTsgMlHSjpRZKG/ckHQXNobbTtSfqFcne+nLtA9wxd4fadP86JAQAEBAAgJiH5zQHrayTfU84Ok+xwSdsGlw+C5uCPGyS7UC67UD1d6HZZ8ACnBAAAAQGAlITkD/tvp15vf8ntL9OBkmYRNIeIeFimy+Xchcp1odtlwVWcEgAABAQAuiIjN+4zQ8v1QuXZPnK2j6Q9JM2oLA4EzaH8CLpMsl9ImqfcLtC903/BsioAAAQEAAZFSObtM6yt3K4yWzVDIttL0np9C39mPaA4S2S6QnILNaQFWm94gXva/OWcFgAABAQAQHb9QdM1tmIPOdtHue0jpxdIWp+gOZTgFpkulbRAmS7TTguvcY7GAwBAQAAAiijDvH2G9QQ9W9ILJdtD0gsk7SApKyUWtcQD+YiYlXL6reR+IdlCyV3mZi/4M6cFAAABAQDwJyXX7rWheiO7yuW7y7SXpJdI2jKMfCAeETEu6Q9ydpXy7Cplukozh69kORUAAAICANC8lFy993YaGtpdZrvIaRfJdtHq2/9O+EcEzSNmpaSrZbpKzq5SNnSVHnnkt+55V41xagAAEBAAgDil5Ff7bKzp+S6PS4npOZJmSzaTWY9oGJPcHyUtlvJrV/139nstX3YNsgEAgIAAAKQvJTZnSFff/gxlbic5t72Uby/ntpfpmZK2Rj6CsVzStZJ7VDLy38vya7Ri7I+IBgAAAgIAMJhysnifDaQV2yvPtpdslZg4PVOmbSVtRd87JeOSbpPpZjndJOkmmbtZWX6TetlNunbrm93cc3qcJgAABAQAAArJyexpchttrXzoSVLvyXLaRtJTZNkTJW0jZ0+VaUtJwx08/Eck3SPpTsnukdPdkv4sczcpz27SyNjNunPGrdzMDwAAAQEAgCYl5ew5Q5p9zxZSb1PJVvuPNpWyR//7sf+tTWXaRKvuAr+enGbIproBY20ekrRM0sOSHpT0iEzL5PTAo4Jxv5zukexOWXavMrtHrnenVs66x+16/sO0LgAAICAAAF2UmOsPmq5lS2ZqaHi6euMzpd40aWh9DfWG1Bvqv4RpOHtI4/mq51m+VNPdMrfDwiWcWQAAAAAAAAAAAAAAAAAAAAAAAAAAAAAAAAAAAAAAAAAAAAAAAAAAAAAAAAAAAAAAAAAAAAAAAAAAAAAAAAAAAAAAAAAAAAAAAAAAAAAAAAAAAAAAAAAAAAAAAAAAAAAAAAAAAAAAAAAAAAAAAAAAAAAAAAAAAAAAAAAAAAAAAAAAAAAAAAAAAAAAAAAAAAAAAAAAAAAAAAAAAAAAAAAAAAAAAAAAAAAAAAAAAAAAAAAAAAAAAAAAAAAAAAAAAAAAAAAAAAAAAAAAAAAAAAAAAAAAAAAAAAAAAAAAAAAAAAAAAAAAAAAAAAAAAAAAAAAAAAAAAAAAAAAAAAAAAAAAAAAAAAAAAAAAAAAAAAAAAAAAAAAAAAAAAAAAAAAAAAAAAAAAAAAAAAAAAAAAAAAAAAAAAAAAAAAAAAAAAAAAAAAAAAAAAAAAAAAAAAAAAAAAAAAAAAAAAAAAAAAAAAAAAAAAAAAAAAAAAACALuM4BQAAg9cnm1nxD+UaHSqMrwEAAIMdAABU7D8nKvQ/9rGPNdr3Ll682Ov7zZ49u3FJ+Jd/+RerIUVIDQAAAgIAEH8fuLo8VJWGKsX/nDlzpnz8mmuuSa7v3mmnnaaUgHPOOacRCVpdZApIDOICAICAAABU69OqyEQReVhbFtqUg9tvv32N9959992Dv+dVV131+P+/zTbbtFqwry05/aSmjMQ8Ji59pAVhAQBAQACgy31VWamYTChCScTtt9/ufEnAHXfc0Zn+euutt65dqF911VVehWd1eZlKXIpISwFZQVQAgEEdACC2vugxuegnFkWkoqpQlBWIOpKw00476c477xzoPnmrrbayR9sruNjUFZgiwjKVrCApAMCgDwAQoWBMJBePiUUVqSgqFEVFoo403H///fS/Bdh0000rF+JbbbWVFZWZIvJyxx13lP4s/USlhqQgKACAgAAA/Uldwag6a7H11lu7ukKx6aabFn6/EPLw4IMPOkl68pOfPLBfoFtuuUWStNFGG3kvrouKTBFp6ScrZWdXHpOUKoKCnAAAAgIASMYUgrG6ZBQVjKlmLfqJRRGpqCsTDz74oCsrDQ899FDtvnfrrbcO8rp1mTVrlk3QTt5fs4jM1BGZIsLST1amEpUykjKZoFSQE8QEABAQAEhfNOpKRlXB6CcXVcSiqEwULfQfkwQfYvDwww93or9ef/31axfBjwlJGbEpIjFVpWUqWakqKUWXe5WVE2ZNAAABAYBkRaOMZEy2RGoyweiXrSgjF0Wkop8gbL311qUlYiph2GKLLbw03tKlS6PuwzfYYAMvRe0999zjTWqKystUwlJFVKaSlPvvv998y4knMUFKAAABAQC/slFk6VRd0agiGUUFo59cTCUNRaViMpEoIxFFRWHzzTcvJTIpM5E03HvvvUHkZiKBKSots2bNsqlkZTJRKSMpbchJETGZIgSPmAAAAgIA1WRjolkNn6LhQzJmzZrlyshFkWVPExX1RYRiKpFYXR6qSsMjjzwy0H3yzJkzKxW2q8tEP4kpIi5rC0s/WZlKUkIKykRyUlVMJpoxKSElCAkAICAAyIYf2WhCNKaaxZhIIvrNXKxd/PcTi8mkoopQlBWI5cuXP/78jTbaiG/yX78Tj///M2bMKFXcFpWYx6RiKmGZSlbKSEpZQSkqJ3XFpF8QHikBAAQEACoLh0/ZmCz8XVU0ykpGGcGYSC4eE4siUlFEKB6TiLoCsbqMhJCSiV6/KmWloKhs+Hrtx16zyGv1E5Z+ojKZpJQRlIcfftiKyslDDz1USUwmC8OvLSY+pQQhAQAEBKAD12lR2ZCmzmzUkQ2forH++uvXkoyqgtFPLJYvX+6qFP9lZjSqCsGsWbOCiYVvVheAhx56KJjs1JkxKSorU4nKVJJSRFAmk5PJZk6qiEkdKSmyfKuCkCAlABQ2ADBIwuFLNibKZ1QVjaKSUVcwyshFEaEoIgCPSUNIWdhwww1bk5K1i/clS5YEfZ8iMjOVUJSZIVn9b6Z6/mSCUlZOqopJlaVcRaVkouVbU0lJkZA7QgJAoQMAEV2HE0lHGeGY6L4aawvHRJkNH7Ix2dKpqqIxmWT4EIx+S6emKuJnzZpVq8jfcMMNa0vCihUrkum/p0+fXquwnDFjhlWVmiLSMpFYlJWUqQSlrJxUFZOJlnKtLSZVpKRIpqSMkLBkCwAQEICWr70mhKPs7MZEy6h8yYYP0SgiGVMJxmTFfxWxKCMTVaRh9b/ZYIMNkv/iL126tJaUFP27stIyY8YMm0xS6gpKWTnxKSZFpGSq5VttCAmhdgAEBAACXGtFpKPOkqqywrH27EbRZVRlZGOqpVNVRaOsZJQRjCJiUUQoHntOUXkoIynrr79+9F/8hx9+2KtYPCYxRZ/f73lFRWWqmZTJBKWfnEz2nKlmTMpIyURCUmT5VtlZkjpCUiTUzuwIAAICABWur35Zjn6zHP2Eo+ySqn7C0W92w7dsVBWNOpLRTzCmEoEiUjHV3xcVh5UrVxbuo2fOnBnFl/6RRx4p/Nxp06YVLiQnE5l+glFEVqZ6vIygFJET32JSRErKzpKUEZIiMyS+Z0eQEQAEBABKSEeZpVVlZzl8C8dUsxtFl1FVlQ1fojEyMlJaMFasWOHKikU/oZhMJCaShjLSMdX7NSkkjzzySCmZKCMkkwlNv/ebSFgmE41+kjLZY0XkpIiYFFnOVVRKJlq+VXaWxKeQ9Au1T7XtLzICgIAAQIFryWzV+DeZeDQlHf0yHHWEY7LZjVCy0U80pprJKCsZZeRiIlFYu+gvKhPDw8OV+mIfshKaqmIyPj5uZV9/IlmZ6v3XlpQqgjLRv1cVk7KzJStWrKg0S+JbSCbLkPicHUFGABAQAFjr+plqtqOOdJRZWtVvlmOqDEeVGY6ywuFDNiab0ZhIHIpKRlHBWF0u+hX+RYSiqjxMNbMRg5BMVvCXWZpVVmKKzMBMJSoT/W0ROfEtJv2kpN9MyUTCUkVIplqytXaGpE6gHRkBoIACAI/S8Zh4xCYdZWY5fAuHD9mYbEajyHMnEo3VC/aigjGVXBQVgP/f3t3kpg4EQQAmSmTCAXP/YxAMUd4KadTqv2r3GHipWgYzyQIkf6pup9qUjNefTqeX+dL8/PzAN4BRs1GBiteq3N+L4gSBSQUl67r+WiCx0DELJBFGJEiQUS0PI9kxLUKEYQgQhvmT8PDQIR+XWx2v8tDhjVZ1jFXNAoc1RiURkWk1stCwbvq9/YkICkhLgiDier2qZz07Qs7ns4XL9I1gBi8IViykWDixzkZhgqDker26S/FjS4KAJDOy9WiMyJ0RtiIMQ4AwDOExwKOj7ajudGSbjo6W43g8ph6Ri4Aj225o4PCwgUDDajI8OERnZmAhMWFd+wr7HR2xQCDxEqHFg0oWKNYSvPZzrTHpQAnakngg8Ua2Mu1IF0aqOyOVVkQ+1pcQYRgChGFe7rtRHbOa0XZUx6tQdFRbDrTh0MAhYdKBDavRiJ5M5TUkFhpGXGjXVFBxOp3aMHK73Taf8/Hx0fK0K6sdQcEynuMhxQKKNXoVwURrTDIo6WhJrIYks0PyihjpaEUIEYYhQBjmT8Iju9vhtR2VEast6ND+/0YWHR4mZoFDw0YVGu/v728eMiQwECRYZ1tYOB6PuyJjNk4ulwv0HgQsKFDO53O64ZiNkmpDYoHE2x95BEa8p2l1tCKV8SxChGEIEIZ5WXggS+WV3Y5ZI1aV8SoLHZmWQ45UIeDQbvC1MSrv8bjaawg0MsiIGos7ECxUWIDQrrd2Q54lViMxAiQDkfv13jXorsiIE+3v1M5DUaKNb0Ug8RoSDRrVdmQPjFRaEWtXpBsibEQYhgBhmKf4DlR2PJDGYw94bG07ZqAj23JkGg4JDq/dyGKjAg0PGbfb7S2Li/G6CBOfn5/uB/lZMBLtanx/f0Pvl1jREBIBJcLJCIBOlFRAkh3ZyrQjnc2IXGCvQERihBBhGN58MQzh8UB4VJbKO9qOvdFhtRxbR6pQcCDY0M6wWowKMDRYZDEx/r5lWZ7ii7WuawiGLFwsrIzXRuNcl8ulBJMqShCQyJGtajtSxciMVqQyntUNkcyOCLisToQwDAHCMD2f++rjdMdxq8py+dbGA4FHZ9sR7XRkx6sidGRaDuu9Egtou2Fhw4NGhAwJDA8X93M9TCAjWlXYoFCQN/xWLAjc0RJhRf5uDSj3azyYeI1JBiUWSLR9kmVZfmdiJIKGfN16opbVivwvEPGemsX9EIYhQBhml897d+uRgYe3XN49alWBx7IspWXy8fXseFUVHVpDIpfBsw2HNkalNRsaNiJoWDf6HjC89iSDB2RRfXY8hGg37pkxq3VdTaBEMNEaEw0l3SDJtiMoRjJL7FErYkEEbUW2QKSyI5JZVp88lkWEMAwBwjB9+Pj6+jocDodwydxrPdBxK/lUq44dD3TUSoNHNGZltR3IiJUcr8qiY0vLId/rtRtbsGFBA2lO0CX1SmuyJV5bIcewvOstrGTHrLz2ZDzDQol1NgqSPTHS3Yog41kzGpHMU7P2bkOIEIYhQBim5XNeGbl6dOvhjVtllsu7G48KPNC2IzNeJdGBthxaw2GBI4ONDDQyyJBQ8M5FsNG9H4IAI7puPMtbMEdgYqGkGySdGInGtJBWxNoVeQREvGX1rWNZM9oQjmQxzD75B3iLg7YDznKyAAAAJXRFWHRkYXRlOmNyZWF0ZQAyMDIyLTExLTA3VDE2OjU0OjA3KzAwOjAw7UHgBAAAACV0RVh0ZGF0ZTptb2RpZnkAMjAyMi0xMS0wN1QxNjo1NDowNyswMDowMJwcWLgAAAAASUVORK5CYII=;" parent="1" vertex="1">
          <mxGeometry x="127.63999999999999" y="550" width="54.73" height="60" as="geometry" />
        </mxCell>
        <mxCell id="A_PxswtfMoNjopDG6Hut-80" value="" style="endArrow=classic;html=1;rounded=0;" parent="1" edge="1">
          <mxGeometry width="50" height="50" relative="1" as="geometry">
            <mxPoint x="190" y="910" as="sourcePoint" />
            <mxPoint x="340" y="910" as="targetPoint" />
          </mxGeometry>
        </mxCell>
        <mxCell id="A_PxswtfMoNjopDG6Hut-81" value="" style="endArrow=classic;html=1;rounded=0;" parent="1" edge="1">
          <mxGeometry width="50" height="50" relative="1" as="geometry">
            <mxPoint x="330" y="940" as="sourcePoint" />
            <mxPoint x="190" y="940" as="targetPoint" />
          </mxGeometry>
        </mxCell>
        <mxCell id="A_PxswtfMoNjopDG6Hut-82" value="" style="shape=image;aspect=fixed;image=data:image/png,iVBORw0KGgoAAAANSUhEUgAAASIAAACuCAMAAAClZfCTAAAAhFBMVEX///8AAADd3d319fWurq5ycnLh4eFISEiKior8/Py/v7/R0dGAgIDw8PDOzs7ExMScnJxnZ2eioqK0tLSoqKjm5uYzMzNYWFiTk5Pr6+teXl64uLhhYWE7OzvIyMhKSkofHx8WFhYNDQ0mJiaWlpaEhIR5eXlBQUEdHR0vLy9SUlI4ODiaUFcAAAAJgklEQVR4nO2da1v6PAzG1+EJEDkIoqiIB/w/6vf/fg9NNk5ubZOmdJfr/cJLTlv5sbRJmnZZ9pfVjd2AxmsWuwGN1+whdguars4wdgsar1HsBjReo0HsFjRdw17sFjRdg/PYLWi8/sVuQOM17sduQdM1XcduQdOV/xe7BU1XV13EbkLT9TyJ3YKma/0cuwVNV08lt9qsmXqM3YSm620RuwVN15NKmUazRmoZuwkN1436jN2EhmugXmM3oem6Uyl6NetcXcVuQsN1pu5iN6HhypVK82ZGdZRK0atZL+oydhMarrVK0atZPaVuY7eh2ZoplaJXs16V6sRuQ7M1Vyl6NetDpejVrKVK0atZD0ql6NWsL5WiV7POlXqP3YZma6pS9GpWX6Xo1axNeJ+iV7P+bRClymGTrlWKXs16VCl6NetiQ+gk0ess1/Iz6EHOEkwtw3+ckqnu24YQFOhf8E5fyJ6JGyuQ10z4VLEE/swI/mWsRVhsPoaVwy+80xeaWs90jm8c09u405kHIviqjKyq/lne8N+5F6Iz66kKRMqn2N0LURf+fyGeEjqiIno9FSKfjs8LUXYDD4iLWlZqF71eeiFyNjQvUwNE626HqPLjV3D+nHJG3eqv8oHpHLk+9KXpLfZeeIvIw9QAkUdG4kd/npIW0x6RW+UwGCTVio8EiNbAiG1qvoge4PTuC1se3C3zAq8iLwGiaU//feIewxdRdguMnOs4vzZvdlwHI4ZohEMvt9bUG1HhnTmO/Do0c41eBRF1fEzNHxG4yo5XxlC/1T5UowQR4YmZQaE/IsiNKXXv8M6BfuPc9biSiPAfnqkJIMrugZHDVMYl6XIXRYTXOsvUJBBBeky9Wb0UQOke0okhgvTvDekK3pcIooGTA9unuQfCiLI119REEGXgeFiyiBjQEQ4qjCh7Z5qaDKLC0TeO5t+OHdZW0ohypqkJIcr+08cxlb1OyCeSRoR9IT1hLoUIfiLDgeD1r9qXqySOKLsjOLk7SSEqUpA3dS+/6ldpSVx5RDP96Jt6DDFE2NfUZYnHpX9CkDwitHZX776UHCKMg6qdfDgLdReHAIgwV040NTlEGAdVZgJn9vGuQiEQgQdHzEEJIso+gURFscc75/oWzBftPXFLb4okIkTxu2Tok+eQBEGEqSOSqYkiQoO6PnoWXW+6WxsGUYdsaqKIionLwyphDOAY2fUwiPAXs8+d7CSLqJh8PLhinvUznF2bAiHC5whjhzAiHPn3vTOYRrInSioUClFGNDVhRMXk4+Toca3TbVIwRH2aqUkjKiYfy1ADryrerk3BEJEmGQIgwsnHVfHgu9oNcFI4RDBn7uzsyyPan3zE2JY0n72TGKLfnmJ+2BuYJY+omHzUozzOjXwwjxMQEaaOHE0tAKLt5CPOOrB3bQqJCLoDR1MLgQiz1JfZkyJ6IIcKimjmbmohEBUGhgkkcvS6VVBEmDpyWl8BiMbDHkGP9nALJx+PvUiiwiKC1JGTqXGq1Bzyq//K93oU0AVGNHA1tUCIBsVbfcowxRDVTHrAyOtgaoEQFV21V8FzaERQi+ow3gZCVB6WXRqWnQARREf2OYdiROtSZG/ZbIuTP6CFR4TZdqupBRn0oVyvEH/dYnhE8LJ156QgiDDPjzMi/NWvJ0DUdTG1EIiQzaQI1thbFYghMlTM3Dhc6AEQYY5Iz3hgsMa9p8cpEEHVkcXUAiBCtxE69Vf4l+k+ngQRTGyZcxHyiDD4wFQs1oswK/BPgyi3ujHiiDCELY+IOTXezWFOgwh+UqOpSSPCRMguPMQ1eay844kQQdWRqSRaGhFOpO1yRNh3v0adJLIgmllMTRgRTsfutwk9AM5yMDFEtlhap44MBXSyiOBbHU29oh/JWJN/MkTQG9SbmiyiFVjV0ZPvR7bnqtMhGhj7S1FEWFp8bNYY09I3kT0dIogDaiMlSURYJfM7kYeZEfKU7AkRwShTR0EQEWYaq0qtnva8SXedElHHYGqCiDDwqIo2cEKNGojQEHV7w/IrPl4vFtc4qgIilyCxV29qcoiuDJdKv/YCM4iGqFPmFNDcFVaCOSOCkLuagxgirJKpO9J9TTdlEhkRVBBqQqvxeIWM3BFltaYmhQi96PpkOVohKRDhISr7Ho2KhEj/xquqF6QQ4c4W9ZWo2JdXNqFOLET59tt86HVL56XFOei6ZtgVQgTTv8ZgCLsISs0jC9FyW07UWS4fSIjA8a1YDSaDKHf4/uhXEuYeuVfRz17MTEKkv0XFTf5kEL2q6qMfaGWxxWPx+iLtX9z3S0okRDCo/DY1EUSYo7bNQF5YevTK95MRoX+hXkaQtKchgtTRL1OTQPToOKJjh+WyoB/EQ5TNis3B1LhLRqTDyV97xAggwuJGF78Qhz3X9bFMRNrRvoL1i18FIkLko3/F4wUaAoigOU7RBTpPrrUQbETw8APGBioi2G3h6Df0R4S7A7k1A11wx707vBCB+a/piAa/Tc0b0VJRjoCBnFvlvBuiznAI48QAB6OzUTndAszIiCB1dMjaF5Et8DgWFK671UJYET0MsAFQoTPcbp9S2ElPjyB0RNBhHnzCF9E30dnBvt2pFsKGaIrR1x1clfkrRoB9tRejPXAQ6R/9bf8JT0Q4lUjZicO9FsKG6A57tWUxxhflXtA1/jwXbggDEcDdb58fIpfA41jOtRA2RNdFp4Zu2XYQ2O53qn84DiL40N5n/BBBU6j3LndNQVr7ol7hE3Zv15+jvTzL8OPzeoTfkYUIZpR3DwHRed4nChuEFwR1NhovPftoLpa7Jq+GuzkwDebuoIvdZ+n752MHZl09Ew8RpI62n2Ii0hPQOD/G2VjKrRYiIiLISpRBgAcirPnk1FdhCtJWCyGBaMxEpDuD0tSY+13PyxQZa9VrUQthuQChz4p1J1Ad4qVbbpn1rTw3W//76ire7gJtUj+ZmlWjZGpWzT3va9AC6e6IW1ffFvWTqVk1SqZm1dxv7Wob1GWGWG1SnkzNqkkyNasWydRs6r55rRNvhfJkalZNkqlZtUj3lbRp0x1x79bTGuXJ1KyaJFOzapFMzaZNd5RMzaKcd7eeVmma7rlt1RP9FiJtU9dne8GWKE+mZtU0mZpVC89ClTbIZ/u8lugimZpV05/YLWi+5pRbiLRU/A28W6M8mZpVE97WcK3SnL8pbGvE3IWxTcq59+1okSa0e5e2UuLbX/89dZIDaVXOvNFSm7RMdaJWUW7q3lJ1/8a82v/itlwBGdYyKgAAAABJRU5ErkJggg==;" parent="1" vertex="1">
          <mxGeometry x="600" y="670" width="116.67" height="70" as="geometry" />
        </mxCell>
        <mxCell id="A_PxswtfMoNjopDG6Hut-83" value="" style="endArrow=classic;startArrow=classic;html=1;rounded=0;exitX=0.443;exitY=-0.01;exitDx=0;exitDy=0;exitPerimeter=0;" parent="1" source="A_PxswtfMoNjopDG6Hut-82" edge="1">
          <mxGeometry width="50" height="50" relative="1" as="geometry">
            <mxPoint x="600" y="660" as="sourcePoint" />
            <mxPoint x="480" y="580" as="targetPoint" />
            <Array as="points">
              <mxPoint x="650" y="580" />
            </Array>
          </mxGeometry>
        </mxCell>
        <mxCell id="A_PxswtfMoNjopDG6Hut-85" value="Socket" style="text;html=1;align=center;verticalAlign=middle;whiteSpace=wrap;rounded=0;" parent="1" vertex="1">
          <mxGeometry x="560" y="550" width="60" height="30" as="geometry" />
        </mxCell>
        <mxCell id="A_PxswtfMoNjopDG6Hut-91" value="OAuth2 Secure" style="text;html=1;align=center;verticalAlign=middle;whiteSpace=wrap;rounded=0;" parent="1" vertex="1">
          <mxGeometry x="350" y="710" width="65" height="30" as="geometry" />
        </mxCell>
        <mxCell id="A_PxswtfMoNjopDG6Hut-92" value="" style="endArrow=classic;html=1;rounded=0;entryX=0;entryY=0.5;entryDx=0;entryDy=0;" parent="1" target="A_PxswtfMoNjopDG6Hut-3" edge="1">
          <mxGeometry width="50" height="50" relative="1" as="geometry">
            <mxPoint x="190" y="580" as="sourcePoint" />
            <mxPoint x="240" y="510" as="targetPoint" />
          </mxGeometry>
        </mxCell>
        <mxCell id="A_PxswtfMoNjopDG6Hut-93" value="Write data" style="text;html=1;align=center;verticalAlign=middle;whiteSpace=wrap;rounded=0;" parent="1" vertex="1">
          <mxGeometry x="270" y="550" width="60" height="30" as="geometry" />
        </mxCell>
        <mxCell id="A_PxswtfMoNjopDG6Hut-99" value="Request&amp;nbsp;&lt;div&gt;write token&lt;/div&gt;" style="text;html=1;align=center;verticalAlign=middle;whiteSpace=wrap;rounded=0;" parent="1" vertex="1">
          <mxGeometry x="170" y="670" width="80" height="30" as="geometry" />
        </mxCell>
        <mxCell id="A_PxswtfMoNjopDG6Hut-100" value="" style="endArrow=classic;html=1;rounded=0;entryX=1;entryY=0.5;entryDx=0;entryDy=0;" parent="1" target="A_PxswtfMoNjopDG6Hut-82" edge="1">
          <mxGeometry width="50" height="50" relative="1" as="geometry">
            <mxPoint x="410" y="910" as="sourcePoint" />
            <mxPoint x="540" y="950" as="targetPoint" />
            <Array as="points">
              <mxPoint x="800" y="910" />
              <mxPoint x="800" y="705" />
            </Array>
          </mxGeometry>
        </mxCell>
        <mxCell id="A_PxswtfMoNjopDG6Hut-104" value="" style="endArrow=classic;html=1;rounded=0;exitX=0.75;exitY=1;exitDx=0;exitDy=0;" parent="1" edge="1">
          <mxGeometry width="50" height="50" relative="1" as="geometry">
            <mxPoint x="168.6875" y="620" as="sourcePoint" />
            <mxPoint x="170" y="750" as="targetPoint" />
          </mxGeometry>
        </mxCell>
        <mxCell id="A_PxswtfMoNjopDG6Hut-105" value="" style="endArrow=classic;html=1;rounded=0;entryX=0.25;entryY=1;entryDx=0;entryDy=0;" parent="1" edge="1">
          <mxGeometry width="50" height="50" relative="1" as="geometry">
            <mxPoint x="141" y="750" as="sourcePoint" />
            <mxPoint x="141.3225" y="620" as="targetPoint" />
          </mxGeometry>
        </mxCell>
        <mxCell id="A_PxswtfMoNjopDG6Hut-106" value="Write token" style="text;html=1;align=center;verticalAlign=middle;whiteSpace=wrap;rounded=0;" parent="1" vertex="1">
          <mxGeometry x="80" y="670" width="60" height="30" as="geometry" />
        </mxCell>
        <mxCell id="A_PxswtfMoNjopDG6Hut-107" value="" style="endArrow=classic;html=1;rounded=0;" parent="1" edge="1">
          <mxGeometry width="50" height="50" relative="1" as="geometry">
            <mxPoint x="197.64" y="760" as="sourcePoint" />
            <mxPoint x="417.64" y="610" as="targetPoint" />
          </mxGeometry>
        </mxCell>
        <mxCell id="A_PxswtfMoNjopDG6Hut-110" value="" style="endArrow=classic;html=1;rounded=0;" parent="1" edge="1">
          <mxGeometry width="50" height="50" relative="1" as="geometry">
            <mxPoint x="437.64" y="620" as="sourcePoint" />
            <mxPoint x="217.64" y="770" as="targetPoint" />
          </mxGeometry>
        </mxCell>
        <mxCell id="A_PxswtfMoNjopDG6Hut-112" value="" style="endArrow=classic;startArrow=classic;html=1;rounded=0;" parent="1" edge="1">
          <mxGeometry width="50" height="50" relative="1" as="geometry">
            <mxPoint x="115" y="779.5" as="sourcePoint" />
            <mxPoint x="5" y="779.83" as="targetPoint" />
          </mxGeometry>
        </mxCell>
        <mxCell id="A_PxswtfMoNjopDG6Hut-113" value="PostgreSQL&#xa;instance" style="sketch=0;outlineConnect=0;fontColor=#232F3E;gradientColor=none;strokeColor=#232F3E;fillColor=#ffffff;dashed=0;verticalLabelPosition=bottom;verticalAlign=top;align=center;html=1;fontSize=12;fontStyle=0;aspect=fixed;shape=mxgraph.aws4.resourceIcon;resIcon=mxgraph.aws4.postgresql_instance;" parent="1" vertex="1">
          <mxGeometry x="-60" y="750" width="60" height="60" as="geometry" />
        </mxCell>
        <mxCell id="A_PxswtfMoNjopDG6Hut-118" value="" style="shape=image;aspect=fixed;image=data:image/png,iVBORw0KGgoAAAANSUhEUgAAA+gAAAPoCAYAAABNo9TkAAAABGdBTUEAALGPC/xhBQAAAAFzUkdCAK7OHOkAAAAgY0hSTQAAeiYAAICEAAD6AAAAgOgAAHUwAADqYAAAOpgAABdwnLpRPAAAAAZiS0dEAP8A/wD/oL2nkwAAgABJREFUeNrs/XmYHOdh3/v+3qrqbXbMip0ACAIEwR0iwU0WtNqUREoiOfGi68RxHOZkcXJzTk7Oc5MbH9zrm5wk13l8Esc3iWwnsnUkWxptJiVR1ApS3EAS3ACCJPZ9mX3trare9/7RA5AgsXQPZunu+X6eB7Y481Z31VvVPfWrd5MAAAAAAAAAAAAAAAAAAAAAAAAAAAAAAAAAAAAAAAAAAAAAAAAAAAAAAAAAAAAAAAAAAAAAAAAAAAAAAAAAAAAAAAAAAAAAAAAAAAAAAAAAAAAAAAAAAAAAAAAAAAAAAAAAAAAAAAAAAAAAAAAAAAAAAAAAAAAAAAAAAAAAAAAAAAAAAAAAAAAAAAAAAAAAAAAAAAAAAAAAAAAAAAAAAAAAAAAAAAAAAAAAAAAAAAAAAAAAAAAAAAAAAAAAAAAAAAAAAAAAAAAAAAAAAAAAAAAAAAAAAAAAAAAAAAAAAAAAAAAAAAAAAAAAAAAAAAAAAAAAAAAAAAAAAAAAAAAAAAAAAAAAAAAAAAAAAAAAAAAAAAAAAAAAAAAAAAAAAAAAAAAAAAAAAAAAAAAAAAAAAAAAAAAAAAAAAAAAAAAAAAAAAAAAAAAAAAAAAAAAAAAAAAAAAAAAAAAAAAAAAAAAAAAAAAAAAAAAAAAAAAAAAAAAAAAAAAAAAAAAAAAAAAAAAAAAAAAAAAAAAAAAAAAAAAAAAAAAAAAAAAAAAAAAAAAAAAAAAAAAAAAAAAAAAAAAAAAAAAAAAAAAAAAAAAAAAAAAAAAAAAAAAAAAAAAAAAAAAAAAAAAAAAAAAAAAAAAAAAAAAAAAAAAAAAAAAAAAAAAAAAAAAAAAAAAAAAAAAAAAAAAAAAAAAAAAAAAAAAAAAAAAAAAAAAAAAAAAAAAAAAAAAAAAAAAAAAAAAAAAAAAAAAAAAAAAAAAAAAAAAAAAAAAAAAAAAAAAAAAAAAAAAAAAAAAAAAAAAAAAAAAAAAAAAAAAAAAAAAAAAAAAAAAAAAAAAAAAAAAAAAAAAAAAAAAAAAAAAAAAAAAAAAAAAAAAAAAAAAAAAAAAAAAAAAAAAAAAAAAAAAAAAAAAAAAAAAAAAAAAAAAAAAAAAAAAAAAAAAAAAAAAAAAAAAAAAAAAAAAAAAAAAAAAAAAAAAAAAAAAAAAAAAAAAAAAAAAAAAAAAAAAAAAAAAAAAAAAAAAAAAAAAAAAAAAAAAAAAAAAAAAAAAAAAAAAAAAAAAAAAAAAAAAAAAAAAAAAAAAAAAAAAAAAAAAAAAAAAAAAAAAAAAAAAAAAAAAAAAAAAAAAAAAAAAAAAAAAAAAAAAAAAAAAAAAAAAAAAAAAAAAAAAAAAAAAAAAAAAAAAAAAAAAAAAAAAAAAAAAAAAAAAAAAAAAAAAAAAAAAAAAAAAAAAAAAAAAAAAAAAAAAAAAAAAAAAAAAAAAAAAAAAAAAAAAAAAAAAAAAAAAAAAAAAAAAAAAAAAAAAAAAAAAAAAAAAAAAAAAAAAAAAAAAAAAAAAAAAAAAAAAAAAAAAAAAAAAAAAAAAAAAAAAAAAAAAAAAAAAAAAAAAAAAAAAAAAAAAAAAAAAAAAAAAAAAAAAAAAAAAAAAAAAAAAAAAAAAAAAAAAAAAAAAAAAAAAAAAAAAAAAAAAAAAAAAAAAAAAAAAAAAAAAAAAAAAAAAAAAAAAAAAAAAAAAAAAAAAAAAAAAAAAAAAAAAAAAAAAAAAAAAAAAAAAAAAAAAAAAAAAAAAAAAAAAAAAAAAAAAAAAAAAAAAAAAAAAAAAAAAAAAAAAAAAAAAAAAAAAAAAAAAAAAAAAAAAAAAAAAAAAAAAAAAAAAAAAAAAAAAAAAAAAAAAAAAAAAAAAAAAAAAAAAAAAAAAAAAAAAAAAAAAAAAAAAAAAAAAAAAAAAAAAAAAAAAAAAAAAAAAAAAAAAAAAAAAAAAAAAAAAAAAAAAAAAAAAAAAAAAAAAAAAAAAAAAAAAAAAAAAAAAAAAAAAAAAAAAAAAAAAAAAAAAAAAAAAAAAAAAAAAAAAAAAAAAAAAAAAAAAAAAAAAAAAAAAAAAAAAAAAAAAAAAAAAAAAAAAAAAAAAAAAAAAAAAAAAAAAAAAAAAAAAAAAAAAAAAAAAAAAAAAAAAAAAAAAAAAAAAAAAAAAAAAAAAAAAAAAAAAAAAAAAAAAAAAAAAAAAAAAAAAAAAAAAAAAAAAAAAAAAAAAAAAAAAAAAAAAAAAAAAAAAAAAAAAAAAAAAAAAAAAAAAAAAAAAAAAAAAAAAAAAAAAAAAAAAAAAAAAAAAAAAAAAAAAAAAAAAAAAAAAAAAAAAAAAAAAAAAAAAAAAAAAAAAAAAAAAAAAAAAAAAAAAAAAAAAAAAAAAAAAAAAAAAAAAAAAAAAAAAAAAAAAAAAAAAAAAAAAAAAAAAAAAAAAAAAAAAAAAAAAAAAAAAAABqnqEKAACYH1t6e1sTBX1EcrdTG5VzTq/ufPybf01NAADqVUAVAAAwP7yi3+Js+DljzG9TG5Uz0v+QREAHANQtjyoAAAAAAGDhEdABAAAAAKgCBHQAAAAAAKoAAR0AAAAAgCpAQAcAAAAAoAoQ0AEAAAAAqAIEdAAAAAAAqgABHQAAAACAKhBQBQAAVB8XJGSbl8gFiTo+SCdvalxebpITDgCACOgAAFQl29yuyfseVNSxtG6P0YRFNby6Q+m9OznhAACIgA4AQFVyQaCovUdR18q6PUYTFmQbmjnZAABMYww6AAAAAABVgIAOAAAAAEAVIKADAAAAAFAFCOgAAAAAAFQBAjoAAAAAAFWAgA4AAAAAQBUgoAMAAAAAUAUI6AAAAAAAVAECOgAAAAAAVYCADgAAAABAFSCgAwAAAABQBQjoAAAAAABUAQI6AAAAAABVgIAOAAAAAEAVIKADAAAAAFAFCOgAAAAAAFQBAjoAAAAAAFWAgA4AAAAAQBUgoAMAAAAAUAUI6AAAAAAAVAECOgAAAAAAVYCADgAAAABAFSCgAwAAAABQBQjoAAAAAABUAQI6AAAAAABVgIAOAAAAAEAVIKADAAAAAFAFCOgAAAAAAFQBAjoAAAAAAFWAgA4AAAAAQBUgoAMAAAAAUAUI6AAAAAAAVAECOgAAAAAAVYCADgAAAABAFSCgAwAAAABQBQjoAAAAAABUAQI6AAAAAABVgIAOAAAAAEAVIKADAAAAAFAFCOgAAAAAAFQBAjoAAAAAAFWAgA4AAAAAQBUgoAMAAAAAUAUI6AAAAAAAVAECOgAAAAAAVYCADgAAAABAFSCgAwAAAABQBQjoAAAAAABUAQI6AAAAAABVgIAOAAAAAEAVIKADAAAAAFAFCOgAAAAAAFSBgCoAgLmz5dFHE6n+sdXOReupDVgXdklaQU0AAICLIaADwFw6NNLgGuxHnDN/j8qAZ5R0hoAOAAAujoAOAHPIb44CF/rLZXQntQHnyi9r4lj+2JAUJOu2PkxUlMlPcWGgrt3zwEN3OOOtMZF98bkffPsoNQLgcgjoAABUIW9yVI0v/kgula7fg7RW/kg/Jxt1654HHrrDyfunzukW53vPbf18739dndBrfX19MbUD4GII6AAAVCFTzCtx6iAVAdSouz7/a2tsFP5NSZ+WUatkVprYLj8em/+85YEHntr1+ONZagnA+zGLOwAAADCL7vn0Q9eYOP57MuaRUjiXJNdiZD4uuf8jqdSjWx/89R5qCsD7EdABAACAWfKJ3t5W53tfsNIXJS197++clJLMLU7ufzYu/L2tn+u9obe316fWAJxDQAcAAABmwZZP9LZO5syvO2f+vuQus2KDWeWk35B1/+Z4zn1427bfquPJJgBUgoAOAAAAXKUtjz6aSGbsR2Xso8649eYK99lGajPSpyT9QaF56otbPtHbSi0CIKADAAAAV2HLli2J4OzQJ630v0nabMq/x87I6FYn/e+JjPvnWx749U5qE1jcCOgAAADAVUgsu+Ym48zfMzK3S0pWuLkvuVVy+p+SCv/TPZ///LXavp17dGCRYpk1AKgSzg9UaGhWXM/rXktKZKeUzI5fuoDvK2rrlksk67oe/IlReVNjl/y99RMqNLfJBnX8p9o5JbOTSuQm+QJAzbrzC7+6QVH0D+T0CVUezt9l1O6kz1vrt299Zfc/X93b+ybrpQOLDwEdAKpEMdOoUzfeo7Hl19b1cfa887KWvfm8jHMX/b1NN2ryIw8p6lpZ1/XQsPOHanjtqUv+vtDUqqNbPqFcW1fd1oEXhVq29wV173+VLwDUpLt/ubfdhtFDMuZXJTXMwktmjDMfddLXjk+av9fb2/sCIR1YXAjoAFAlnPEUpRpUaKzveYLiRFqSkXTxgC7jyTa2KG5pr+/zncpc/veepzDTVNfXgx8WFQcpPvyoSdu2bQvyKbdN1vxjSU2z+NJJI21SYP/HsYL5h729vT8jpAOLB+NbAAAAgArlm3puds78I2MuXOt8lngyutY495cncu6LrJUOLB4EdAAAAKAC93zqC93GRJ8zch9WqUvQ7HPyJHU4oz8+mnNfnLP3AVBVCOgAAABAmbZt2xbYdHCXk/ldzc9w0SbP6L9uffBvfJHaB+ofAR0AAAAoU35Jz3Vy7u9LWlLJdrapTS4143nkMsbZP9v6wCP/lTMA1DcCOgAAAFCGLb29ra4Yf1rSL1eyXbRig7Kf+h3lPvw3ZNt6Zvr2SSP9XUI6UN8I6AAAAEAZ/Jy3xnj6m6pgPLht7Vbxlo8pXnatwo1blfvoFxV3r5npLnhG+p27Hnz4v0jbuY8H6hAfbAAAAOAK7vzCFzp8E31O0s3lbuMSKRVv+iWFqzef/1m0/DrlPv43FV2zWfJnNITdlzO/vfWzu/81s7sD9YeADgAAAFye8cPgWifzD8rfwihcv0Xh2ls+EMTj9mXKfeQ3FK7eLBckZrI/SWPMPzxRdF/csuXRRHVXHYBKENABAACAy/jw/b2d1tMjksoeQB53rFC47lbZls6L/t42tyv3yd9WcdO9M508rtla/cfE8pEv3n///SnOElAfCOgAAADApZmCHy2Xc4+Uu4FLphWuu1XxiusuXy6RVOHuLyjccKdcukkylS11bqQ2yf3BSND069u2bQuqsvYAVISADgAAAFzC1vu/2Gyc/wkjrS1rA2MUL12naPUNcon0FYu7RFL5u7+g4g33yja0VhzSJXXIud8PGzvvprs7UPsI6AAAAMDFmThRXCZPf7vcDVymWdHqzYo7V5X9JqWQ/nkVbv+UbFN7xSHdGS2PPP2X5PKRe7Sd2d2BWsYHGAAAALiIbdt+KxVY3WqkzWVtYIyiZesVrb5hRjO0F2/+qAq3frzikG5K9/SbrNwf3L1r94bthHSgZvHhBQAAAC5iqmGqTUZfLLe8zbQoWrFB8ZKlM37PqwnpRrrRSf/+Jy+9sYazB9QmAjoAAADwPr29vb4ve42T+3hZGxijuGeN4hUbrvq93w3pSyrt7p6WzH2R5/2jD9/f28VZBGoPAR0AAAB4n0MjapJnHjJSWWuguVSD4u5rFLfOTi4u3vxRFW75+EyWYFsi6dejhPudrfd/sYUzCdQWAjoAAADwPl5jsUVGnyy3fNyxQvHKjTMae34p4Q33qbjhzpmE9KXO6be9IP+ZG3p7k5xNoHYQ0AEAAID32LZtWxDEiQ2SbiunvAsSsh0rFHcsn9X9cImkCnd9XsWNW+WSmUo3X+vk/cOmSFs4o0DtIKADAAAA79XVlbae+eVyi7vmDkVL15W17nmlzoX0cP0WyfMr2dSX3G1eZP/RvZ/tXc1JBWoDAR0AAAB4j7BQaDHOlRfQjVHc1q24e+4ysEskVfjQ/QrX3FRpSG+QzMdiz/32fZ/5jSWcWaD6EdABAACAab29vb5TsF7SzeWUd8mM4s5Vsq3dc7pftrld+fseUbR8faWbLpXTr8Ze/v5t27YFAlDVCOgAAADAtIGBxoRzZlu55W3TEtmu+elBbps7VLjj04o7V1a66XVO3m/l2rpu4QwD1Y2ADgAAAEzLZcKklT5ebnnX3K64a9W87V+0bL0Kd3xatrm9ks18SVuNdb9z92d7V3CWgepFQAcAAABKjG9ySyRTXvf2REpxW49s0zwO7zaewmtuUvGmj8qlGyvZssU5fUrGfXbbtt9KC0BVIqADAAAAknp7ez3nJ24yUls55V1Tm+Lua+Z/R/1AxU13q7jhzorWXTfSNc6YR/ItWZZeA6oUAR0AAACQ9KbkO8X3lVveNrTKVj4efFa4VIOKN/6SolXXV7KZL6c7jVzvloceWsYZB6oPAR0AAACQlMnnAzn34bIKe75c05JKx4LPHmNkW7tUuOXjipdUkrVdi7O6P1n0Psms7kD1IaADAAAAkprV1CBjbiynrEtlFLd2ywXJhdthz1fcs1bFmz4il6xgWLlx11pPD0w1d2zkrAPVhYAOAAAASKbgonWSWsop7NLNsh3LF3ynXSKpaN2tCjfeVclmvnH6sO/MZ+598MFmTj1QPQjoAAAAWPR6e3s9J1t2ynXpBtnW7irYcyPb0KziDfcoXra+kg17ZPRAbJNMGAdUEQI6AAAAFr2BgQHjjD5UbnmXzMi2dFTHzhtPtm2pCjd/VC5TUYP4rTJ6kLXRgepBQAcAAMCiN7Fhg5FMWU3QLpFS3Nopl0hVzf67IKFoxXUqbtxayWZNku6Xrzu5AoDqQEAHAADAojd2/LgnaVM5ZV2qWrq3v2+/0o0K129R3LOmks3Wudh+bOv9D62sugMCFiECOgAAABa9Hte0xkhtZRUOknKNbdV3EMaTbV+q4qZ75ZKZcrdKOmM+aQJzD8uuAQuPgA4AAIBFL/Ljsqdkd8m0bNOSqjwOl0gpWnm9wmtvLXsbI61zxnwmbOm6lisBWFgEdAAAAMD3bi+3qEumZVs6q/RAjGzzEoXXbqlkEruEce6XrNUNXAjAwiKgAwAAYLEzxqn8mcz9hFy6oXqPxvMVd61WeN0dlWy1Up4+wlh0YIE/vlQBAAAAUOYEccm04tYuyVT3bbTLNCpavVlx1+oytzCBs/azfsK/hUsBWDgEdAAAACx6Tqa8JnHjSUGy+g/IeIo7liu89rYKtjHXxNZ+klZ0YOEQ0AEAALDoGbkt5ZRzyYxsW/UtsXapfY2Wr1fcfU25mwTGmF/yAp/J4oAFQkAHAAAApMaySnlG8hO1cUTGyLYvV7ju1kq22mydvfHu3t5MbRwkUF8I6AAAAEC5/IRsprFmdtclM4qXXVtJK3pSnh5QwV7PyQbmHwEdAAAAi9rdn3nk7nLLOj8hl2mpnYMzRnHnSoXrKpj7zZq7nLxVXBnA/COgAwAAYFGzsqmyCxtJxtTU8blkWnH3GsXty8s7RKMWOfdxJosD5h8BHQAAAKhrpbHo0arry99A5k7P95fXc60A1YiADgAAAJTJpRrKbomuJraxVXH3GrlUuePn7VYnd92WLVtqZEY8oD4Q0AEAALCoGc+/poLSNdfF/RzbsULRyg3lHqeR0dag+5oerhBg/hDQAQAAsLgZt2YxHGbc1q24Z20lFbPVJcxSLhBg/hDQAQAAgMXADxS3L1fcsaLMDdydgcz6LY8+Sjd3YJ4Q0AEAAIBFwrZ2yXauKLu8c+6W4MyZdmoOmB8EdAAAAGCRsG3dirrXSF55McDJ3OXHmS5qDpgfBHQAAABgEbGtXZXMRH+jNXGnSivAA5hjAVUAYK5seeCBTs8mWgLfX7QPA+PYtjmjDu5qgNlgWu5+sHf9Yq+F2I9GXvzOd4a4HjBTtrVLtn2Z/MET5RTvNMZcu+WBB17c9fjjWWoPmFsEdABzJqnU/yZPv+Oca1usdeDR4ADMIvewc3p4sdeCF3n/WtK/kuS4JmaJMaHc4qlO19gm29JV6uZubRn1o5sUJH4giYAOzDECOgBUCWOtErlJpSeG6/o4g0JOl80VzsqfGJFNNdR1PXj57BWuh1jJ7LjiRLJ+6yAKFYR5PvxYeLE7UvbzVOdK/2p0LXRJcomU4iU9so1t8sr4m2OdWx8UTRMXCjD3COgAUCWS+Ukt3/uCug+8WtfHmchNyVympcrLTanp6e/K1nEwlSR/cvSyv09Njmv1rp/KBnX8p9o5JbOTfPhRBZeiPWVMmaOxbCxTyMqlG2v6mG1zu2xLZ1kB3UgbJNfMlQLMPQI6AFQJE8dKTYwotdgrwsbyh8/IX+TV4MWhMmODfDCAKmOigrypUcU1HtBd0xK55rJXT7vOk9e5fft2b/v27Xa292XLlkcTWjJyvttUc1NopoqJdNLTRZ/URl5QyHi5wsRk4vzT3uZoYGrHjh0RVyhqHQEdAAAAi5qTFy22GUNcukm2obXUVb+M8fdWbt2ON99skFRptxdz74MPNoW+n1QUtBhnAyPX7Bn51nmNRvKlkRYnu/bcBvk4SPiB7Y5kOi/6gjYcyCvoT6Tt+UBeMB2H7v7sIxNOij1jp6xTbDx/3LMq2lCTalHu+b6+vJi7AVWOgA4AAIBFLbD+KevF5RW2VoqKNX/MLpGSbWyRS6RkimXMBWHcKuWDtC4T0O/u7c1oXBmbsB1GQbOTbfCMa7PWrDFyS4xxGyWTkcx6a0xazq12RulSZn7fIxJnLj0tgNH0Ju+WcDr/ErlY3jFjVHDO7o89M6ykjriCO7P1sw+fMb6GFNlxY4JxzyuMP/vYYxN8AlBV30dUAQAAABaz5574+qG7HnikrLImKsqbHFXcU/vH7Rrb5BrbZIpnrlxW3trQRRfM3nnvgw82hy7V6RR3+latLufWKOl6jHSTFK81Uo+TrpFxMu9vt3ZurlZWzxhp4/TZuvlce7lxpvR+VnvlBQed3GFrU4fueuCRfbHsoJE/mDCFQQI7FhoBHQAAAJDLSubKy0dYK1MHLeiS5BpaZBta5I1cOaAbY5ZaT613ff7X1siFPcaaLuu03pPb7ORvlufWSequgentb5DcDZLkSk8NJjz5e4zcm9Yl37z7gUcOyJl+SSdTkwNnGdeO+UZABwAAAGSOSLrhisXiUMrVx+oDLpGWEukyC7t1Vvp1z4YdTt5mK7fZSK2SjKntYd3NRu5uSXdPL6A3JuP2GOmlYkvHK3d97uH9vkscT4yf6SesYz4Q0AEAAACZI+daVi9bKirKy47WxRG7TLNspuzlza8xTv8PNz0AvE4n1TNGapN0n6T7rDNTzpldkaJX4paO1+763MNvp23y4I7H/5IlNjBnCOgAqsJk10qF6Ya6Psbk1Lgahy/djdAlkoo6lss2ttR1Pfij/QqGzupSE+laP9BUx3JFqXRd10NmdFDpy6w/7JJphT2r5JKZ+q0EZxUMn5E/eul73SiVUXZJt+JEfS9A2DR4UoncVF0fYw1ckEfKKWWiUKZeWtBTGblUff/tvUqNRu6XJP2SnBl3Ti/nVXz+zgceftk4vZmZbD6+Y8eX84u+ljCrCOgAqsKZjR/SZNeKuj7GJcfeuWxAt5km5W+6R4VrNtV1PTS8/rSC4f5LLusTJ1M6fcNWZZd013U9LHvz+csG9LipTdkPfVJRx7K6rQMTFdWw66fKXCagF5radGrzPcq3tNdtPUjSuue/T0BfWE5GR8vqqR1H8rLjMlFRLkjW9kEHSSlIcPbL02Kkj0nmI57cceeZpwvNk8/d9dlffSnM24O7ftI3RhVhNhDQAVSFYmOL8s31fQMeZhovX8DzFTe2KK7zYGozTe8ukXMRzniL4nqIr9Qy7vuKW9rr+nowYeGKrXfWD1Roaq3/66HGg15dcN4RyZZXNirK5Cbkmjtq/7D9QPIDKWZ4dZl8yawxTmuc9CvOxC8lG/TsXQ8+9LQLM7t3PvHVcaoIV4OADgAAgEXPKH6j3JHVppiXNz4kWw8BPdUol8zI5FhdbAa6jfQZOd1r5H1CQf5ndz340A4X5nbvfOIJgjpmhIAOAACARW8gyh7u9BvHZNR6pbKmkJU3elZasaH2DzxIyPlBVU76FidSiqZ7GxlnFRTz8qpwiTtXmljuY07mds+Zj7lE4w/ueODhH06lvf17+/rqY00+zN9HkioAAADAYte6apXV6eF3JN15pbKmmJM3xkTelXDGKE5mFE3/i5NpxUFKUSojZ3xFqYzs+4Z6lH5fmjDU2OmAHocXlAmKOflhQXJWidykvDhUopCVFxWUmhqTsfG8HaOR2pz0MVlt8o25syWvJ+79bO/Plmd0sq+vL174s4BaQEAHAADAote8b5/LN3e+oXICeliQNzksxbHk+1Te+1g/oWJDaS6RMNOiKNWgYrpZcTKtKJFSnEgrTqRkg6SiZFrOeIqTaVm/8gnr/DAvPyxKckrkp+TZSEEhJy8uKpGdUKKYVVDIKTU5rGR2XMnsuIJidk6P3xgtk/SQjG6N5e49nte3t97/xWcZn45yENABAACw6HV1dbnjObdTRr9zxcLWyuQm5eXGZZuWLPq6CzPNyjd3KN/SoUJDq8JMs8JUk4oNLQpTjaWu6nO0nFsp7Jda2YsNHxyd4EdF+WFBidy4ErkpJQpTSk2VwnpmfFCZ0bMKirm52LVAzm2QtErSzSbI//jeBx/+bmK8eQ9Ls+HyFw4AAACwyPX19dmtDz78onFlThSXn5I3enZRBvQ4kVa2rUe51i7lm7tUaGxVsaFFxenW8jiRqp59DZKKg6SKmebzP/OjgoJCVsnsuFKTI0pPDath+Iwy4wPKjPXP9i5kJN0pmeus09355snv3vG5z333M7fddnL79u22aioKVYOADgAAAEjOK3gnXMINy+iK6/qZ/KT84dOKVl6/KConTDdpqmOlJjtWKN/coUJjm4qZZoWZFlm/tiJFHKQUBykVGpdoousa+WFeqamxUqv6WL8ah0+qafiU0uMDs/m2S5z0MUnX+jZx35O7dn936/1f/D7d3vF+BHQAAABAklqUU869IplPXKmol5uQN3iitH54jQXUC4QFmSi86K+iVKMmO1ZqsmuVsi3dKjS3q9DYpiiRlkw1zvs+M6UeAaVeAePda5TKjik1OaLG4RNqOXtYTUMn5Yez1iv9GkkrnLybTJD/+NbP9P6X6MySN3bt+lLIBxASAR0AAACQJI1JcYvMM5KuGNAVR/ImhuVNDMu2ddfsMZtCVuY9Y7Cd5yvbtlTjS9dpsmOlcs2dKja2Kk6k5eoolF+KDRLKtXQq19yhyc6VGl2+UZmxfrWeOaDWM4eUzI7NxtsEktskZ9YqMN/OrRsx2sXnD+cvDgAAAACbpfiE9Iwrs7w3NSp/8HhtB3QbSzZWHKQ00b1Go8s3aKp9mQpN7QpTjXKetzgvBmNKS8K1Z5Rt69Zk12oNr75RLf1H1HbyndkZq27cbskd2du3OZL6+ABCEgEdAAAAkCT19fXFWx56aG8i9I6q1BX5skx2XP7QKYXrt9Tk8ZqwoChIKrzuDo0u36CR5i7lG1oUB8m66sJ+tZwXKN/UrkJDmybbV2hk+Ua1njmo9mN7lLmKcepO5suZpI5JTBaHdxHQAQAAgGnNvj+RD91OlRPQi3l5o2dkchNy75klvFZYP5DbcIeyYagRP6msk1zNHcX8cZ6nMNOsKN2oXGu3JrquUfvxPWo7+Y6SuYkKX0w7fec/vaNvU5bWc7zXIu2zAgAAAHzQxJIlBRO775ZV2Fl5owPy+4/W5LEaz1fY2KbxdLNyMoTzMjnjKUw3amzpOp246WM6c/09FyzjVoacNfofxs8dpfUc70dABwAAAKbt+tKXosi4nU6aKqe8NzFUswE9dk5jxaImwlDWEc8r5TxfUTIjY2MF75lo74qMfuzLPfXsY49NUot4PwI6AAAA8C4XRP6ojHumnMKmmJM/eFLexHBtHaSkybCosWJRkaMRd6ZaBo6q/fheeXFU7iY5T/rLVEfzETGiABdBQAcAAADeq0U54/RkWWWdkzd6Vv7ZIzV1iNko1EixoNDGnO8ZSuSn1HLmkBpGz5a9jZF+VJR5dceXv1ygBnExBHQAAADgPZ7v68vbIPi+pDPllPdHzyo4tU8qvxV1QeXjSKOFgvJRRBPuVWjuP6KOo2+UlqorT1ay32gabzwqWs9xCQR0AAAA4EJOKg45554qq7SN5Q2fVjBwvOoPLLRWo8WCJsKQhHgVMuODaj/xllLZsbK3MTLftc68tGPHl/PUIC6FgA4AAAC8T9zVNS7f/4tyy/uDJ+Sf2lfdx+ScxotFjReLcsTzGfOiolrOHtSSk29J5U+uN2iMvrY64x2iBnHZ64sqAAAAAC6060tfCp11bzlpfznlTSGr4NR++YPV2YruJE1FoUaLecXM2H5VmoZOqGf/i/KL5TeEG5lvK4r39PX1Megfl0VABwAAAC4iTmvYOH213PL+mcMKjr1VlceSiyIN5/MqWmZsvxrpiSF1HXq1oonhJB2Lrf32cz/49jFqEFdCQAcAAAAuYldf31hs3DclTZRTvlpb0fNxpKF8TrkamcSuWnlRqJazh9RxbE8lXdslua8EoX1VTAyHcq4zqgAAAAC4uERgB5z0tXLL+6cPKjj+TtXsf2itRgsFTUYhJ/MqNQ8e14o9O+RFxUo222WtefK5H32nnxpEOQjoAAAAwCWsCIIh39ivSSqrb7gp5hScekd+FczoHjunibCosbC44PtS6xqHT2nFnp8pNTVayWaTznn/Ix9mXqEGUS4COgAAAHAJfX19sbH+ESf3WLnb+KcOKjj2pky0cMHYOafJMNRAPifLpHBXJTU1qq6Du9Ry9nAlm1kZ/XXguZ+88aOvTFGLKBcBHQAAALiMkYzOGM//75LK6iduijkljr4p/8zhCscqzw4np8ko1EA+Szi/SkExp/Zje7R03wuVnQK5vSZ2X3n2sb7qGe+AmkBABwAAAC5jb19fUaa4W6VW9LISr3/6gBIHXpZXWZfoWZGPYw0XCgqZsf2q+MW8Oo+8rlVv/KSi7Zw05mT+bKq94RlqEZUioAMAAABXMJ5InLIyX5Y0UO42iUOvKziyW5rH2dMLcazhfF5ZJoW7Kl4UqrX/iJbtfUZeZXUZGul7JvCffOMrdG3HDK49qgAAAAC4vL19fUXfmVclfVPlThiXm1By30sKzhyU3Ny3ZofWaqSY1ziTwl0VLwrVduagrnn5e0pNjZS9nZOsk142Tl9+4Ttff4uaxIyuP6oAAAAAuLKVGZ0xTt92MifL3cY/fUCJ/bvkTYxoLpfBjp3TeFjUSKHAiboKXhSqdQbhXJKM3DHf6U/GMuYX1CRmfA1SBQAAAMCV9fX1xUFs3vCkP5WUK3e7xP6XlTiwSyafm5P9stPLqQ3O0esvFudaztfMIJzLacw48xUXmr/e29dHFwbM/DqkCgAAAIDy/OKJvgFr7HdlzLPlbmOKOSXfelbBsT0y4ey2cDs5TUWhBllO7ar4xfyMurVPyzrpW1buK88/2TdMbeJqENABAACACrSH2Xdk9KeSBsvdxhvtV+r1n8k/tV+KZ2cCNycpF8Xqz+WYsf0qBMWcuo68NsNu7SoY6Rnfs3++83vf2k9t4moR0AEAAIAKPPHEE4Uw1vPGuK9Kype7nd9/VKk9Tys4e2RWQnohjjSQz6poY07KDKWmRtV1cJdWv/rDmbSch07uVWfMHz/32LefpjYxGwjoAAAAQIV2fa/vmHHuq86Y5yWVnZCDI7uVevXHVx3Si3GswXxe2SiqgdqqTg2jZ7Rs7y90zStPVLqUmiSFkt4wcn+0KqUfUpuYLQR0AAAAYAZaoxVvyOj/J2MOVrLd1Yb0yFoNFfKaYDm1GSnN1H5Iq1/7kZbue2EmL2Eld8A5/fHKtP/NPiaFwywKqAIAAABgJg5IcdMZeXpb0oZKtgyO7C79j9s+qahnreSXd1seO6eRYkGjRZZTm4nU1KhaT+/Xij07lJoanclLWElHJfPnLhc/1ve97xDOMasI6AAAAEAF1t9/f6rdpK8ZCfw7jHO/YqQ7ZjJ/+rmQ7rb8iuLu1ZJ3+VtzJ6eRQl7DhXwN1trCMjZW0+AJdR59XV2HXpUXzShXT4dz/Tebjf/0xZ9+Z4iaxWwjoAMAAABluKG3N9k0Fa0xfrDVkz7pnPu4pOVXs7qZN3xK3uSIbOdKucsMPnWSxotFDRXyLKdWocz4oJoHjqn7wItqGjohzaz+QskdkMyfE84xlwjoAAAAwGVsefTRhH9iYK2fc3fJDz7h5D7mpBVX9aKer7hjuYob71K08nq5IHnZ4uPFggZY67wiifyUGkdOqePIG2o/sVd+ccY9D0JJbzhn/tjl4scI55hLBHQAAADgIm7o7U22Fuxmd3rkFvn+x530UcmtuNrXdUFS8YoNKt5wj6KVm+SS6cuWn4pCDeRZ67xcXlRU48hpLTn5jtpOvqPMeL/MDOvOSAUn96qR+6NVGf+bjDnHXCOgAwAAAO8y23p7GwtFd7PL261O3kdl3G1yWjkbL24bWhRdc6OKN9ynuGvVFSeHm4pCDeQI52WdOBsrMzagttP71HZqv5oGj8mLr2oZuqykZ2S8P16Z0g+ZrR3zgYAOAAAASObeB39tmXXhnYWcu11G90jmDsm1aDZ6lXu+4s4VCtfdpnD9FtmWTsmYy26SjyMN5HPKxax1ftmqjYrKTAypuf+oWs4eVOuZg/LDq53l3oxL7jFj7J88/9i3n36hLmoKtYCADgAAgEVr27Zt6UJLxybrzN2xC2+XtFVG10lKzdZ7uHSjopXXK9xwh6Ll18mlGq64TSGONZjPKx8Rzi/lXFf21jMH1Th0Uk1DJ5QoTM10Erjzp0tSvzP2LwKnP3/2sW+/SU1jPhHQAQAAsOjc9SufX6NkcHveaYucudUY9yE50z2rb+L5ijtWKFx3q6K1tyhe0iN5/hU3K8SxBgs5TYZFMSXcByVzE2ocOq6moRNqHjiuxuGTs9BiLkmKJO2WMX9iI/OdZ3/Qd4baxnwjoAMAAGBR2Prgr/cYF97unLtFMrdI2izpOsmlZzsJ28Y2Ras3K7z2VsU9a+XSjWVtFzmn4UJeE8WQcP4eflhQZqxfTUPH1Th8Wo0jp5SeGJIXhbP1FgXJfE9yfzae0k/3PsZ4cywMAjoAAADq1j2f+kK3Swe3y7rb5IqbrMwmY8y1ktrkZGb7/VyqQXHPWoVrb1a0apNsS4dkvLK2jZzVcD6vibAoRzyXF0dKTY2oaeikGodOqGH0rDLj/QryUzKzttycczI6JGu+YuV998Xvff11PjVYSAR0AAAA1JWt9z+0Ur652cjdbo3ZJOs2SlormTYjeXPypn5CccdyhdfepmjlJtklPXKJ8oexnwvno8WC4kW81rkfFZUZG1Dj8EllxgeUHh9UemJYyeyYvDic7bezkvmurPty4JLPPPP9r43w6cFCI6ADAACgpvX29iaPFbXexLrJGXurMWajnNZIZrWkNhn5c/bmnqd4yVKF125RvOI6xe3L5NJNFb2Ec05jhYLGisVFF869OFR6ckSZsQFlxvqVnhxScnJUqakRJfJTcxHKp5m3JPsnxvN+8vxff3M3nyJUCwI6AAAAasqWRx9NNJ4eWRnKbXZGNxzPu+uNzBoZLTUyK+TUpLlqKT/HeLItHYrW3KRw9WbF3asrDuZSKZyPFAsaLRYUuTpf69w5BWFBqcnhUuv4xLDSEwNKZieUyE8qkZ+UX8zLzG09DDqZb/vS1ycLDTvf+NFXpvhEoZoQ0AEAAFDV7u7tzbjIW2OjaKNnzAadHtoUyqx2Tl2SuiS1Sy45Lzvj+YrbehStuUnRiutk25fLNraWPc78vc6F85FCXqGtr3Duh8XpVvBS8M6M9SuRm1QyNyG/mFOimFVQyMkv5uY6kJ+TldGTsvbrJkjufO67f3WETxaqEQEdAAAAVWPLAw80JGzDNVK4wnneBuPMJpt3q4yLuzyjJXJaIpklTkrN/hRvlzEdzMPrPqRo5Ua5lk7ZTNOMgrn0wXA+Wx3bk9lxdRzdrTDTLOcZRckGhdMt+9YPFKabFCdmvsS7F4dKTY3J2FiSlBkfkLFWXlQK5HJODaNnZWwsPyzIj0N5UVFBISsvDuXFC7Ku+4+dcX9h/GDXqpQ52Nf3V8zQjqpFQAcAAMD82r7du++lfa3WhdeYIF4SG+9aWbNGsisks0ombpIxjUamVcYtMVKmNI7czPuuuiCpePl1CtferLhrtWxr54y6sr/fRBRqrFiY1XDuR0W1nd6vZW/9QjYodSiwfiDrJ0oFjJH1E7LezIfkG2flR0Vpeqx8UMyVfj4dyN/7swXn9JyT+5o8/SIzPrRvx44d+Rf49KHKEdABAAAwa+75zK/eGDobSJLnRU3GmPXO84wXa6k80+OcbdWuPWsjXwk51yhrkjKuSVKjZDIqhXGVwvgCTZhmjFy6UeE1Nylad7PiJcvkGlvlEulZefmJsKjhQl6FOJ7VIwwKWS058baSuYnFfAnmZPRjSd9wxu3OpLxDO/r6phbuYgIq/BxTBcDCuPuzvXc6z/1TSavr9Rid0xpJZTUzZMaHrqrLXS1ITY1d9vcmjuSPDSpx9nhd14M3OXrZ2yRjrTJjQ3LGq+t6SOQnL389RKGC4TMy9XxLGRXlZccvW8SPimoYHZQXx3V9PfhhvvzCxvytux585KPVeizWRS2ezHTE9n3JNRpr5IxLy7mUZAJJDaXvAbMQjeKXqVtP0fLrFK/coHD1ZrmGFtmGZsmbvVvmibCooUJe+Sia1cRorFV6YlAtZw/W9WflkpyGZfTXMvqes253prP5+I4vf7kggjlqTDV9JQKLytYHez8p5/7ISBupDanY2KL4XBe8OhWEBSVylwllni/b0CyXrO8HFSY3Je8y9eA8T8VMs6xf38+QE4XSBEmXrAc/KE08FdRxPTgnk5uUl89esoj1A4WZpqvqklsLktmJUrdhLAjb1q1w7S2lSd/alsmlM3Kpxll/n7kK51KpW/nSt5/Tyt0/W2ynb5eRe8wYt8MoeaAlHBt64okniiKYo0bRgg4sFOcajNRGRZQkp8apBBuXWpcXOWPtFXsbLIp6iCP540OLvh68OFKKzwXmgG1oUbRig6J1tyruXCWXbpBLZqQ5ehg0ERY1lM8rH0dzkhyDQlYdR/csltN3RjI/lHGP+zJvmjjXv6yhYbyv76/qu6sNFgUCOrBAjFOTjDqpCQAA5odt6VTUs0bR2lsUd62WS6blUhlpjntwTYThnIZzL47UNHRS6YnBej59A87oKePM952xr/h+fKY1nx+jtRz1hoAOLBBnjGfk6rvPJgAACyzuWaN42XqFq66XbVsql0zJJVJzHsrPKcSxxoqFOQvnUmkOg7aTb83XeuLzx5gjctoh6SnPei/71p6NmjT5wuabCtq+vc4OFighoAMAAKBu2KYl06H8WkUrN8k2tEh+IBck5qz7+qUU4liD+Zwmw+LcNfE6p2R2XO3H99b+yTMac06vGqcdTuanNtaBMBnm20bb8ju2rSmeD+V9fVzoqFsEdAAAANQs29haCuRdqxWv2Ki4tVsKEnK+X5p93SzMnMjnwvnEXIZzSX5YUOeR1+XFUa2dulgyZ51xr8q6ZyTvmUj5t5VOh0mpuEoq9vX1vTumfAfXOhYHAjqwALY88GiDp+EOBkwBAFABP5Btblfcs0bRsusUd18j29xeCuTGkzxPqoIlGucrnEuSHxXUfuzNaj9zoaQ9kjkk43Yba9+IE4k3E3HudN65OJdJR5uluK/vcSZ5w6JHQAcWQEM00hgG6qImAAC4OBckZdt6FHeulO1cqbhzheIlS+VSDaUQboxK66hX16rB58L5eDj3y+Z5caS2U/uUmhqphjN23BhzxDkzKtk3PGNG4si8IS9xxMuEJ9omJ+3RpibXPTBot23bZrdv3+70nsnd6qCDPjArCOjAAojjyChgfjgAwCJnPNmGZtmOFbLNHbJt3bJtPaVW8vZl5wpN/7/qCuIXM5/hXCp1b+8+uKuSCn/FyX5vpu/nGW/SSHsjp5wkWaOT2ZQOby51V1ff5s2lwF0K3+dc0Ilgr6QdO3Zw7QOXQEAHFkKj5EKZsu81auCmBACwGF3671O0fP35Vm7b3CHX0i4ZT3HHCrlUg2xLh2xjW93URHGew7lxVunJITUNHi93kzPOuK/tfOxb/2G29+V86zeTtwFXjYAOLABPyTbrxavLGZhWbGjVmevv0WTHyjnbH994ak0m1ZxIVFEtAQCqXdy1urRk2SJXjGMNFuYvnEuSF4XqPvBS2eWN0X7n/Ge5aoHqRkAHFoCLooSMaSinbBwkNdXWo/HuNXP3ReB5yqQzipLcZAEAUIlCHGuokNNYcf7CuZxTMjdRyeRweef02s7Hv/4CZwyobgs/zSWwCFnP8ySVNQg9SjXIBgRnAACqzYKEc5W6ty85vld+WChzC/eONeZJzhhQ/QjowAKwLu6UM9eVUzZKNSgO6HoOAEC1cFq4cC5JQTGvpe88X27xWMbs81N6XgCqHgEdqAVMEgcAQFVwKo05X6hwbpxV+/E9SubGy93khGR+/nxf3zBnD6h+jEEHFoBnPc8ZV1azeByk5Dw+qgAALDQnKR9FGirkNBGGC7IPXhyp+8DL5RU2snLa54Xejzh7QG3grh9YAM5Tq6xWqoyG8TDTpCiRptIAAFhATk65KFJ/PqdcFC3YfjQOn1Tj8Klyd3rMyO167omvH+QMArWBLu7AQrAmISNSNwAANaBawrkXh1r+5tOV7PY+Oe87nEGgdtCCDgAAAFxCtYRzSWoYOaO2U/vK3G9lZczr6Y7GNziLQO2gBR2YZ729vb7zbNnTssdBUs7z67lKAACoSk5StkrCubFWPQdeKr+8dNQz+s6OL385z5kEagcBHZhnpwqFBmO97nLLFxtaFKUyVBwAAPPIOqepMNRAFYRzSWoY61fH0d1llTVSwRjtTXmNL3AmgdpCF3dgnuVdYyowxVYjlk4DAKAaWec0EYYazOdUtHFV7FPPvhfkReUt6+akU7L67o7HvjzK2QRqCwEdAAAAmFYK50UN5HMKra2KfUpNjWrJibfLK2wUyukd5yV+wtkEag9d3AEAAABVZziXpJ79LyqRnyyrrJEG5dwTOx/7y7OcUaD20IIOAACARS92TuPFgoYK+aoK56nJYXUeelWlKesuz0lWVod9ed/ljAK1iYAOAACARS12TiOFvIbyedkygvB8qrD1fMxJTz37vb5jnFWgNtHFHYDkSjcnAAAsNrFzGq7ScJ7ITajj6G4Zd+UWfSdZOR2yxn2VswrULlrQgXmWdFFKxrRU0y2Alauq7nwAAMyHYhxrtFjQSKFQdeFckjqO7S6/9dxowhj3s5ce+9abnFmgdtGCjtq2fbt3Q29vspZ2ObZRo5Pprrb9ov0cALCYFOJYg4WchgrV13IuScnsuLoOvSqvvGXenJxOGxf0LbbzuOXRRxPbt28n06BucDGjpt330kutrfno7q33P7SyVvbZ9z3PGFdTDxUAAKgnuSjSYD6n8WKxavex49huZcYHpfKGoGWd3NMr0vb1xXYuE6eHP/H9l95Yw1WNekFAR02zyWRC8m8zgflb933mN5ZQI1dRl4xBBwAsApNhqMF8ThNhsWp7jyWzY+o88rpMHJZT3Ek67Xnmz/v6+qr3icMcuOeBh+6Q0a+awFvBlY16QUBHTTNxnLNSUc7727FXJKTPkHVOEWPQUcO8iWF5I2ek8rqCog6Y7Li8kbMyYZ7KQFmcXCmcF3KaisKqHtrVcXS30uODMuU9PM856acrk+blxXQ+73ngoTucvH8qpzXG+uFiOnbUNwI6alr+5NK8MTrjjFvrpH8YeYXfIqTPTDWOvwPKYcKCgqN7lHrj5/KHT1Mhi+ScJ47tVWrPU/I45yiDk9NooaDBfE75KKrqv3ipqVF1HN0tLyq79fys8dz/WEyt5+fCuXP6tDMmLxNlucpRLwjoqGm7dn0pNFZjRvKctE4yvxub4j+95/O/em217rPz47ychqpvx0o3MECt8QeOK7H/ZSUO7FJy9w75Q6eolDpWeiDzppJ7nlJi/8sKju2VyU9RMbgk60rhfLiQVy6u7nAulVrPM+ODZS2tJikvoyfHk96ri+Fcbnn00cTWzz78aSvzr5zTp2XUauTGA3kFrnTUCwI66oYpXc9rndHfs3H8T+76zK9uqsoPnTFZp+oL6E5OkSWgo7Z4I2eVePt5+f1HZfJTShx6Tck3fiaPkF6XTFhQcOxNpV77sfz+YzK5CSUP7FJwbI9MRA9XfFDknIYKeQ0V8jWxnGjjyOnp1vOyGsOdpIHAM3+6dxG0nm954NGGxJnhB4wx/1zSp2TUKknGKRkZ+VztqBesg46atuWBBxqs02pz4Y+7JfPrxova7nnwoT8dTfkvVNMfrkKUtoGKkZGpqrp0kmLnlFjg/TBRUS5gkntcmTd6Vqk3fq7E4Tdkpm9mz4V0ExZVuGmb4p41ksez6HpgchOlBzBvPSu//7g03brojZxV8s1n5NLNilZulDzu01ESWquRQl5jxaKi97RGe3Eo6wdSlf0dlqSug7uUHh8os/XcFWXMD3LdS96o93O55YFf70yYkV45/R1JmyWTOl8L0jIvVhNXPOoFdy2ocU0NMmbNB3/uOp3M563zfq+5YP8G49KvzDkpXuDWBZMdV2rn40ocrvt7DVwlb7Rfqdd/rsSBXTL5yQuvo/yUgiNvKL3rCQUn35ZiWlZr/nxnx5V86zmlXv3xBeFckuSs/LNHldr1ZOlhDZPGQdNrnOdzGi0WLgznUajVrz6p9uN7ZapsUsnG4VNqOXNIftkzt5tBzzP/bdeXvlTXX3J3P/Dw9QkX/q/OuX/mpNskpd9XZI31Sq3pQD2gBR01LeXbVmt16yUGlDVLuk/OLI1NccN9X/jV/+uZ73x9H7V2cU7ugpuY+eYPn1Jq52MKTu6XPblPLt2oaFnVTiWAhRJHCs4eVvKNnys4ue+SY49NWJB/8h2l85Mq3rRN4Zqb5VIZ6q/WOCtvpF/Jvc8ocfAVeZMjFz/fcajgzEGZYlbe1IjC9VtkG7hfX6ymolAjhYKmovCCJUS9KNTyvb9Q5+HX1HrmoFKTIxq49kOKkumq2O+uQ68olR0td93zSNJfF44ferNez+OWLVsSwYpr7rMy/8BI24zUeYmiHca6a+7u7c0839eX4xOAWkc/MNSs7du3ewdO9t8kuX8u6VJ33oGkThmzyVq3dvmmGyeWbrj39Ol9uxbsafPyjTc1eIq3GpmPlFN+vGetsu3L5Oa426Yno3QQKBPM/3O7xIGXlX7hrxWc3C8TFeXlJuSPnpFt65ZtbudihyTJZCeUeucFpV7/qfzTB2SKl28pNdbKy47LHzopExVkWzoJ6bV0vqNQwekDSr3yQyWOvCEvO375DZyTl5uQN3xK3viwXOMSuUyzZKqvGzPmzmQYariQVzaKPrA6Sc/+l7R0/wtKFKaUyE+pYbRfmbF+ZZcsVZRqWND9bhw6qWXvPK9UbrzcT8ig8cJ/8uLPf16XyxhsffDBnqCp4zcl/58Z6V7psi3knoyGbGReOblv7yifAtQ6AjpqVpzp6rSe/U3JfPJy5UxpkFmTpLWSu903uc7Vm246fvztN0cWYr8rDehT7Ss01bFCdo7HZRsjJb1AjYn5G4XuD59S+vnvKvnW8/KHTr6n1cDJy47JHzlLSEdpYrATbyv9yg+VOLBL/sjZCrqmOpnClPyRM/JGTsulGuQaWxmnXO3nPDeh5J6np7u0H73iw5gLti3m5Y0NKBg4KhPm5Zo75KqkhRRzx8lprFjUUCGvfBxfsCqJF4Va8ebT6t7/opLZsfNri/tRQemJITUPHpNxsfKt3XP+MPxivDjSqt0/U8vA0XK/22InfSU9PvKVI0eOVP/MdxXY9lu/lV62Zv1H5Px/IenXnbTRSFe8AXIyncbomXtu3nx07969zHiLmsYdCmrS9u3bvf1nBjZbo+1GKnd8eVJSt5FutNLtKzdu0uo1N544cXDvvHaH2njD+qS1/m0y+ng55ac6V2myc7VsYq4nTjNK+EbNibmfoM3kJpTc+6zSL/9Awcl98nITHyzk3HTr5ym5dKPskqVc+IuNjeUPnVLqlSeV2vO0/LNH5RWmpBkskmSiovzxIQVnDsmEedm2HkJbNYojBWcOKv3iY0oefEXe+KDMDObGMDaSNzUmf/CE/DOHZeJItrlDYgLKuhQ5p7FiQSOFgoo2vuAbIihmtXzvL9R98GWl3hPOz18rziqZHVfjyGm19B9RmG5SYZ4fCred3q/ugy8rcbG/hRfhpBFj47//zI9/2F8v53Dbtm3Bspu2bAjz4T92Vv/MSFsl02HKnMnPSE2ecaOTcfD68Xf2TNRLvWBxIqCjJoUtS5dZY/+f092eyp7scPqLvtFIq410l/N148rrbxy+7u47zhx57bVoPvb9jptuCscjrZHRF8opP9m1WhNd18xDQJcC46k1mZqz1zf5SSX3PqvMi4+XuqyODVy+tcA5eblSF2XFkWznSlo+F4M4KnVtfu0npe7spw7Ky46VuybwZa4nK5Ofkj90Sv6ZQ1IqI9fczjVVDZyTNzWq5Os/U/qVJ0tLqBWv/tmpCQvyJofl9x9VcGq/jI1lWzqkYKHXq8BsiZzTSCGv0WJBob2wU3vD6Bmtev0n6jy2W4n81GXHdvthQampETUPHFPzwDHFyYwKTXMf1L041Io3d6hp8ES533HOGPffV2X8r9ZLS/GH7+/tKqQb/46M+d+N9EkjrZIqXlTGk8x659ybq27ZfOjE3r1RPdQNFicGZqHm3Pvgg83Wpv6WM+7/kK56WY2skc44uZ97zvuz1njpK0888UeFuT6Guz7b+6sy7q/KKXtm4106dcMvqTgPEx5lgkCrGpvlz/KYTZOfVGLfy0ruf6kUyvOT5U6CM/0CRi7TrGj5ehVv/hiTx9WrOFLi0GulbuyDJ2RyEzLhHH0cPV+2sVXx0nUq3rRNUfc1ks+8qQvBREUl3n5BybeeK30/FLJzds5dpkm2uV3h2lsUrrtVtqWLZfhqWCGONVzIayIsKn7P35SgmFXn4TfUeeQ1NYyekRdVNu2M9QMVG1o11b5CZ6+7Q+M96+bsGLoOvaqVu3+q1GR5o+6c05jk7tj5vW/tr/Xzd/cv97a7hP0bMubXJHO9k+syV7vClNFzzjP/eHVCr/X19VXXNP1AmbgbQU25//77UyNx8pPy3L+SZmXNywYnrZNMjzX6+Ehw6qdbP/vwtzMZ7+kdfX2T1XDMydyEgmJ+XgK6c1JkrXx/dloU/cETCg6/rsTRPaWuqvnshcsjVbBjJjuuxOHd8obPKFx/u8JN98g2sXpe7XPyh88oOPSqEkd2y5scKc3MHs9x44eN5U0My+Qm5J85pHDNLSre9GHZth7JENjmhY2VPPiKEm8+I3/4dOUP7mbwfmZqTH52XN5ov5J7n1W0YoOidbcqXHk9D2hqTDaKNFTIlSaDe89103p6v3oOvKTmgWMK8lMz6nnjxZHSE0NKZsfUNHRCU+3LNbzqBo0tW68w1ThrxxAUs2o/tlvJqbGytzHG/OdVaXNoZ42et+3bt3s73nhjeSH0HnFyD0tmg6R2yQWz0jTg9CETuz84FrlHJdX8QwwsTrSgo2Zs2fJoIr109L7YuD+RcXPVhJo1TmPOaK+T+UaU1td39fWNzfab3PXgIw/J6f/SpWefP29k5SYdv/njyi5ZNud1nPR89WQa1HQVE8WZwpSCk/uUOPBqaXKn3ERpXeLZuvE2Ri6Rll2yVMVN9yhcf5vcLN4wYX54U6MKjr+txNvPlx7eFHOlicDcwvTYdImUXLpR4dpbFF17m6Kl19KyOkdMIafEwVeUeGen/JEzMoUpyS7MPFcuSErJtGxjq6IVGxWt3qRo5SZmfq9iTtJUGGqokFcuis5PBtc4fErdB15S6+kDSubG5c3iQz7rB4oTKRUzrRpdeb2GV23S1JLlV/26y/f+QsvefrbsseeSTqb96MYd3/3uaK2dt97eXv9YURtNbP++jLdNcssltWhuGgtDyX3VGO9f//Ltmw9t3769ribSQ/3jLxBqwrZtv5XON2V/U8b9vuS6dLVdoK78yQjlNClnzkj2KT92f57v79y1a9eXZmV5trs/+8jHndF/kXTdlcrOZ0BPeJ460xm1VTgO3RSy8s8eUeLwa9PjhcdLoTyONZMJvcp7U08umZZt7VJ47W0Kr71dtrWLD0sV80b7lTj0qoKje+WND8iERZkwt2Dh7GJckJQSKUXLrytdV+u3ENZm6/xPjSrx1nNK7H9Z3tRY6TuiWs69MaVzHyRlG5oVrdqs6JobFK28nhNXRZyk8WJBQ4W8inEsE0dq7j+izsOvqXngqJK5ielgPld/d4ziIKk4kVa+pUOjyzZodPl1yrZVPolpenxQ6178a7X0H67gwaT3P7/w+Df+sIZOmbnzC19oN1HwaWPcb8qZzZJtk0xac30fJ2Wd0S4Z8z/tvG3z2yKko5Y+OFQBqt3dvb0Zm3f/byM9qtLT1vnk5FSQMZNy7qgz7sdepG88v/Wm16/my37rgw991Dj/jyW36Uplc63dOvKhz2hs6fo5P1jfGLUl0+rOXHmtaJObUNB/VMHRPfJP7CtN4hWFko3mtxXUeHJBQi7TpGjZdQo33aNo6RrJZxKohWZy4wrOHpV/+qCC43vlTY1JYaF0nbgqv1fyg9J11dCi4voPKdx8r2wjQypmInH4dSX2v6zg5L7p819csJ4S5V24Rs5PSEFCLkgqWr1Z8bJrFS1dJ9vWzQldIPH0ZHAjhYL8qRG1ntynzqOvq2HkjLw4lDeXD4QvwhlP1g9kEynlWrs0unyjxpZeq1xLl2wZwyVWvf4T9ezfqaDMORec0d5MymytluF3l3P//fe3DHuNnza+fkVOvyynjIwaNf9DayM5veU775/kz7Q9M1uNLMBcI6Cjqq/P+z7Te3vouf/TSB+StNBrIllJRTkVJHfEyfwgkHvm2e996weVvlAlAT3f0qkjH/qsRpddN+cHaCQ1J5Ja0fjB4f0mzMsbPq3g1AH5pw+WJvHKT8nYSLJxddxwe75ckJBt7VG45kZFa25S3LGCsaXz9YHNTcofOS3/zGH5pw/IHzgmU8yXlsma7wc3s3ZQRs4LpCCpuGuVwg13KFp9g2xjGyf8MoJT+xUc2a3g6G55k6PTD+9qdL4mPyitjX1uYsFl6xUvW18K7K2dnOx5ULSxJsaH5Y6/rbaju9U0eFyJwpRMHF/96g6zwBlPzvPlPF+FxlZNdK/RRNcajXdfc9H5Y5oHjumaV36gpsETKvehgnHmoee/1/ddzedTiArc3du7wuXc/fJ0n5weUGlp23P/FpKVzKTk/nO2kPk3b/zoK1N8olDtCOioSp/o7W2dyNl/aYz5h05Km7nvClXpJ8fKKZIUy6goZ542xv7COveLwERvPvvYY5cdUHb353pvknW/76TPXemtolSjDt35OQ2v3jwvh9YYJLSysUl+YUrBmcPyBk/I7z8qf+C4TH6ydDNkbXW3gBpTaln3fNn2ZYpWbVK0+gbFXavlEqnq3e8a4432K+g/Km/opPwzh+SPnJbCYm1cIzO6rjzJK/XYiLvXKNxwp6LVm2TnYQLHWhCcPqjgyBsKDr9RmuwvjkrXQC0+mLnCd4uMJ+f7co2tirtWK1p+neKedbJtXaWu8pid75ipUfnH3pQ59pb8UwcVFCZlrK2KUH65a8QZUwrtxlOhaYnGe9ZqqmOFsm1LVcy0avVrT6rjyOtlj5N30vORCp/Y9fjj2Wo5zA8/9H9bFkb5u43Th53cL0lmveRSkvFVnZNQFyV3yFr9369p8H7CDO+oZgR0VJ17HnjkH1iZ35Ncp6RaWaDYTv9zkgrO6FVj3euSed167rWGlPf2e7ul3fvAw5tjY35frry10A/e/YgG1t02N18CzimRn1TDyGk1jpxW0+gZNY+eUTAxXLqxdq50WDV7k22mb6qNbLpJcfdqxSs2KFpxneySZdxMl8mbGJZ/9rD8wROlhzaDx+Xlpi/pmr9GZnJZmfNdoe2SpQrX3KR4xQbFXdfIJRbHNeVNDCk4fUj+yX2llvLc9Czs9fZgpsxrQTJyiZRsW7fizlWKe9Yo7lol29whl2rgS6ScqixkFZzcr+DUfvkn95Ue+p17yFPD3y/uPddI6QdWppLjcfroCx+68emFGkd9zxd+s9vEU5tjZ26VvHslbZFcj4wCOXkqNaLUQqZwkiIn/cImkn/3pW9/7RCfOlQjAjqqwv33398yGjR91sr9npHbUEezMp37C5yXc0eMMfuscfuMM6Fzbosx5pfLeZHDd3xO/eu3lLpZzlDL2cMyzqlh9IyCwpQaRs8qkZ+Y7mK3OLlESnHX6tKN9LJrFS9ZKtvSIXmLtEu8jeVNjsofPiVvYqjUMt5/TN74UGmmbVz5mkqmFXevUbRyQ6krdPsyuXRTXRybN9qv4Ozh0pwCJ9+RNzE0PREkLntNBAnZ5g7FnavkWjpk25cp7lgh29Ihl1jokVsLx0Sh/FP75A+UHvj5g8fljQ6oSntwL+QV9PVQxd+e69bzex/8teXOxtfExi6XMWsk3SCnlUa6TdJ7x3LU0/3ZlwPn/8dnvvf117nOUE0I6Fiwa6+3t9c7GSdW2rD4a5J+V9JyrsmLm+i6RpOdq2Sv0Nrrh3llRs/KuNJNc2pyTKmpESqwAi6Zkl2yXHHnSrlMk+Kl62QzzaWx7O9tATl/pb7nkl3I50ofaI1x7/ufpf82UVH+2aMyUVHeyBl5uXGZkbPyJoflD53iAphtni/btKT0EGjputJDoCVLZRtaStfO+6+jeb2G3HsuE3f+OjJxVOoxMXh8urdEKUCZXNXPTVVzbNOS0r+2brnGtlKITzXItnXLZpqnl/ozH/iqqZrvnQuuofdeR+/+tynkStfSxJC88SH5pw9Mz1dxhgug4tp2rxuZ0enzPmzk9lR8zTl1GGPWybmMjNJyukbS0jqrqoqqRMb8THH8R+mp4R/s2LbNavt2J54UYQERhjCPtns39L4ZZPL5IGnSv2Sd+6KkLxiJRaxRE1wqrbhjZWmpnWXrJeOVWkiT6VIQa26XOzce2Ri5CwLYe5nybqrdpe8RzPu6fPpnD5+fhMubGJY3OSI5J2/wRGmitjw3xFV1LTW0yDa3l8J60xLZ1i7Zhha5pvbSBHS+/77rx8wwiL3nOnGSOfffYUH+aL9MbkLe5LC8iWGZ8SF5Y/2ldekjJjuuBrahVbalvfT90rNWbnrCy3jpulK3aUm2Y2XpO+j8pWLO/25G3zuX+e4pfe/o/O/8wRNSmJckBf3HpDiUmRwpXU/5KfnDpxbX0BfU9MdNcvsk8xXnXF9msvl4V9dU2NfXZ0VYxzwjoGNObdu2LSh0dSXs5GTCU8O1zjdflPSIjFaqdsaXAxVzQVK2reeD45ETqVKQT135uZQ3OSwzNXbR2a/9geOl5apQn9dPIinb2n1+UkPX0CrX3F7xMBcTh/L6j06/qJOXHZc3PkgF1yvjlR78NH5w4kKXapBtX17Wy3gTQzKTIxf5+bC87Fj1rF8PzI2CpBec8f5UYbSjNW4cOdGaD/f2bY4k1lPH3COgY3Zt3+6t37kz0SGloqAtmbTFLc4zn5bcNsls0MIvlQYAAACUY8IYPW2cfhDKPZWyqVPjoV9sLx4v7NixI6J6MBcI6Ljqa+iG3t7EkkIh5Xw/o2Ky2/rxLU76mLHmIzJutaQE1QQAAIAaNumk14zMU1b6WcL4b5vYy+W8icK6dLrA0m2YLQR0VGb7du/+nTsT/U1NaW9KmWSg1tjaDTLaKmmbZG6RVB9TFgMAAAAXd1JGO4w1LxhpV+j7J9LFOG8ThXxifDxHCztmioCOy9q+fbv37ecOZlr9fIP1lXGB2uW03sbuFmd05/TyG13UFAAAABYjJxUlHTZyrznnveaMXvSNjhWDeKrZ2lx/IpHd29cXignnUAYCOi60fbu3def+piARN1nFDdZ5nZ7szc642+R0o5O70ci0UVEAAADAJR2TzEtybrdn9Fps3GHjJcYThXgqatLk8319eRHYcREEdFxwPdz3md9oC03hbmN0m4zZJKcbJGWomjmqcKdWZ7SsnLJxkFQUpOU8b172zUmlJXkMXxMAgKvhZOziySHGWgVRXn5lK21k5dxpGcMah3X7KdAp49w7xpjXrW9e9hLa+3xfX46awfsFVAHO2bZtmz8V2KbA6bSk05L7AY9w5paVPm9kfq+cspMtS9W/dKOK6Xka4m+MXCKQS/A1AQCYIScpiuUVF8+ykA3ZUXWd3qumsbNlb2Okn8vpj+S5fi6a+mTO/x8nzzpNjTV4i7tGcCnceeO86cksjk//wzzY+uDDm+WUldRwxcLOqphuVraxfX52zkg2mZBLpzhRAICKGWtlipFMMZQSi6MF3XeR2sZOKTM1Uslm/TbWn7S77I4nvv9EgSsHWNx4cgMsJGv6jXS4nKLp3JiCMD9/++YkEztpEXVLBADMDhPHMvmiTKEoucXxd8Q4q+axM1oyeLiS7u2xk75mZXY+8QThHAABHVhYxo47ldedLVnMKgjzMvN5o+OsjLWcJwBAeZyTCSOZXEEmXFyrTKUKk+roP6iGsUp6qZs9kv36mkYNcPEAkAjowMJyZsgYU9aQAmNjJQtT8uL5mz/GWCfFBHQAwJUZa+UVQ3m5gswi+9vhx6HaRo6rZeREBRWmMSP3XwITvdnX1xdzBQGQCOjAwn4AQ2/IOVf2mP9UYUL+PAZ0OVdqQV8k3RMBADNj4limUJTJL54u7eeP3Vk1T5xVR/8BBcWyJ+WO5PSkde5nzz722ARXEIBzCOjAAkoVBsZlvJNGKmvcWTo3piCa5yFq1i6q5XEAABU436W9KFNcXF3az0kVJtU+cEgN4+X3UnfSO8bz/vtExjvKRQTgvQjowALasWNH5JztL3ccemZqZH4nilOpy6Jiet4BAC50vkt7viCzSP9OBHFRbSMn1Dp0rJLNJoz0taL1d+3t61s8688BKAsBHVjwD6E36KST5ZRNFLNKFLMybh7H9llXGktIN3cAgFRa5SOa7tJeCBftah/GWTVNDKjj7L5KH54/ZTzz+K7H/3KQiwnA+xHQgQXmbNRvjDlSbvl0bqyS5Vtmh2U2dwCASg9tw7C0hFoxWtQPb1PFKbUPHFTDREU5+4DkvqJ+HeBiAnAxBHRggQUqnjHOHSm3fDo7Ou/j0Evd3AnoALCYmTiWVyzKKxQXbZf2c4KooCVDR9VWWdf2cRl91ZnkU88/35er17oBcHUI6MACW9bQMG5ljksqaxbXzIK0oNPNHQAWrXMTwRXCUqv5Ip841HOxmif61Xn6bfkVdW03T1nrf2fnY395losKwKUQ0IEF1tfXFzu5U046VU75VH58/sehS3RzB4DFyFqZYlQabx4u7i7tJU6p/IQ6z+5TOjtawWZunzPuaw2TmXe4qABcDgEdqAK+8055UllLrXhxpEx2bH7XQ5dKLeh0cweARcPEsbxCKK9YLP0NgBJhQR2Dh9UyfKKCitSYk/m6lPj5jh1fztdv7QCYDQR0oBo+iJ5/wjl3sNzyDVND89/N3U13c2dNdACob87JFKcnggvp0n6OZ2M1T/ar4+x+eZU8JHfmac9zdG0HUBYCOlAFRlLxoDPmkKRsOeUzU8Py53miOElSHMtY1kQHgHp1vtW8EMpEMV3az9WLc8rkx9R9co+SufFKNn3bSH+VGm9+i1oEUA4COlAF9vb1FX1njqjM9dBT+Qml8hPzHpaNdVJkJe7XAKC+XDARXCgx58gFElFePSf3qGnsTPkbGY3J6JsmiH5C13YA5SKgA1XCWnvcSYfL+uDaqNTNfZ7Hocs5GSaLA4C6YqyVVwyZCO4S/DjUkuGjahs8Usnfv1BOPzVy337uO9/ppxYBlIuADlSJMO2OGaND5ZZvmFyAceg6N1kc3dwBoOY5yURxaax5IWQiuIswzqppalA9J3ZX+jd3j+fMX7aF2b3UIoBKENCBanG0c1ClFvSpcoo3jfcriBdgHLq1TBYHALXOvmciuIhW80tJhlktP7JLqexYJZsNGqPveC7x0yeeeKJQr3UDYG4Q0IEqsWvXl0Lr3D7JldXNPYgKapgcqmwm2dkSxzK0ogNAbYpiefmCvEKx9F1ONr+oIA61/NhrahyvaPL10Mk94cf2q898/2sj1CKAShHQgWri7GE5U3Y39+axMwoWqJu7iS0tLgBQS6aXT/NoNb8iz8bqGDigJQOHZCqpJ6eXPGf+/BN33HyEWgQwEwR0oIr4mWCfMdpXbvnGiQH5cXFhdjaOGa8IALUitvLyRVrNy2CcU9PUoJYee62ycefOHTRGf1E0hee3b9/OH0gAM0JAB6rI8319Oeu0V9Kxcsqn8hNK58YWZG3y0mRxLLkGAFXtXKt5Ll+aoZ35Q64oVZjUqkMvKFmYKn8jozEZ84MoNn+96/HHs9QigJkioAPV9qE05pCROVJOWeOsWkdOKliIVnTnZKJoQR4OAADKYKdbzfNFhiWVyXNWqw69oMzEYPkbGYVy5unA+X/20p2bWVINwFUhoANVxprgbevcgXLLN4+eXJDl1qTS8jyKaEUHgKoy3WruZ/MyYUgwL5NxTiuOvaKWkROVjjvfY+S+lDvduld0bQdwlQjoQJXZefvGARm9JWm4nPKp/ITS2dEFa8k2cSxjuR8BgKoQW3m5grx8kWFIFVoyelxdJ9+UV8nfU6cTzuirqYmmn+za9aWwfmsHwHwhoAPVZvt2Gxhvl2TeKqe4cU5tw8flxwtzX2CiWGLJNQBYWE4yhXOt5szQXqlMYVyrDr1Q6d/SCXn6XjI0f7Fjx5fz1CKA2UBAB6qQn/cOGOloueVbRk8uWECXczJhxLroALBQrJOXy8srFCV6NFXMl9W6t3+uZG6iks0i58xzLjR/9Isn+gbrtW4AzD8COlCFnv7R9Scl+46ksu4WUvlJZbIjMm5hbswYiw4AC8MrFOVPZmk1n3EFelr39s/VMDFYYf2Zt41x/3Hn1s1vi79+AGYRAR2oStutk3nJSO+UV96p4+yBBZssThIzugPAPDJRLG8yK5MvEsyvwuqDz6t18GhFdWicThtn/2JV2vyISeEAzDYCOlClbBC/aOXeKrd86+gJ+XG0YPtrorjUks6NIgDMHefk5QvypnKlpdMwY0tGT6jr1FsV9T5z0pT13BOeF/7Xvr4+nkoDmHUBVQBUpxe/852hux545E1JQ5I6rlTej4pqHTmhwZ7rZD1/YXa6GMn4vlywQO+PBWckrW5KaktXo9Y0pbShNa2Ub87//tWhrE5MFfXSwJROTBbpFwpU8vkKo9Ls7Iwzv2pN2SGt3ftTebaiB9uRkV5wSv6LZx/71kS91g2AhUVAB6qYkXlBcvucdHc55ZcMHtJw55oFC+jGWimM5DxP8gwncJHwjNQY+PrkyhY9srZd17ellbzE+b+jq/H8/941OKW/Pjqqx4+OKnKOzhfApVgnr1CUKbKK12xomBrWur0/qXRyVSdpn4z933c+9pdnqUUAc4WADlSzona7lA5J2ip35SEpLaOnlMmOabIlJWcWJiCbMJJJ+HIeXy/1zkhKeEafWtmq39rQofWtaQUVXHdbOht1e2ejfmdjl37/1VN6eWBKoSWlA+c5Jy+MZAohreazJAjzWnX0ZSULUxWeCXfCGP37Fx779rPUIoC5RD9UoIqdOLg3t2LD5k4jc7OktnK2sX6g8dZlct4Cf7x9TzK0otcrz0jLGhL6xzf26Lc3dmpFY1LeRc63tVbWWjnnZIyReV8ZI6k16etXVrWqwff0xnBWESEdi51zMrGVly+UWs3pXjIrPGe19sAzah0+Xsm4cydp2Bjzpy889q0/pBYBzDUCOlDlVly/yRjpTknXqJRnLitRmNJwz3WK/eSC7bNxbrqbOyG9HnlGWtuc0v9y01Ldv6pVmeDdzh3OOUVRpHw+r1wupxPHjuvYseM6c/qM7LkbYicFwYU9LHxjdHNHRrd1NmrnwJSmQloLsQg5Sc7KK5bGmhtazWeNZ2OtPLpLS/oPVjTu3ElZY/TddMr8yyN79xbruIoAVAnunIEasPWBR/7QSI9Kaiin/LFr71H/suvlzMIt1OA8Ty6TYsK4OmMkrW1J6Xc3d+ujy1oUvGeseRiGGhkZ0b6392nXy7u07519KhQKF2zfs7RH99x7j+7/zP3yvA9en5F1enkwq3/50gmdzTHeFouIc6VJ4OjOPus8G6lz8JBWHH5JQTFX/oZGoaye9WL/d5574usHqUkA84FBokANcHJPGWc+LqObyinfefYdDXavVxwsYCs6E8bVpfZUoL95Xae2vS+cZ7NZvfH6G3ryB0/q5MmTspcIGEODQ5qavPTYz8Azurk9o9+5vkv/4Y0zyrOMFOrddHd2UyxOL1VJlcwm46zaBw5r+ZGXKwrnTrLG6S3nuX/y3PcI5wDmD+ugAzUgaVNPyZi9ksrql9cwOaTGyaEFH7dowkgmZm30urkOPaMHrmnTR5c1K/GecD45MakfP/ljfeOvvqHjx49fMpxL0rXrr9XnH/78RVvPz1+/gadPrmjRR5c382wH9cs5KbbyCqG8XF4mJJzPNuOsmrJDWnbiNSWK2YrOjpGOOqf/dedj33qDmgQwnwjoQA145vtfGzFyL0gqe2mXnpO75bl4YXfcOZkC4yjrxfVtGd27tEkd6Xc7X01NTenJHz6pn//s5xofG7/ia3zylz/5gfHnF9OeCvS3N3SqJ5Og4lF/7HR39lxBplCUmBhxTjSNn9Xq/c8qlRuvZDMnadAZ/fHO733zR9QigPlGQAdqhXFPGaNDKrONpWXslNK5sYXf7djKFCNuQGtcyje6b2mTbm1/dxqEMAz13LPPaecLOzU5MVnW66y/bv1lW8/P8Yy0vDGpz6xqo/JRP9y7wdzLF0s9jDAn9ZzJj2vFsVeUmRySqaQXl9G4jPnKzse++R+oSAALgYAO1IjnH/vWq9Zpl6SykpAXR+o59WYlS8nMGRNGMlFEV/catrY5pc1LMhfM2H70yFHtemmXhoeGy36dqakpuTKvg5aEr48sb1ZTgj9VqHHOycRxqTt7vsD34RzXdSY7qhVHXlbjxGBl4VwqSvpuS2v696hIAAuFux6glhjzA0mHyy3ePnBIqdzEwu+3czKFUIYJv2rWupaU1janzv93GIba/cZunTp1qqLX2fXSLtlLXAfWWo2Pv9sV1TNSVzrQbR2NnADUpnPrmRdDurPPk3R+XMuPvarWoWPy4kpXgjA/Szrz//rRV74yRU0CWCgEdKCGRCm9KJk9kvJlfcDjSJ39+6ti3421MkWWD6pFCc9oTVNKyxreHQ8+MDCgo0eOKjtV0cRLev65F3TixIkPtKI759Tf36+nfv6U4vd0+20MPG1sTXMSUHOMtaXeQ/mCTL4o8YByziWLWfWceUstY6cqWuu8xL2elP7B04/3Ha7LygFQMwjoQA3Z1dc35mS/LeOOlbtN55l3lCxMVsX+mzCSV6RrZ61pS/rqSgcXzNx+8vhJDQ0NVfxap0+d0ne+9R3te2efRkdHNTkxodGRUR06eEhP/uBJPfXzpzQ6Onq+fCbwtK4lxUlA7ZieAM7ki6Vx5hHjzOdDMj+pnlNvakn/IQVhvsKt3R5n/H9KOAdQDVgHHagxUdr7STLvHnZOq2V0xabFRJhT96m3dGLtHVWx/6YYyvieXIKvn1rREHhqTPgX/Gx4ePiy65lfzp7dezQ0NKSbbr5JqVRK+Xxehw8d1oH9B9TY1Kgjh4+oo6NDkpT2Pa1sTHISUP2mu7MrjORFTIw5n1L5CXWf3quOsweUCHOVbn5UTv9i5+Pf+Dk1CaAacIcM1JhdfX1jdz34yDcl3SFpfTnbdPbv08Cy61VINy/8AUwvvSZj5AKfE1oDWpO+2pIXnqtsNqtCoTDj1zx96rROnzr9gZ/b2Gp0ZJRKR+04F8yjWF4YMYxnniWivDrP7ptpOD/spD/Y+aGbvq/vfYvKBFAV6OIO1CAXpn4io5flyhuLnijmtPTknqpZj9zEtrQ+OmMya0LgGQXv6d4uSVEYXTBWHFh03LllJEN5haK8QpFwPs+CuKj2oSPqGDw0k3A+YqT/lJkY/JK2b+fEAagaBHSgBu184qvjxrmvG6Oyp9Du6N+vxsmBqjkGE8XTk8bRDbTaTUVWU+GFYbyppUmZTGb2rwtj5NOzAlXOxFYmDM+PMxfjzOddEBXUPnREXaf2KpUdq3TzESf3Z75N/vmOHTuieqwfALWLgA7U6ofXtP7USS9LKqvZwItD9Zx6U37Fy87MHVMM5YUhk8ZVuZFCpKHChQGksbFRqdTsT97m+Z46OzvP/3dknSZCwg+qw7nVKN6dAI5stxCCMK/2wcPqObFbmcnhSjeflNGfZFT8d898/2uj1CaAakNAB2rUs4/99wkZ81UZc7ac8sY5tYycVMvIyeo6kEIoE3KTW80mQ/uBkNzT06PWttZZfR9jjJqbmrX6mtXnf5aPrY5OFjkJWFAXBPPCdDDnweKCCMK82gcOqefkHqWnRira1klF4/SNdGT+cMfjjw+VfgQA1YWADtQwX4Wfy7kXyx2L7sdF9Zx6cwZL0Mwd45wMLVFVLRtZnZoqarT4bkhfsXKFepb2KPBnrzu6H/haf916tbS0XPDeB8ar53rFIuPes2RaoVh6mMiwnAVzLpx3n96rdHa0slMpFY30DRub/9DVqAERzgFUKQI6UMOefeyxCc+Yv5BxZQ0uN86pcXJA7QOHquo4jHN0F61yhyYKOjLx7qztTU1N2rhxo9qnl0ObDY0Njbr73rvP/7dz0nAh1utDWU4A5td0MPfOdWUnmC+494bzzAzCueS+7sv929VNeqevr49xMwCqFgEdqHHJlJ6SzAtSea3oxsbqOrtPycJkdR1IbEst6czsXpX2jxX09mhe8Xu69d5w4w3atHnTrEwWFwSBtt69VeuuXXf+Z/nY6q3RnI7RxR3z5b3BvFCcnsiS76SFdr5b+wzCuSQZ6bsy+oPExBDhHEDVY6pcoMYd2bu3uHLjDZOSPinpigudG5W6ujvP00Tb8qo6FuNcqZXK96T3LeuFhZWLrRoSnja2prUkFUiSMpmMmpubNTQ4qOHhEdkZBhnP87Tphk363EOfU1NT0/mfD+Qj/dnbAzpCQMdcc04miuUVI3lhJBPFjDGvEkFYKE0IN4Nu7ZIkY35irP5tuLzj9ee/9S26aQGoegR0oA60r9lyOhFEt0tuvWSCK5U3zilRzGmydZnCZKaqjsVYS0ivUqPFWF3phNa3ppWYPjctrS1qa2vT8PCwRkdHKw7pxhjdctst+swDn9HKlSvP/zwbWf34xLi+dWREEV2LMVcI5lUtiItqHz5amhBuJuHcmZ84o39vMubFF7/ylQI1CqAWENCBOnD24Bvhius3jxrp05KaytnGs7E8G2lsyUrJVNdoF0J6dcpGVtnYalVjUssbE/KMked5am9vV8/SHnmep7HRMRUK5d0HNzU16WOf+Jg+/omPac3ated/Hjunt0bz+k97zmogT4MX5gDBvOolC1PqOrtPXaffnlk4l37sPPP/9VJ65vm+vlydVQ+AOkZAB+rE0g3XnvHkbzIyGyWV0YpulYgKyjW2q5BpqbrjIaRXp5FCrNA6rWtJqX26q/u5kL5s+XKtXLVSzc3Ncs4pO5X9QIt6MpnUihUrtOWOLfrYJz6mO++8U9093ed/HzunfWMF/fHefr0+zORwmGUE85qQLEyq59RedZ7dp1RufCYv8WPn9Ade2hDOAdQc7nqBOnLvgw9/KHbmK5I2qIxJIJ3na2zJSh3e8BFFQbIqj8kFgVw6Keczp2W1aEv6+tTKVv3mdR1a25y64HdxHGt0dFTDQ8MaGxvTxPiEJiYmZK3VkvYlamxsVEtLizq7OtXe3n7BtnY6nP/h7rPa2T+piOCEWfsiKQVzE8UycSwxGWXVShYm1XPyTXX0H1AinFG2/rFz+oPIFJ7Z9fjjPOUDUHMI6EAd2bZtW5Bv7vhdyfy+pMZytokSaZ1adavOrrixao+LkF59WpO+7uxq1G+s79AtHQ1KXqKXQxiGKhQKcs4pk8koCC7euSN2TrsGp/Qnbw/qpf4pwjlm6ctjOpiH08GcGdmrWjLMqefkHnWc2Uc4B7Bo0cUdqCNHjhyxa6+98aDz9UuSVqqMVnTjYiWioiZbuhUlqmvCuPP7SHf3qlOInU5mi9o/VlAhdlremFRj8MHLzfd9JZNJpVIped7FL8eBfKS+wyP68r5B7R7OXbCUGzAjdnq5tGJY6soe05W9qjmnTG5MK47uUvvQEcI5gEWNgA7UmWMH9mZXXHfDSWPMw5Ku2G+9tOxaKCNponWZXJVNGHd+Pwnps8qzsRomhtQ6eFwNE4NKFqYUpjJyXlD2a8ROGsiH2j9W0JsjOU1EVk2Br8aEJ99c+Rwdnyzq20dG9N/e6tcvTk/o2GRRRChclQ8Ec0swr3bOKZ0b08ojL6tt+Jj8aCbLKprSmPOM+cWL3/kOY84B1DTucoE6dP/9v5saSZz+P+X0d1XWgzijfKZFJ9Z8SCOda6v62FzgyyUTcomgqvezGhlnS6F84KiaRs4onR2TH5ZmXLe+r6nWbvWvvlnjHSsqfu2EZ9SeCtSRDrSmKanr29Ja2pDUqsbk+SXZcrHVicmiBvKR3h7L6+hEQWdzoQaZqR1Xy1p5YSxF0bsP81D1jLNqnBzQspN71DJ0XJ6dwXeBMz9xnv49s7UDqBcEdKBO3f3Z3hXO2Gcks6ac8s54Gm9brqPX3lOVs7pfsK++L5cipJdXWU4Nk8Nq6z+s5uFTSmfHFBRyCqJ8Kci8h/UDjfSs04kNdyvXtGTGb5nyjRoDX2nfKB1458dZxE7Kx1aF2GkyilWMCVG4SrGVF0ZSFJeuZ1rLa4ZxVk3jZ7X60E6lc6Py4hk9qPupM+bfEc4B1BMCOlDHtj7w0G8aeV9WGWPRJSkOkhro2aiTaz4k61X3CBjneXLJQC6ZkAxfZe/lR0W1DJ1Q49hZtQydVKKQVVDMKYgKHwjl7xcmMzqz7jadXH8nFYkq/fBLJo5lwkiKYxnrCOY1xthYbaMntOLILmWyIzM6f076mYz5t5n2xl/s+PKX89QqgHpB8xNQx3KFxm9n0rlPGKe/WU55PwrVOnJcUy3dGq7yru7GWpliKOdU6vK+iMel+1GoxvF+NY2eVePoGTVMDMmPCvKiUH5UlKng5jcR5kvbhwXFiRQfIlQP52RiK1OMZOJIciKY1yDPxmofOKQVR19Wspit+Bw6qWikbxhn/zA90bJ3x2OEcwD1hWYnoM7d8/nPX2vj4ClJZQ0srqWu7pIkY+QSpZb0xbIMW6KYU+NYvxomhkqBfHxQflSUF0fy4lCeja/q9cc7VuroDR/WVGsPHyAsvOmJ30zEpG+1zrOxlp14XV2n3prRTO3nwrkv928TE0Pv7NixgwksANQdWtCBOvepW289/MOX3/xfZNxflVPeOKumiX51n36rJrq6yzmZYlha3ziVlAvqa3GKIMwrMzmizMSQGsfOqnF8UIlC9nwQN3F01YH8/bw4UhAWa7TGUDdsqbXci6bXLyeY17QgLGj5idfUefod+fGMvl+KRuabst6/Wd5g9/U9viOutzoCAIkWdGBRuLu3N+Py9iuSebjcbfKZVp1afZuGutfXzHE633t3hvcaG5fu2VjJ3LgaJoaUnhpTempEDRNDSuYnSyHcWRkbl/7NcVAZ7V6rIzduU76hlQ8P5l9s5RVDmWh67XKCec3zo4LW7/2pmib7ZzoZ3IiMvm6c+48r097+vr4+wjmAukVABxaJez7/+WttFOyQ0cpyyjtjNNG6XMfXbVW2sb12DtQYuWRCNlV9k8cZa5XMTyqVG1cyN6nM1IiS+Qk1jA8qmZuQcU7G2VIAd/bd/z2PwnSjTq+7XafX3i7H5HuYL266Gztrl9edTHZE1735IyULUzLOzuQlRpz0Zxkl/t22LRuHt2/fbuutjgDgvbj7AhaJ3t5e/1hOXzDG9ZW7jfV8DfZs0PF1d1V/V/f3cUEgm05K8zQu3TinoJhTempUXhwqMzWioJgvhfH8lBL5KaVy4+fLSm46iDsZVUcrYRwkNbDyBp3YeLciJojDfLBOXhjKFKNSN3bUlfaBQ1p9eKcShakZbe+kUWPcfw/i/P/nme9/f7T0IwCobwR0YBG5+VO/2diQyv5HyfydcreJg6Ty6RblGts/MGlcId2sYqrxwp8lm/7/7d17kFznfd755z3n9HWm59ozA8wABEQSIAWQ1AUkQYoSBXs3VpjY0jKbictOJZVNeb3ezW5clWxqvZUth7Xeyq6dUja2Y8fWqiIqimPJoExKokRLlhJQF4IgDYoEgQFAYoABBnO/z3RPX84577t/9MwAoCgSmAvm9v1UdREznD7d/Z6DRj/ze9/fqzCVlTPr37DNeV5tv/RkoFt5u/OjqjJzk/LctVmU2bkJ+dVas+AgrCgzNy6pNjW9fnp44QFVC9vSdYHb1R55g1YEreerUtekueadmty5TzOtu+W87dFsD+vHRLVt0kw1ZDC2qJ0Dp9TZ95o8u+w+bpeNc/+qOtT6uZMnP8eFAmDbIKAD2+zv/OO/0L23YtzzxunAMu7+vt/6aTE0TNapmqp/z/A317hj1V6oF4dKleZqzYg876duw5adHVcQlm/u1bqbeaUbn/M8lepbNblznyY696mcbaq9Gqa0Y00vPFdr+rbY1BFbkh+FuqP3R2odu7jcKe2SXL9x+p3jz3/1D0TVHMA2w6cxYJs5cuRIUK3P/6w17i9IZNuDWTjNcZDUyO4DGu+6ly3UcPuuP6rl20ZmflJ7LhxX/ezwcvtnOMmcstI/eeUbR/8zIwpgO+LDObANHenuri9X3D+V029KYj7zFmKMkTFGnufJ8zy1tbfpQx/+kO6+Z78KzZ36tRODstSjsNZYW76tGOfUOHVVd/S+pFS5oGUWvauSedVKv0k4B7CdEdCBbeqhv9G9w/fdlyU9znvB5rQYxI0x8n1fnuepc1en9u/fr33792nf/n3KZDJLPz9VifUvXx/UC/0zDB5Wn3PXquWLW6Rhy/NsrPahHu288rqCqLKsK0dSxTnzYsrof/z+N45eYlQBbGcBQwBsT68+fHD043/1xq+H8l8wRjsZkY1tsSLueZ5835fv+2pqalJnV6e6dnXp7n13a9/+ffLeY41/Q9LTL97Vou8NzKpKGR2rwTkZe22LNKrl20dt54p5dV59Xa0jF+THy1rC4CQz7Yx91g8y//v3n/3SKCMLYLujagZsY492d2dU1pNO7o8k5RiR9ef5nnyvVg0PgqAWyANf+XxeXV1dyrfltWfvHu3avUu5XG5pffnNmihH+p1Tw/rmlWkGG8uzuD3gYrU8jmnjtc14NlK2OKldl15V/ezIMpvBOSeZURn3Jw2N2d/8zpe+VNxyAwUAy0BAB7a5j//NX26OTPUfy+g3JKUZkbV3Q/heqIYv3vJteeXzebXmW9XZ1al8Pq+OHR1Kp1fn1ETO6eT4vP7RDy+rHFPtxE1yrlbrjOOlYM4U9m15IciPqmoZu6TO/teVrBSWeRRZ48wl57l/d+Lrz3yWcQWAawjoAPTYz3ffERv3/0r6tFj6siLGmJ8I357vLa0RD4JADQ0N6ujoUFNzk5pbmtXc3Ky2tjY1NzcrlU6t+XMcK0f612/WqujMdMdP9c5QHscSv9TZtoyzSpYL6hg8rdbR3uWuN5ekUNJp5/QbJ55/5juMLADciA/iANSZ0cDVUvTbVsGdMnrA3EJn9yAI5Pu+3DuqaVEUyW6R9aguSCpp3NL67kQyIc94kpFSqVqg9j1fQSJQIpFQW1ubstmsmpublWvMqSHXoKbmJtXX1yvfll/319Oc9PXk3ma9MlrUSImtr3D9xe6urStfCOaKLdXybc6PQ2UL49rZ/4ZyM0PybLy8AxkVZM3LXuz92ksvfKWXkQWAn0QFHYCkhfXoJf11Z9xnJX3gZu/X3tGhnZ2dSqVTN7yhjI9PqFwu3fCzzjqFYah3W7BarYZyaxzog0Ttlwnvx/N9BX4g3/fkGU9xfpd2BqEyC9PMF6ece76n3bt3yxijbF1W+fz6h++bNVmJ9IXz4/ri2+NU0bc7Qjne49pIRGU1jV/WjoE3lS6taAeIUcl9y5nkb5z4+p+OMLgA8O4I6ACWPPzkk61+lPjvnOz/Jumm0mZdfZ0+9omP66HDh1X/Pk3LwmpVk5OTiuOfrL6Mj42rWqms6etrbG5SXV3d+7+munrlGnKqy2SUSiXkL3RP30qsczo1WdI/O9GvoXmq6NuOczLOSYRy/BSejZUqzaht5C21jPUqUS0t+1hGuuiM/jidMn947OjRwhYaJgBYdQR0ADd49Oe7u6xnf90473+QXMPN3Keuvn4hpD/8viF9s/GMUSqVVCq59YL6ZCXSl96e0NNvjSukjL71vSOUK4plCOV4F0FYUf3ssDoGzyg3M7zMLu2San0pTxtPv/Xy15/5c0YWAN6fzxAAuN7Vt3rm9t5z3xVrXJeR7pKUeL/7hNWqRoaHa13I83klU6ktE9KdpCiKa1PwJRkZGaMt8foygafmVKBTkyWNlSMu/q3ILkxdt1ZeFMlUQ3nVsNb0jV/K4B2MjZWqFJUfe1ud/W+orjAus/w99OYkfc8p/scnvvHnxxhdALg5BHQAP+GRBw5Oz0S2XzJ3GmmvbqJp3GJID4JArVsspEvXBfUwlF2oOBrVgvpmfp1p38g3RifHi1TRt8qF6mqB3MQLoTyM5FUI5XhvQVRRbnZYOwbeVH74bSXC+ZVch5ed0TO5tPlHP3juq5cZXQC4eQR0AD+hp6fH7evsGI7SdUPG6T4ZdegmQ/rwFg7p0kJQj2NVw0jxDU3tNmdQT/qe6hKeLheq6itUufg35UVZm7puYisTx/LC6yrlsSWU4z0ZZ5WqFNQydlE7r55Sw/SQPLfcLu0mNNKPJff70VDr//2j735pfmuNFgCsPQI6gHfV19dnW/ccGgm8aEJGB4zUfjP3WwzpfhBsuenu7xTHVtUwVBxbWeukxUnwm2wKfDbwlPQ8vT45r2LEPtcb3lKVvLaW3IuszGIoD6NaKGddOW6CH1VVPzeq9qFzahs+r1R5biWHm3XSX8rpt9KFieeOH/8q62YAYBkI6AB+qpHeU2HXffcM+bGpOGPuNVLzzdxvcbq7c05NzU1KZzJbNqRLkrVWYRQpimJZa2Wdk3PaNEE98IzqE75mQ6ueqbKIdhvxIluYtm6tTBRfm7pejWSiqPZ9Thxu0mLVvHm8Tx0Dp9U01S8/Xv5uDs7pojH6U2vtb73y0P1v9D39dLyFhgsAbisCOoD3NHDuXKnr3g9flnPWeLpX0k11dg+rVV290q8wDJVvyyuTzW7pkC5Jzrlr09/jWNY5Wevk5JbWq29U2cBT2vd0dqakCRrGbYSL6dq09esCuQmja1Vypq5jGWpV8xG1D59X29A5ZUozK2kEFxrpFcn9O98Lf+/l558b0bFjXJgAsAIEdADva+D86eKe++7td7FJSdovqe5m7met1fDwsMIw2jYhfem1O6coihVGkeLY1qbBu1pYl7ThArsxtSq6ddLpqZIqMZ+xbyt3rdt6LZDH1wJ59Vogp0qOZf8dd1bp8qxaxvvUMXRGTZMrq5obaUzS13xjP5uaa3j+B9/+CuvNAWAVENAB3JT+s2dn9tx7sN9JWUkf0E2GdGetRoaHVS6VVZ/LKZfLbam9xG+GtVZRfH1YjxVbt7BufeN0gk/7nnIJX6OlUH1zVbEafQ0tBfL4WiBfnLYexgsd11lLjtXhx1U1Tg2ofeis8qNvKzO/oqq5JHdWxjztO/PZHx26/82+p/9NuGUGCwDWGQEdwE3rP98zsfueD16SU4OMuUtS5mbu56zV0OCgZmdm1NzarIbGxm0X0hcthvUoihXFkaLYKrZW1lo55ySzvtX1XMJX0jc6O13WVJVlpKviHVufLU1ZX6iSE8ixVoy1ysxPqXW0V+1DPWqcGpAfr2QJi5uXzHed0R9mvPg//ODrf86UdgBYZQR0ALfk6ltnx3fefd+A8bRD0p1GSt7sfScnJjQ7MyvfD5Rvb9u2IX2Rc05xvNBgbiGsR1G8roHdN0a5hK9SbHV2psze6Ms7sT9ZHQ8XK+SL4dwSyLGmgrCipqkr6hg8q9ax3pV2aJekC5L5M0/2d5uj0n/57vPPFxllAFh9BHQAt2x/V/t4lEwNGc9rl3SHbjGkj42MKJPJqKW1RUEQMKCSnKtV1+OFqfBRHC9V2uM4VhzXAnstz63tlPhs4CmX9NVfDHWZvdHf98TdEMYXq+GLQfz66rh1BHKsOWNj5WZH1T58TvmRt5WbHZZnVzQbJjRGLznZP/Kc94VPPXj/W5///OfpJAkAa4SADuCW9fX12X2dOwajVPqKjOnQLYb0YrGosdFRVatVdXV1EdLfhXPuusAe3xDYozhaqLTHtdC+cJ/VDO0NCV++MbowU9Y0U91v7Koe29r+4+F109SXquTxQkM3KxHGcZuv0VRlTvnRC2ofOqfmiT4lqqUVHtQMSnrGOP2B74Xffukbz44fY0o7AKwpAjqAZenr67N37+wYilLpK07eDiN3h2QSN3v/+WJRw0PDstaqpTWvdCbNoL6HWoXdKb6u4dz1oT1c6BgfRQtr2p1dUXAPPKOWVKCKdbowU1Z5u3R1f9cgvhC8Fyvj8TvDuCOMY135cajmicvaMXhGLWO9ysxPrXS2Rii5lyX9cWDtv+/Kem/8xbPPlhlpAFh7BHQAy7YY0m0me9k5b4epVdJvOqSHYaiRoWHNTE+rY+cOZevqtvBorb7rQ3u8VF1fCOxxrCiKFEaRwrD2dRzHsvba3uzSe4f3bOCpJRVoZKt1db8+hC9sa1abnn7dlPTFIB7dWBU3jjCOjaV+dkQ7Bt5UfvRt5WaGV9gETpI0LKc/8z33e54Jv/Wj558b6enp4aIHgNuEgA5gRWohvX3I1dX1yWmnlhHSx0ZHNT42pubWVjU1NTGoK1SbHr8Y3O21Snt8rdK+eKuGkcJwoRpvFwN8bc92Oadc0lPG99VXqGi0vAmWnS6G78U9xa8P4Itrwq8L4t5iAI9q1fKl+ywGcWIJNqh0aUZtI2+pY/CsmiavKBGucDq7MaGcTjijf+vH0Re7sgFVcwBYBwR0ACvW19dn79rRPuyS6YvOmC5Ju3ULId05p4nxcY2NjskYo86uLgZ1DdSazLmlEP7O8L40VT6Mrk2ZD2NlPKvRYlVvT5UUL1aSrZNxqoVhd13zs1VYB18L1+6GYy8FZ3tt6nmtsr0QvKu1PcQX14SbhX3Fbwjg11fCCeHYpIKwopaxi9ox8Kaax/uUKU2vcE9zSTIjMu4rcvpdxalvv/zC0WGq5gCwPgjoAFZFX1+ffeRD9w3NWtfrrFLGmDskZW/lGDPT0xoZHtH8fFG79+yR7/MWdTstBfjFBnULN9851XnS8FxFQzNlmSiWFsLx0hTwpdtCUF7pLfrJYy+F7fj6qvd1N3vdLw8WO6YTwLFFeDZS41S/dgy8qdaxXtUVxuTbFc5qcSob6bjkfj+27ot7st6p73zty1TNAWAd8ekXwKrp6elxjz5w3/CcNacl5STdJSlzK8cozc9rZHhEkxOT6trVpXSa5nHrzRipKeUraaSrsxVNl6PrppFff7OrdHubReDPAAAfTUlEQVSXYy+FbUI3tp/62VF1DJxW28hbys0OKwhXI0ObfklPG6ffdzb9vVe+9WdUzQFgAyCgA1hVPT097ur5nsnOew6eNVKDZO7WLYb0xXXpoyOjam5pZl36BuAbo7ZMIOek/rmqitGWaRkHbFjp0ow6Bs6oY+isGqYHlKwUV9qdXU4qGulFOX3WyHx5V9acp2oOABsHAR3Amhh4q2f6jrvvPWN8M++kg5Lqb+X+1lpNTU5qZGhYRkZtHe1MeV9nSd9TWzahmWqs/rmqQkuxDVgLqdKs2ofPacfAaTVNXlG6PCfPxSs9bCzpojH6Y+eZz5YqmRMnX/jTCarmALCx8GkXwJrpf/vszN47D56NfTNjpA/rFkO6c05zc3MaHhpSoTCn9vZ2pryvs0zgaUc2oZFSpMFCuHW2XgM2gCCqNYDr7H9dzRNXlC5Nr3yduSQ5zcjoq8bp/0pE5vmXnj96eaT3VMiIA8DGQ0AHsKauXOiZ3/fB/edjZy5K5kOSmiTddKtv55zK5bLGRsc0NjamxqYmpryvI2OkXNLXzmxSVwtVjczzGR9YqSCq1oL5ldfUMn5Rmflp+XGole+JoFByr1mj/yNy3tNxZ8uZl7/ypTlGHAA2LgI6gDXXd+5cueOeuy/6Cs7KuftlTJsk71aOEYahpiYnNTgwIM8w5X09ecaoOeUrl/R1pVDVVCVmUIBlCKKqmscvqevySbWO9SozP6Ugqq542zQnWclcNUZ/4Jz+hZ/xXnnluaMTQydPMukFADY4Pt0CuC2G3norvP+uPf2VROr7zulDRurULYZ0a60Kc3MaHhpUsVBUe3uHUkx5XxeeMerIJpRLBroyV9FMlZAO3Cw/qqplvE9dl08qP3pBmfkp+XF1FfYzlyQVjdyfGuP9c1PRN15+4ZmBqz090WYfMwDYLgjoAG6bCxcuxL/yS39n/OLg2LdlXF4yB3SL70OLU96HhoY0cHVAjc1Nam5pYXDXQeAZddYnFFqny3NVlejsDrwnPwrVPHFZuy+/qtaRtxemsq9aMI8k/ZWT+2fJyPt8sjh24Yff+1aRUQeAzcUwBADWw6Of6m5xSfdrkv6FpORyjuH7vlrzeR16+EE9dPgRZbKZrTVIm8R8ZPVs75S+dnFKk2UKdcA7+XGoxqmrahs+p+zcRC2Uu1X8hZbTmPHM/xlFeibvClMvvPBChVEHgM2JCjqAdXG1t6fUsnfXa36QfE0yf81I2Vs9hnNO8/Pzutp/VWOjo2ppbVFDQwODe5slPKP9TWkNzYfqL1QVsf0aIKkWzJsm+7X70itqHz6rdGlWvg1Xq2IuJ00bo99zzv3PJm1ePPG1o9MXLlxgvQkAbGIEdADrZqS3N9yRy/Z6De3fMsZ+XFLHco4ThaHGx8bUd+mSgiBQe0e7PBrI3VaBZ/TBloxG5yMNFkNFjpCO7SsRltQ61qtdl15R+/A5pcsz8my8asFckuT0ZSf/V7y0vvryc8+MXu3pYUsFANgC+AQLYF0NDQ3ZgfN/e2zPPVefs/I6jcz9yzmOc07zxaJ6L/RqdHRUrfm8crkcA3wbpQNPD+SzGiqGGiyGignp2GaCsKz86Nu64+LLah29oHSlsBDMV4+TjnvGfSbdmvv8jw7sG7r6h39IMAeALYQ16AA2jAPd3clc2f2KnP6lMWpc7nGMMWppbdFjjz+ujzx4SGk6vd9WhdDq37w+rONDc6rEhHRsfclKUW1D55QffUuJaml115cvMuZl6+xv+2nv28ePHi1L4i8XAGxBVNABbBhjPT3xf//Lf+dkb//4953nDhupfbnHKs2X1HuhV2Mjo2rNt7I2/TZK+kYPdtTpylyooWJVZHRsRcY5ZUrT2t33qvZeeEkN0wPy43B1p7HXDMjZf2rS3v964tlnTrNlGgBsbVTQAWxE5vHPfGZXNU78joy6tcJfJuYaGvTwo4/owcMPq7GxUcbw1nc7zEdW/+rksE6MzKlKSsdW4Jx8G6l+dlgdgz1qnOxfq0eKJQ0Yeb9fLbn/7+R3j84w+ACwPfApFcCG9Wh3d0bz9pecMf+PjFoleSs53u477tDP/Nf/le7ad7cSySRB/TaohfQhvTJSVCVmn3RsRk7GOflRVfmRt9U61qtsYXxtHqi2l/lVyftjG4Sff+XZZycYfwDYXvh0CmBDO3LkSFBpavuoi91vS3pE0ooWlCcSCR184H594pOfVPuODvm+T1BfY/OR1Rd6xvWdK9MqhoR0bA7GWXk2Vnp+WvmxC2oa61OyWlyDR3JOMhVJVyV9wQviz7/07LOjnAEA2J74VApgU3j4ySdb/dD/dRn9L07KaYXT3hubmnT4sUf1wIc+rKamRvlBwCCvsS/2jOvZi1MqhGzTjI3JOCdjI3k2VvPEFTWP9apxemCtHs5KKknql9Of+F7w73/09S8PchYAYHsjoAPYNB7t7s6Yef1s7Ll/bqQHJNWt9Jidu3bpE598XB+46y7V5+rls3/6mnq6Z0zf7JvRVIU+V9g4PBvLi0OlS7Nqmbik5rGLSlaKa/VwVtK8kS5L5s8iz//Cq1/7cv8mGi4AwBoioAPYdB76zGd2ezbxT4z0S5KaJSVXesw777pLj//sEXXt2qVsNiuPoL5mjg8V9HtvjGiiHMrSOw7rxDgrPw7lR1U1zAypafySGqeuyrg1uiiNQjnNSu6qjHnOOvPFV75x9BJnAgBwPQI6gE3p537u79XNJud/Vp75n5zTI0Zq0AqbyCWSSR2476AefPghdezYobq6OoL6Gnl9fF5/dGpUfXMVRaR03C7OLYXyTGlKTRNX1DLRp6BaWstHrUqaltRjpC9Hsfnaq986OszJAAC8GwI6gE3tsZ/vvsPK/Yqrbce2R1JmpcdMJJM6eP99OvTQg2rv6FB9LifP8zb/YG0wVwtV/ds3RnRqYp5t2LB2FrZG86OqEtV5NUwPqHn8srLFCRm3Zk0LnaSyZMad0SnJ/Hmg8l/86OtfZ405AOA9EdABbHqPdndnXNU8Jmt/VdInJOUlrbjrWzKZ1MH779dHHzykto525RoaCOqrrBBa/e7rwzo5WtRsleZxWD1eHCmIKkpU51U/O6rczKAapofkx9U1e0wnWSMVJDMg2R/LmK+6MPXdEy/8ySxnBABwMwjoALaMT3zqb+0ME6ZbnvlF43TASU2rcdxkMqn7HrhfHz70UbW1d6ihkaC+miLr9J/OT+gv+2c0Mh/JOqrpWJ5aKC8rCCuqK04oNz2k3OyQEpXi2q0tr4klMyXZS8bpJeu5r7WEpZdeeOGFCmcFAHArCOgAtpRDv/qrieTwxH3Wmb9vpL8u6Q5J2dU4di2oP6AHPvJh5dvyamxqUsD2bKsidk7Hhwp65sKUzk+VFLIuHTfJiyMlwrKCsKRscVL1s8PKzQwrWSmu5RT2RVXJDUq6JGNetNZ/7pXnv/IGZwUAsFwEdABb0gM/9/fqMpnKJ42zvyznHpNMp1ah27skpVIp7bv3Hh247z51dnWpobFBmUxmk4/Y+rPO6eJMVf/x/LhOjc8z5R0/lWcjJaolJcKSMsUp1c+OqH52RKny3O0I5VZSwUj9Tjoj474lL/Hiy899uY8zAwBYKQI6gC3t8Kd/qUOq/k3jzJOSeUhybVpht/dFvu/r7n37dNf+fbpjzx61tLYq15Bj0FfASZooR3qud0o/GJzTcDFUzJR3yMmPIyWq80pU55Wen1H93Kjq50aVKs3ejlAuSbHkBp10yRj9lZH9y1RL47FjTz9d5vwAAFYLAR3AtnD45//bfcYzvyinT8npgIyatEpB3fM8tbW36Z4DB3TX3XepNd+mxsZGBQmmvy9XKbL64VBB37k8o3NTJZUiy6BsM8bZpSZvyXJR6fKM6ubGVDc3qlS5cLuehpNUkNxVyZx1zvvPvgtffOmbz57mDAEA1gIBHcC20d3dneyv2o/Ier8g535GRg9Iql+t4xtjVJ+r1/577tWeD3xAO3buUFNLs3I5qurLEVmn3pmKvtU3rVdHihothQzKFmecVbJSrN2qRWWKU8oWJlRXGFMQ3t5CtZPrN/IuyLnXrKcTfsp87/jRo5OcJQDAWiKgA9h2uru7k1fLetTJ/S3JfVwy92qVGsktSqZS6tq1S7v33KE9e/cqn8+rqblZyVRyk47a+pmpxPrL/hm9ODCn3pkye6ZvKU5BWFGyOq9kpaBkpaC6woQyhQmly7Pyo+rtfkIFyZ2VMX3OuhcTsj/84fPP0vQNAHDbENABbFuPffof5mI3+3E59zdkzKOSDkpKr+ZjGM9TLpfT3g/s1e49d2jHzp1qzbcp15CjA/wtqMRWPZMlfefKrN4Ym6eavon5cahEZV7JalGp8pxS5Vml56eVLUwoVSmsx1OqSrpiZE5L9pzz/O9ZL/3jV579DxOcLQDA7UZAB7DtPfbpf5iL7MwnjDGfMtLHJN3vpNRqP04imVC+rV27du/Szs5Odezcoba2dtXV17Gv+k2wThorhfrhYEHfH5jV21TTNwVj7VIYT1YWQnlpRunSjDLzU/LsenXrN/2S65X0Yxn3hqrxiy//xXOXVVt3DgDAuiCgA8CCw0/83Qb55Y/LmL9mnB5eWKNepzV4r0xn0urYsUOdXV3asXOn2js6lG/LK1tHWH8/pcjq7GRJxwbm9OOxooaKVNM3ksUKeSIsLU1bT5dmlZmfUqo0qyCqrOfTm3Iyb3qy55zRjyX35mzKf7Xn6NHqRhk/AMD2RkAHgHc4/MTfbbB+5aHAuMeszCclHTa1oL4m6urr1dHRofYdtZDe1l77cy6Xk+/7nJB3sVhNf3W0qB8MzOn8VFmFkH3T14MfVZSolmrV8UphYdr6nBJLVfN5rWdR2knTxum8jDsrY84aZ06k/PCNY889NyOq5QCADYaADgA/xRNPPJGaSmQelPOPSO6jkn5GUvNaPmYqnVJbe7s6duxQaz6vfFte7R0damltVSKR4KS8QyV2ujRb0fGhOR0fLujybJV909eQcXahqVtBqdLcUnO3RGVeqUpByfKcgqgss97nwGhG0jlndUZGZ+V0KvCC04nZ4dFjx45FnEkAwEZFQAeA9/HEE0+kZryGfdaPPiFrHpPRxyR9YK0fN5FMqrm5Sfn2drW1tak1n1dLa6taWlvV2Ngoz2cq/KKZSqxTE/M6PlTQa2NFjZfIYKshiCq1aerlopLVghLV+Ruq5YlKUb6NpI3xS5FZSecknZJxZ528NxXEZ6PL+ZGTJz/HOggAwKZAQAeAW/Dop7vvtnIPGqcPO+lxI31Eq9z5/d34vq/6XE5NzU1qampSfiGwL96ydVkZs73f0mPnNFyMdHKsqJcG53R2qqRiaLlob4JxTn5UVbJSq4onqiUlqrX9yBPV+YXvzSsIKzJuQ43pmDE656RzzqlHxpyxxj9nOxqGT36OUA4A2HwI6ACwDEf+m3/QVLKzH/Gs/6AzOlzbT10dt+vxk8mkGhoa1NDUpMamRjW3tKixsVH5trxa821qbGrctuemHFv1zVb1xlhRPxyc04WZikLLtPdFxsZKVucVhOWFaekFBWFZiXAhmIcl+WFFibAsz264mQixjIaMU4+cOytPp4zcBWP9vqmMhmn2BgDY7AjoALACh37hF7Ipm73TefYByT1knY4Yow9qDbZpey/JVErZbFYNjQ1qaGhUXV12aWp8Y3OTGhublMlmttW5KYZWF2bKOjla1MvDBfXPVbdVUDfOKVktKgjLC+vEi0qEZSUrRflRRUFcVVAtKxGW5MXhOm539r6qcq7feebHxuoNZ9xZX+5KGPv9e+s0dvToUboDAgC2DAI6AKyC7u5ufziO2+PQ/6A1ukdOn5TcIUl3r9dzyjU0KJfLKVuXVTZbp/qGnJpbmmuhvalJ9fX1qs/ltvy5mapEenu6opeHCzoxXNBYKZLdQo3kgrCiICopWS7Kt6HS8zPy4kjJakFBVJEfhQv/rf3ZjzdFkbkg6XUjnbHOvSnpUuzsFVcJ+k9+9+gM7zgAgK2KgA4Aq+yJJ55ITXkNd1rf3uk7HXJyj0h6UFLbej6vIAiUrcuqvj6ndCatVCqtuvo6NTc3q3FhqnxTc7Oy2ayydXUbYzBXSeycxkqRemcq+quRgk4MFzVeDrVZCuqp8pyMjZUuz8o4q/T8jPw4VLJSkB+H8uJIflSR52IF1bI8F8uPNtNsbxc5o4vGmdOSec05nZfxrhrfDKen08PHjj1d5p0FALAdENABYI10d3f7V6XGuOTt9r14v7M6LOkTqk2B3xCla8/zlMlklE6nlUqnlclklEgkVJerV64hp4aGBjU2Nqmuvl519fWqz9UrnU5vhKe+LItB/dJMRa+MFHR8qKDJSrSuQT2IKgrC8kLVe16ejZQsFxYC+Jy8OFIQVWtbnEUVyTkFUVme3Wwh/AZOTiMyetOTXo2NOyu5AevMaMqWB3/4zW9O8Q4CANiOCOgAcBscOvSrieye8XxU9Xc7Y/fK6bAz5nE5fdAYbbhyte/7SiaTSqZSSqVSSiQTSiaSSiQTSqXSyjXkVFdXp1xDg1KplOpy9cpms0omk2psbFKQCDb0+Yid03gp0qXZql4entNLgwVNVSKtVk73bKRkpSjjrPwoVKI6v1TVDsKS/DhSUC0piKsyNpJnYxlr5dtw6T61/1Y3Wtf0lRh10mnPmDfl9Kac64sVjwcJDSWnpibZnxwAAAI6ANx2B7q7k82VSj6KUzs9uTudMY84Yz8mYz5onDZ8+3VjjJLJpIJEQslEQp7vK5FIKEgE8j1fyVRSxnhqbGpUJpORMUbZujrlcjkZYxT7gTrb80vbwlk/oZbWVqX92/9P0mJQvzxX1XO9U/rxWHGpkVxmfuqG/b2NnFLluaXO5sbaWqV74WsvjpQqz9b+n3PybCjjnIyz8uJIRk7GWnk2WvheLOO2dH+zK5LrlcybznhvGGsvGt9MKNakMpo8fvRoiXcDAABuREAHgHV0oLs72RrHrdXItMn4u3xnP2qdeVhyhyW1b+bXlkgm5PuBjGrr34NEQsZIznjKpBeb3BvJGCVTKfnX7+Pu+woaWtSWXbtK/EQpUrkwKy+syFqngUJVk5V4qYGcH1Xf8Y+kkxfXQnftmbta8F4M8c7Kj7f11ttvSzpvnN50xr3uOa8/NHY2aRJTNhVPEcgBAHh/BHQA2CCOHDkSVNraGkzoNceR3Wlk7zNGH7MyD3vSXnebt25bV8bIBEml1rCqXrVOcRTK2C0zhfy2cXLTxpkeGXdWMm8bY94wnoadVSEINTNRrxn2JAcA4NYR0AFgA3rqqae8Y2fOZEuFuMkGptFzpssz5hErHTbSISfXZiSPkcJtMCuZSzLuLVmdMsadlvMGYxtN+15QTAVhsS2RmGM/cgAAVo6ADgCbwJEjR4KorjPnTJiLfNX71u2zRg/KmQed3ENGahHv6Vi5opP6jMw5I3tK0ilr434Zf1axKyW8SnEymy32HD0aSto6m8kDALBB8GEOADahA93dyZb5RF1swmxsvbqEsffGnh6W3AfldFhGXYwS3kMkmVHJnXXSBc/pspV7wzO6GMurxIm4HFtbqiYS84RxAABuHwI6AGwBB7q7kxkpk4qilComYz21esZ7xEoHjdHDzuleSfWM1LZjncykkTvj5M4b6YqRzsjzep0J58KSV/GzrpqI42p5x47yyc99blt3uQMAYL0R0AFgK3rqKe/QyZNppdOJoBKk/aiStp73ASN30Bo9YGQOSW63ZDZ1p3hcY6TjTmZGxvYYZ/qd1ZVEYM5FsWaCWNW5VBg2JRLRqFSlKg4AwMZEQAeAbeLIkSOBtDcIGyYToe8nU8Yko8jskDX3S7rXGXenk7nPSHdKyjBiG86wanuL9zuZfiPvinNRv2fM6Sj2poNY1VQmtEokoooUz0gxQRwAgM2FgA4A29lTT3mHBgf93FtVfzI56Gf8Nt9Pz6dtaHYZE9xjndsjz+0zTnskt18yuxm0NVFy0kUjTUk6J2lCzvUZo2E5b9B6weUoFZXTlYqdKzfausayHSsU7K5SKT527FgsQjgAAFsCAR0A8G687u5uc/Fis1e6c8q0j9V5c7kJL6w0mbpM+U6F6nKe3S/fdMjqDid1GqlTTntllGb4JEmhZAaMcf1OpiJnr8ozg8a6ijO6bCJvJPaioaTLXJkNx6t1jY02NVbnRtuKNtPc7HJvveXa2trc0YMHnZ56is3aAQDYBgjoAIBbVfu346mnzFOSzpw5Y8bGxowkzc3tNzokZfun9lW9uMNIvvG9h7QwZd45HdSNW8J9chO83hff8XXVGL28+IWTCorta5IkPygZ6/qqnc2jOinlcm8tVbbb2trcwYMHnSQ9VRs/d+0QAAAABHQAwMZhPvbkk2029A/8tB9wRo2eMfudXN1NHdDZfuu8fiNV3/dnM+bE8aNHS5wGAAAAAAAAAAAAAAAAAAAAAAAAAAAAAAAAAAAAAAAAAAAAAAAAAAAAAAAAAAAAAAAAAAAAAAAAAAAAAAAAAAAAAAAAAAAAAAAAAAAAAAAAAAAAAAAAAAAAAAAAAAAAAAAAAAAAAAAAAAAAAAAAAAAAAAAAAAAAAAAAAAAAAAAAAAAAAAAAAAAAAAAAAAAAAAAAAAAAAAAAAAAAAAAAAAAAAAAAAAAAAAAAAAAAAAAAAAAAAAAAAAAAAAAAAAAAAAAAAAAAAAAAAAAAAAAAAAAAAAAAAAAAAAAAAAAAAAAAAAAAAAAAAAAAAAAAAAAAAAAAAAAAAAAAAAAAAAAAAAAAAAAAAAAAAAAAAAAAAAAAAAAAAAAAAAAAAAAAAAAAAAAAAAAAAAAAAAAAAAAAAAAAAAAAAAAAAAAAAAAAAAAAAAAAAAAAAAAAAAAAAAAAAAAAAAAAAAAAAAAAAAAAAAAAAAAAAAAAAAAAAAAAAAAAAAAAAAAAAAAAAAAAAAAAAAAAAAAAAAAAAAAAAAAAAAAAAAAAAAAAAAAAAAAAAAAAAAAAAAAAAAAAAAAAAAAAAAAAAAAAAAAAAAAAAAAAAAAAAAAAAAAAAAAAAAAAAAAAAAAAAAAAAAAAAAAAAAAAAAAAAAAAAAAAAAAAAAAAAAAAAAAAAAAAAAAAAAAAAAAAAAAAAAAAAAAAAAAAAAAAAAAAAAAAAAAAAAAAAAAAAAAAAAAAAAAAAAAAAAAAAAAAAAAAAAAAAAAAAAAAAAAAAAAAAAAAAAAAAAAAAAAAAAAAAAAAAAAAAAAAAAAAAAAAAAAAAAAAAAAAAAAAAAAAAAAAAAAAAAAAAAAAAAAAAAAAAAAAAAAAAAAAAAAAAAAAAAAAAAAAAAAAAAAAAAAAAAAAAAAAAAAAAAAAAAAAAAAAAAAAAAAAAAAAAAAAAAAAAAAAAAAAAAAAAAAAAAAAAAAAAAAAAAAAAAAAAAAAAAAAAAAAAAAAAAAAAAAAAAAAAAAAAAAAAAAAAAAAAAAAAAAAAAAAAAAAAAAAAAAAAAAAAAAAAAAAAAAAAAAAAAAAAAAAAAAAAAAAAAAAAAAAAAAAAAAAAAAAAAAAAAAAAAAAAAAAAAAAAAAAAAAAAAAAAAAAAAAAAAAAAAAAAAAAAAAAAAAAAAAAAAAAAAAAAAAAAAAAAAAAAAAAAAAAAAAAAAAAAAAAAAAAAAAAAAAAAAAAAAAAAAAAAAAAAAAAAAAAAAAAAAAAAAAAAAAAAAAAAAAAAAAAAAAAAAAAAAAAAAAAAAAAAAAAAAAAAAAAAAAAAAAAAAAAAAAAAAAAAAAAAAAAAAAAAAAAAAAAAAAAAAAAAAAAAAAAAAAAAAAAAAAAAAAAAAAAAAAAAAAAAAAAAAAAAAAAAAAAAAAAAAAAAAAAAAAAAAAAAAAAAAAAAAAAAAAAAAAAAAAAAAAAAAAAAAAAAAAAAAAAAAAAAAAAAAAAAAAAAAAAAAAAAAAAAAAAAAAAAAAAAAAAAAAAAAAAAAAAAAAAAAAAAAAAAAAAAAAAAAAAAAAAAAAAAAAAAAAAAAAAAAAAAAAAAAAAAAAAAAAAAAAAAAAAAAAAAAAAAAAAAAAAAAAAAAAAAAAAAAAAAAAAAAAAAAAAAAAAAAAAAAAAAAAAAAAAAAAAAAAAAAAAAAAAAAAAAAAAAAAAAAAAAAAAAAAAAAAAAAAAAAAAAAAAAAAAAAAAAAAAAAAAAAAAAAAAAAAAAAAAAAAAAAAAAAAAAAAAAAAAAAAAAAAAAAAAAAAAAAAAAAAAAAAAAAAAAAAAAAAAAAAAAAAAAAAAAAAAAAAAAAAAAAAAAAAAAAAAAAAAAAAAAAAAAAAAAAAAAAAAAAAAAAAAAAAAAAAAAAAAAAAAAAAAAAAAAAAAAAAAAAAAAAAAAAAAAAAAAAAAAAAAAAAAAAAAAAAAAAAAAAAAAAAAAAAAAAAAAAAAAAAAAAAAAAAAAAAAAAAAAAAAAAAAAAAAAAAAAAAAAAAAAAAAAAAAAAAAAAAAAAAAAAAAAAAAAAAAAAAAAAAAAAAAAAAAAAAAAAAAAAAAAAAAAAAAAAAAAAAAAAAAAAAAAAAAAAAAAAAAAAAAAAAAAAAAAAAAAAAAAAAAAAAAAAAAAAAAAAAAAAAAAAAAAAAAAAAAAAAAAAAAAAAAAAAAAAAAAAAAAAAAAAAAAAAAAAAAAAAAAAAAAAAAAAAAAAAAAAAAAAAAAAAAAAAAAAAAAAAAAAAAAAAAAAAAAAAAAACAZfv/AT1qWOK3j8gAAAAAEnRFWHRFWElGOk9yaWVudGF0aW9uADGEWOzvAAAAAElFTkSuQmCC;" parent="1" vertex="1">
          <mxGeometry x="-85" y="400" width="110" height="110" as="geometry" />
        </mxCell>
        <mxCell id="A_PxswtfMoNjopDG6Hut-119" value="Python" style="text;html=1;align=center;verticalAlign=middle;whiteSpace=wrap;rounded=0;" parent="1" vertex="1">
          <mxGeometry x="122.37" y="520" width="60" height="30" as="geometry" />
        </mxCell>
        <mxCell id="A_PxswtfMoNjopDG6Hut-120" value="InfluxDB" style="text;html=1;align=center;verticalAlign=middle;whiteSpace=wrap;rounded=0;" parent="1" vertex="1">
          <mxGeometry x="410" y="520" width="60" height="30" as="geometry" />
        </mxCell>
        <mxCell id="A_PxswtfMoNjopDG6Hut-121" value="Keycloak" style="text;html=1;align=center;verticalAlign=middle;whiteSpace=wrap;rounded=0;" parent="1" vertex="1">
          <mxGeometry x="122.37" y="820" width="60" height="30" as="geometry" />
        </mxCell>
      </root>
    </mxGraphModel>
  </diagram>
</mxfile>
